{
.appVersion = "3075";
.formatVersion = 3;
DisplayStrings = (
"ABCDEFGHIJKLMNOPQRSTUVWXYZ
FPT",
"Typographic Design.",
"This is California.",
"°/o.fina 12%‰//",
"Nechť již hříšné saxofony ďáblů rozezvučí síň úděsnými tóny waltzu, tanga a quickstepu."
);
axes = (
{
name = Slant;
tag = slnt;
},
{
name = Tracking;
tag = TRAK;
}
);
classes = (
{

glyphs = (
{
glyphname = A;
kernLeft = A;
kernRight = H;
lastChange = "2021-04-27 13:07:32 +0000";
layers = (
{
anchors = (
{
name = bottom;
pos = (746,-240);
},
{
name = ogonek;
pos = (1010,-240);
},
{
name = top;
pos = (746,1400);
}
);
layerId = m003;
shapes = (
{
closed = 0;
nodes = (
(448,-240,ls),
(528,1280,ls),
(532,1360,o),
(566,1400,o),
(646,1400,cs),
(890,1400,ls),
(970,1400,o),
(1010,1360,o),
(1010,1280,cs),
(1010,120,ls),
(1010,52,o),
(1062,0,o),
(1128,0,cs,{
name = instroke_raise;
}),
(1278,0,l)
);
},
{
closed = 0;
nodes = (
(248,398,l),
(1010,398,l)
);
},
{
closed = 0;
nodes = (
(790,1400,l),
(68,1400,l)
);
},
{
closed = 0;
nodes = (
(1010,-240,l),
(1010,280,ls)
);
}
);
width = 1278;
}
);
unicode = 65;
},
{
glyphname = AE;
kernLeft = A;
kernRight = E;
lastChange = "2021-04-27 13:07:32 +0000";
layers = (
{
anchors = (
{
name = bottom;
pos = (600,0);
},
{
name = ogonek;
pos = (1010,-240);
},
{
name = top;
pos = (600,1400);
}
);
layerId = m003;
shapes = (
{
closed = 0;
nodes = (
(448,-240,l),
(528,1280,ls),
(532,1360,o),
(566,1400,o),
(646,1400,cs),
(890,1400,l),
(1010,1400,l)
);
},
{
closed = 0;
nodes = (
(248,398,l),
(1010,398,l)
);
},
{
closed = 0;
nodes = (
(790,1400,l),
(68,1400,l)
);
},
{
closed = 0;
nodes = (
(1390,460,l),
(1130,460,l),
(1010,460,l),
(1010,-240,l),
(1130,-240,l),
(1470,-240,l),
(1592,-240,o),
(1660,-172,o),
(1660,-50,c),
(1660,220,l)
);
},
{
closed = 0;
nodes = (
(1660,120,l),
(1660,44,o),
(1702,0,o),
(1778,0,cs,{
name = instroke_raise;
}),
(1888,0,l)
);
},
{
closed = 0;
nodes = (
(1500,860,l),
(1540,1280,ls),
(1548,1356,o),
(1506,1400,o),
(1420,1400,cs),
(1130,1400,l),
(1010,1400,l),
(1010,460,l),
(1130,460,l)
);
}
);
width = 1888;
}
);
unicode = 198;
},
{
glyphname = B;
kernLeft = D;
lastChange = "2021-04-27 13:07:32 +0000";
layers = (
{
anchors = (
{
name = bottom;
pos = (634,-220);
},
{
name = top;
pos = (634,1400);
}
);
layerId = m003;
shapes = (
{
closed = 0;
nodes = (
(100,1400,l),
(780,1400,l),
(860,1400,o),
(908,1366,o),
(900,1280,cs),
(828,412,l),
(100,412,l),
(880,412,l),
(960,412,o),
(1000,372,o),
(1000,292,c),
(1000,-120,l),
(1000,-200,o),
(960,-240,o),
(880,-240,cs),
(400,-240,l),
(400,1400,l)
);
},
{
closed = 0;
nodes = (
(1000,120,ls),
(1000,52,o),
(1052,0,o),
(1118,0,cs,{
name = instroke_raise;
}),
(1228,0,l)
);
}
);
width = 1228;
}
);
unicode = 66;
},
{
glyphname = C;
kernLeft = O;
lastChange = "2021-04-27 13:07:32 +0000";
layers = (
{
anchors = (
{
name = bottom;
pos = (534,-240);
},
{
name = top;
pos = (542,1400);
}
);
layerId = m003;
shapes = (
{
closed = 0;
nodes = (
(760,720,l),
(810,1280,ls),
(818,1360,o),
(770,1400,o),
(690,1400,cs),
(370,1400,ls),
(290,1400,o),
(250,1360,o),
(250,1280,cs),
(250,-120,ls),
(250,-200,o),
(290,-240,o),
(370,-240,cs),
(690,-240,ls),
(770,-240,o),
(810,-200,o),
(810,-120,cs),
(810,210,l)
);
},
{
closed = 0;
nodes = (
(810,120,ls),
(810,52,o),
(862,0,o),
(928,0,cs,{
name = instroke_raise;
}),
(1038,0,l)
);
}
);
width = 1038;
}
);
unicode = 67;
},
{
glyphname = D;
kernLeft = D;
kernRight = D;
lastChange = "2021-04-27 13:07:32 +0000";
layers = (
{
anchors = (
{
name = bottom;
pos = (612,-240);
},
{
name = center;
pos = (592,700);
},
{
name = top;
pos = (646,1400);
}
);
layerId = m003;
shapes = (
{
closed = 1;
nodes = (
(898,-240,o),
(934,-200,o),
(938,-120,cs),
(998,1280,ls),
(1002,1360,o),
(958,1400,o),
(878,1400,cs),
(368,1400,l),
(368,-240,l),
(818,-240,ls)
);
},
{
closed = 0;
nodes = (
(708,1400,l),
(68,1400,l)
);
},
{
closed = 0;
nodes = (
(948,120,ls),
(948,52,o),
(1000,0,o),
(1066,0,cs,{
name = instroke_raise;
}),
(1216,0,l)
);
}
);
width = 1216;
}
);
unicode = 68;
},
{
glyphname = Eth;
kernLeft = D;
kernRight = D;
lastChange = "2021-04-27 13:07:32 +0000";
layers = (
{
anchors = (
{
name = bottom;
pos = (612,-240);
},
{
name = center;
pos = (592,700);
},
{
name = top;
pos = (646,1400);
}
);
layerId = m003;
shapes = (
{
closed = 1;
nodes = (
(898,-240,o),
(934,-200,o),
(938,-120,cs),
(998,1280,ls),
(1002,1360,o),
(958,1400,o),
(878,1400,cs),
(368,1400,l),
(368,-240,l),
(818,-240,ls)
);
},
{
closed = 0;
nodes = (
(708,1400,l),
(68,1400,l)
);
},
{
closed = 0;
nodes = (
(948,120,ls),
(948,52,o),
(1000,0,o),
(1066,0,cs,{
name = instroke_raise;
}),
(1216,0,l)
);
},
{
closed = 0;
nodes = (
(70,478,l),
(668,478,l)
);
}
);
width = 1216;
}
);
unicode = 208;
},
{
glyphname = E;
kernLeft = E;
kernRight = E;
lastChange = "2021-04-27 13:07:32 +0000";
layers = (
{
anchors = (
{
name = bottom;
pos = (560,-240);
},
{
name = ogonek;
pos = (900,-240);
},
{
name = top;
pos = (642,1400);
},
{
name = topleft;
pos = (-10,1400);
}
);
layerId = m003;
shapes = (
{
closed = 0;
nodes = (
(630,460,l),
(370,460,l),
(294,460,o),
(250,416,o),
(250,340,cs),
(250,-120,ls),
(250,-196,o),
(294,-240,o),
(370,-240,c),
(710,-240,l),
(832,-240,o),
(900,-172,o),
(900,-50,c),
(900,220,l)
);
},
{
closed = 0;
nodes = (
(860,860,l),
(900,1280,ls),
(908,1356,o),
(866,1400,o),
(780,1400,cs),
(490,1400,ls),
(414,1400,o),
(370,1356,o),
(370,1280,cs),
(370,580,l),
(370,504,o),
(414,460,o),
(490,460,c)
);
},
{
closed = 0;
nodes = (
(900,120,ls),
(900,44,o),
(942,0,o),
(1018,0,cs,{
name = instroke_raise;
}),
(1128,0,l)
);
}
);
width = 1128;
}
);
unicode = 69;
},
{
glyphname = F;
kernLeft = T;
kernRight = F;
lastChange = "2021-04-27 13:07:32 +0000";
layers = (
{
anchors = (
{
name = bottom;
pos = (580,-240);
},
{
name = top;
pos = (580,1400);
}
);
layerId = m003;
shapes = (
{
closed = 0;
nodes = (
(410,-240,l),
(650,-240,l)
);
},
{
closed = 0;
nodes = (
(350,600,l),
(1070,600,l)
);
},
{
closed = 0;
nodes = (
(1070,1400,l),
(270,1400,ls),
(188,1400,o),
(144,1356,o),
(150,1280,cs),
(170,980,ls)
);
},
{
closed = 0;
nodes = (
(650,-240,l),
(726,-240,o),
(770,-196,o),
(770,-120,cs),
(770,1280,ls),
(770,1356,o),
(814,1400,o),
(890,1400,c)
);
}
);
width = 1210;
}
);
unicode = 70;
},
{
glyphname = G;
kernLeft = G;
kernRight = G;
lastChange = "2021-04-27 13:07:32 +0000";
layers = (
{
anchors = (
{
name = bottom;
pos = (514,-240);
},
{
name = top;
pos = (534,1400);
}
);
layerId = m003;
shapes = (
{
closed = 0;
nodes = (
(470,-240,l),
(730,-240,ls),
(806,-240,o),
(850,-196,o),
(850,-120,cs),
(850,440,l)
);
},
{
closed = 0;
nodes = (
(850,120,l),
(850,52,o),
(902,0,o),
(968,0,cs,{
name = instroke_raise;
}),
(1078,0,l)
);
},
{
closed = 0;
nodes = (
(778,794,l),
(810,1280,ls),
(816,1362,o),
(770,1400,o),
(690,1400,cs),
(370,1400,ls),
(290,1400,o),
(250,1360,o),
(250,1280,cs),
(250,340,ls),
(250,264,o),
(294,220,o),
(370,220,c),
(730,220,l),
(806,220,o),
(850,264,o),
(850,340,c)
);
}
);
width = 1078;
}
);
unicode = 71;
},
{
glyphname = H;
kernLeft = H;
kernRight = H;
lastChange = "2021-04-27 13:07:32 +0000";
layers = (
{
anchors = (
{
name = bottom;
pos = (702,0);
},
{
name = center;
pos = (622,700);
},
{
name = top;
pos = (722,1400);
},
{
name = topleft;
pos = (8,1400);
}
);
layerId = m003;
shapes = (
{
closed = 0;
nodes = (
(68,1400,l),
(356,1400,l)
);
},
{
closed = 0;
nodes = (
(1028,1400,l),
(1028,120,ls),
(1028,52,o),
(1080,0,o),
(1146,0,cs,{
name = instroke_raise;
}),
(1276,0,l)
);
},
{
closed = 0;
nodes = (
(70,478,l),
(1028,478,l)
);
},
{
closed = 0;
nodes = (
(348,1400,l),
(424,1400,o),
(468,1356,o),
(468,1280,cs),
(468,-240,l)
);
}
);
width = 1276;
}
);
unicode = 72;
},
{
glyphname = Hbar;
kernLeft = H;
kernRight = H;
lastChange = "2021-04-27 13:07:32 +0000";
layers = (
{
anchors = (
{
name = bottom;
pos = (702,0);
},
{
name = center;
pos = (622,700);
},
{
name = top;
pos = (722,1400);
},
{
name = topleft;
pos = (8,1400);
}
);
layerId = m003;
shapes = (
{
closed = 0;
nodes = (
(68,1400,l),
(356,1400,l)
);
},
{
closed = 0;
nodes = (
(1028,1400,l),
(1028,120,ls),
(1028,52,o),
(1080,0,o),
(1146,0,cs,{
name = instroke_raise;
}),
(1276,0,l)
);
},
{
closed = 0;
nodes = (
(70,478,l),
(1028,478,l)
);
},
{
closed = 0;
nodes = (
(348,1400,l),
(424,1400,o),
(468,1356,o),
(468,1280,cs),
(468,-240,l)
);
},
{
closed = 0;
nodes = (
(70,958,l),
(1196,958,l)
);
}
);
width = 1276;
}
);
unicode = 294;
},
{
glyphname = I;
kernLeft = I;
kernRight = H;
lastChange = "2021-04-27 13:07:32 +0000";
layers = (
{
anchors = (
{
name = bottom;
pos = (416,-240);
},
{
name = ogonek;
pos = (612,-240);
},
{
name = top;
pos = (376,1400);
},
{
name = topleft;
pos = (12,1400);
}
);
layerId = m003;
shapes = (
{
closed = 0;
nodes = (
(352,-240,l),
(492,-240,l),
(572,-240,o),
(612,-200,o),
(612,-120,cs),
(612,1280,ls),
(612,1360,o),
(572,1400,o),
(492,1400,cs),
(272,1400,ls),
(196,1400,o),
(144,1360,o),
(152,1280,cs),
(202,760,ls)
);
},
{
closed = 0;
nodes = (
(612,120,ls),
(612,52,o),
(664,0,o),
(730,0,cs,{
name = instroke_raise;
}),
(860,0,l)
);
}
);
width = 860;
}
);
unicode = 73;
},
{
glyphname = J;
kernLeft = J;
kernRight = J;
lastChange = "2021-04-27 13:07:32 +0000";
layers = (
{
anchors = (
{
name = bottom;
pos = (502,-400);
},
{
name = top;
pos = (502,1400);
}
);
layerId = m003;
shapes = (
{
closed = 0;
nodes = (
(324,-400,l),
(632,-400,ls),
(712,-400,o),
(752,-360,o),
(752,-280,cs),
(752,280,l),
(752,1280,ls),
(752,1360,o),
(712,1400,o),
(632,1400,cs),
(332,1400,ls),
(252,1400,o),
(202,1360,o),
(212,1280,cs),
(342,136,l)
);
},
{
closed = 0;
nodes = (
(752,120,ls),
(752,52,o),
(804,0,o),
(870,0,cs,{
name = instroke_raise;
}),
(1000,0,l)
);
}
);
width = 1000;
}
);
unicode = 74;
},
{
glyphname = K;
kernLeft = H;
kernRight = K;
lastChange = "2021-04-27 13:07:32 +0000";
layers = (
{
anchors = (
{
name = bottom;
pos = (746,-240);
},
{
name = top;
pos = (660,1400);
}
);
layerId = m003;
shapes = (
{
closed = 0;
nodes = (
(468,-240,l),
(468,1280,ls),
(468,1356,o),
(424,1400,o),
(348,1400,c)
);
},
{
closed = 0;
nodes = (
(68,520,ls),
(948,520,ls),
(1028,520,o),
(1068,480,o),
(1068,400,cs),
(1068,120,ls),
(1068,52,o),
(1120,0,o),
(1186,0,cs,{
name = instroke_raise;
}),
(1316,0,l)
);
},
{
closed = 0;
nodes = (
(814,520,l),
(948,1400,l)
);
},
{
closed = 0;
nodes = (
(68,1400,l),
(356,1400,l)
);
},
{
closed = 0;
nodes = (
(1068,-240,l),
(1068,220,ls)
);
}
);
width = 1316;
}
);
unicode = 75;
},
{
glyphname = L;
kernLeft = L;
kernRight = L;
lastChange = "2021-04-27 13:07:32 +0000";
layers = (
{
anchors = (
{
name = bottom;
pos = (532,-240);
},
{
name = center;
pos = (472,700);
},
{
name = top;
pos = (472,1400);
},
{
name = topright;
pos = (548,1400);
}
);
layerId = m003;
shapes = (
{
closed = 0;
nodes = (
(68,-240,l),
(768,-240,ls),
(848,-240,o),
(888,-200,o),
(888,-120,cs),
(888,180,ls)
);
},
{
closed = 0;
nodes = (
(568,1400,l),
(408,1400,l),
(328,1400,o),
(288,1360,o),
(288,1280,cs),
(288,-120,ls),
(288,-200,o),
(248,-240,o),
(168,-240,c)
);
},
{
closed = 0;
nodes = (
(888,120,ls),
(888,52,o),
(940,0,o),
(1006,0,cs,{
name = instroke_raise;
}),
(1056,0,l)
);
}
);
width = 1056;
}
);
unicode = 76;
},
{
glyphname = Lslash;
kernLeft = L;
kernRight = L;
lastChange = "2021-04-27 13:07:32 +0000";
layers = (
{
layerId = m003;
shapes = (
{
ref = L;
},
{
closed = 0;
nodes = (
(56,394,l),
(690,768,l)
);
}
);
width = 1056;
}
);
unicode = 321;
},
{
glyphname = M;
kernLeft = D;
kernRight = H;
lastChange = "2021-04-27 13:11:46 +0000";
layers = (
{
anchors = (
{
name = bottom;
pos = (822,0);
},
{
name = top;
pos = (888,1400);
}
);
layerId = m003;
shapes = (
{
closed = 0;
nodes = (
(368,1400,l),
(368,-240,l)
);
},
{
closed = 0;
nodes = (
(1408,-240,l),
(1408,1280,ls),
(1408,1360,o),
(1368,1400,o),
(1288,1400,cs),
(1008,1400,l),
(928,1400,o),
(888,1360,o),
(888,1280,c)
);
},
{
closed = 0;
nodes = (
(68,1400,l),
(68,1400,o),
(572,1400,o),
(572,1400,c),
(768,1400,ls),
(848,1400,o),
(888,1360,o),
(888,1280,cs),
(888,-240,l)
);
},
{
closed = 0;
nodes = (
(1408,120,ls),
(1408,52,o),
(1460,0,o),
(1526,0,cs,{
name = instroke_raise;
}),
(1676,0,l)
);
}
);
width = 1676;
}
);
unicode = 77;
},
{
glyphname = N;
kernLeft = D;
kernRight = H;
lastChange = "2021-04-27 13:10:10 +0000";
layers = (
{
anchors = (
{
name = bottom;
pos = (632,-240);
},
{
name = top;
pos = (632,1400);
}
);
layerId = m003;
shapes = (
{
closed = 0;
nodes = (
(928,-240,l),
(928,1280,ls),
(928,1360,o),
(888,1400,o),
(808,1400,cs),
(368,1400,l),
(368,-240,l)
);
},
{
closed = 0;
nodes = (
(68,1400,l),
(68,1400,o),
(568,1400,o),
(568,1400,c)
);
},
{
closed = 0;
nodes = (
(928,120,ls),
(928,52,o),
(980,0,o),
(1046,0,cs,{
name = instroke_raise;
}),
(1196,0,l)
);
}
);
width = 1196;
}
);
unicode = 78;
},
{
glyphname = Eng;
lastChange = "2021-04-27 13:07:32 +0000";
layers = (
{
layerId = m003;
shapes = (
{
ref = N;
},
{
closed = 0;
nodes = (
(928,600,l),
(928,-360,ls,{
name = "instroke_raise,outstroke_raise";
}),
(928,-428,o),
(876,-480,o),
(810,-480,cs,{
name = instroke_raise;
}),
(680,-480,l)
);
}
);
width = 1196;
}
);
unicode = 330;
},
{
glyphname = O;
kernLeft = O;
kernRight = H;
lastChange = "2021-04-27 13:07:32 +0000";
layers = (
{
anchors = (
{
name = bottom;
pos = (558,-240);
},
{
name = center;
pos = (484,700);
},
{
name = ogonek;
pos = (992,20);
},
{
name = top;
pos = (558,1400);
},
{
name = topleft;
pos = (-110,1400);
},
{
name = topright;
pos = (842,1400);
}
);
layerId = m003;
shapes = (
{
closed = 0;
nodes = (
(730,-240,l),
(810,-240,o),
(850,-200,o),
(850,-120,cs),
(850,1280,ls),
(850,1360,o),
(810,1400,o),
(730,1400,cs),
(370,1400,ls),
(290,1400,o),
(250,1360,o),
(250,1280,cs),
(250,-120,ls),
(250,-200,o),
(290,-240,o),
(370,-240,cs),
(730,-240,l)
);
},
{
closed = 0;
nodes = (
(850,120,ls),
(850,52,o),
(902,0,o),
(968,0,cs,{
name = instroke_raise;
}),
(1118,0,l)
);
}
);
width = 1118;
}
);
unicode = 79;
},
{
glyphname = Oslash;
kernLeft = O;
kernRight = H;
lastChange = "2021-04-27 13:07:32 +0000";
layers = (
{
anchors = (
{
name = bottom;
pos = (600,0);
},
{
name = top;
pos = (600,1400);
}
);
layerId = m003;
shapes = (
{
ref = O;
},
{
closed = 0;
nodes = (
(934,1522,l),
(170,-380,l)
);
}
);
width = 1118;
}
);
unicode = 216;
},
{
glyphname = OE;
kernLeft = O;
kernRight = E;
lastChange = "2021-04-27 13:07:32 +0000";
layers = (
{
anchors = (
{
name = bottom;
pos = (600,0);
},
{
name = center;
pos = (484,700);
},
{
name = ogonek;
pos = (992,20);
},
{
name = top;
pos = (600,1400);
},
{
name = topleft;
pos = (-110,1400);
},
{
name = topright;
pos = (842,1400);
}
);
layerId = m003;
shapes = (
{
closed = 0;
nodes = (
(730,-240,l),
(850,-240,l),
(850,1400,l),
(730,1400,l),
(370,1400,ls),
(290,1400,o),
(250,1360,o),
(250,1280,cs),
(250,-120,ls),
(250,-200,o),
(290,-240,o),
(370,-240,cs),
(730,-240,l)
);
},
{
closed = 0;
nodes = (
(1230,460,l),
(970,460,l),
(850,460,l),
(850,-240,l),
(970,-240,l),
(1310,-240,l),
(1432,-240,o),
(1500,-172,o),
(1500,-50,c),
(1500,220,l)
);
},
{
closed = 0;
nodes = (
(1500,120,l),
(1500,44,o),
(1542,0,o),
(1618,0,cs,{
name = instroke_raise;
}),
(1728,0,l)
);
},
{
closed = 0;
nodes = (
(1340,860,l),
(1380,1280,ls),
(1388,1356,o),
(1346,1400,o),
(1260,1400,cs),
(970,1400,l),
(850,1400,l),
(850,460,l),
(970,460,l)
);
}
);
width = 1726;
}
);
unicode = 338;
},
{
glyphname = P;
kernLeft = D;
kernRight = P;
lastChange = "2021-04-27 13:07:32 +0000";
layers = (
{
anchors = (
{
name = bottom;
pos = (366,-240);
},
{
name = top;
pos = (640,1400);
}
);
layerId = m003;
shapes = (
{
closed = 0;
nodes = (
(818,220,l),
(898,220,o),
(932,260,o),
(938,340,cs),
(998,1280,ls),
(1004,1360,o),
(958,1400,o),
(878,1400,c),
(368,1400,l),
(368,220,l),
(818,220,l)
);
},
{
closed = 0;
nodes = (
(368,220,l),
(368,-240,l)
);
},
{
closed = 0;
nodes = (
(68,1400,l),
(68,1400,o),
(568,1400,o),
(568,1400,c)
);
}
);
width = 1198;
}
);
unicode = 80;
},
{
glyphname = Thorn;
kernLeft = D;
kernRight = Thorn;
lastChange = "2021-04-27 13:07:32 +0000";
layers = (
{
anchors = (
{
name = bottom;
pos = (500,0);
},
{
name = top;
pos = (500,1400);
}
);
layerId = m003;
shapes = (
{
closed = 1;
nodes = (
(898,0,o),
(932,40,o),
(938,120,cs),
(998,1060,ls),
(1004,1140,o),
(958,1180,o),
(878,1180,c),
(368,1180,l),
(368,0,l),
(818,0,ls)
);
},
{
closed = 0;
nodes = (
(118,1400,l),
(368,1400,l),
(368,1280,l),
(368,-400,l)
);
},
{
closed = 0;
nodes = (
(938,120,ls),
(938,52,o),
(990,0,o),
(1056,0,cs,{
name = instroke_raise;
}),
(1206,0,l)
);
}
);
width = 1206;
}
);
unicode = 222;
},
{
glyphname = Q;
kernLeft = Q;
kernRight = D;
lastChange = "2021-04-27 13:07:32 +0000";
layers = (
{
anchors = (
{
name = bottom;
pos = (530,0);
},
{
name = top;
pos = (530,1400);
}
);
layerId = m003;
shapes = (
{
closed = 0;
nodes = (
(210,716,l),
(210,1280,ls),
(210,1360,o),
(250,1400,o),
(330,1400,cs),
(720,1400,ls),
(800,1400,o),
(844,1360,o),
(840,1280,cs),
(774,120,ls),
(770,40,o),
(734,0,o),
(654,0,cs),
(376,0,l)
);
},
{
closed = 0;
nodes = (
(770,-400,l),
(624,-400,ls),
(544,-400,o),
(502,-360,o),
(504,-280,cs),
(510,0,l)
);
},
{
closed = 0;
nodes = (
(774,120,l),
(774,52,o),
(826,0,o),
(892,0,cs,{
name = instroke_raise;
}),
(1042,0,l)
);
},
{
closed = 1;
nodes = (
(508,120,l),
(508,240,ls),
(508,320,o),
(468,360,o),
(388,360,cs),
(330,360,ls),
(250,360,o),
(210,320,o),
(210,240,cs),
(210,120,ls),
(210,40,o),
(250,0,o),
(330,0,cs),
(508,0,l)
);
}
);
width = 1042;
}
);
unicode = 81;
},
{
glyphname = R;
kernLeft = D;
kernRight = R;
lastChange = "2021-04-27 13:07:32 +0000";
layers = (
{
anchors = (
{
name = bottom;
pos = (592,0);
},
{
name = top;
pos = (592,1400);
}
);
layerId = m003;
shapes = (
{
closed = 0;
nodes = (
(794,380,l),
(868,1280,ls),
(874,1360,o),
(828,1400,o),
(748,1400,c),
(68,1400,l)
);
},
{
closed = 0;
nodes = (
(968,-240,l),
(968,260,ls),
(968,340,o),
(928,380,o),
(848,380,cs),
(368,380,l),
(368,-240,l)
);
},
{
closed = 0;
nodes = (
(968,120,l),
(968,52,o),
(1020,0,o),
(1086,0,cs,{
name = instroke_raise;
}),
(1216,0,l)
);
},
{
closed = 0;
nodes = (
(368,1400,l),
(368,380,l)
);
}
);
width = 1216;
}
);
unicode = 82;
},
{
glyphname = S;
kernLeft = S;
kernRight = S;
lastChange = "2021-04-27 13:07:32 +0000";
layers = (
{
anchors = (
{
name = bottom;
pos = (520,-240);
},
{
name = top;
pos = (544,1400);
}
);
layerId = m003;
shapes = (
{
closed = 0;
nodes = (
(750,740,l),
(790,1280,ls),
(796,1360,o),
(750,1400,o),
(670,1400,cs),
(370,1400,ls),
(290,1400,o),
(250,1360,o),
(250,1280,cs),
(250,360,ls),
(250,280,o),
(290,240,o),
(370,240,cs),
(650,240,l),
(730,240,o),
(770,200,o),
(770,120,c),
(770,-120,ls),
(770,-200,o),
(730,-240,o),
(650,-240,cs),
(370,-240,ls),
(290,-240,o),
(250,-200,o),
(250,-120,cs)
);
},
{
closed = 0;
nodes = (
(770,120,ls),
(770,52,o),
(822,0,o),
(888,0,cs,{
name = instroke_raise;
}),
(998,0,l)
);
}
);
width = 998;
}
);
unicode = 83;
},
{
glyphname = T;
kernLeft = T;
kernRight = T;
lastChange = "2021-04-27 13:07:32 +0000";
layers = (
{
anchors = (
{
name = bottom;
pos = (550,-240);
},
{
name = center;
pos = (550,700);
},
{
name = top;
pos = (550,1400);
}
);
layerId = m003;
shapes = (
{
closed = 0;
nodes = (
(410,-240,l),
(650,-240,l)
);
},
{
closed = 0;
nodes = (
(1030,1400,l),
(490,1400,l),
(270,1400,ls),
(190,1400,o),
(150,1360,o),
(150,1280,cs),
(150,980,ls)
);
},
{
closed = 0;
nodes = (
(650,-240,l),
(730,-240,o),
(770,-200,o),
(770,-120,cs),
(770,1280,ls),
(770,1360,o),
(810,1400,o),
(890,1400,c)
);
}
);
width = 1150;
}
);
unicode = 84;
},
{
glyphname = Tbar;
lastChange = "2021-04-27 13:07:32 +0000";
layers = (
{
layerId = m003;
shapes = (
{
ref = T;
},
{
closed = 0;
nodes = (
(430,600,l),
(1030,600,l)
);
}
);
width = 1150;
}
);
unicode = 358;
},
{
glyphname = U;
kernLeft = U;
kernRight = H;
lastChange = "2021-04-27 13:07:32 +0000";
layers = (
{
anchors = (
{
name = bottom;
pos = (706,-240);
},
{
name = ogonek;
pos = (1046,-240);
},
{
name = top;
pos = (684,1400);
},
{
name = topright;
pos = (988,1400);
}
);
layerId = m003;
shapes = (
{
closed = 0;
nodes = (
(68,1400,l),
(308,1400,ls),
(384,1400,o),
(428,1362,o),
(428,1280,cs),
(428,-120,ls),
(428,-200,o),
(468,-240,o),
(548,-240,cs),
(868,-240,ls),
(948,-240,o),
(988,-200,o),
(988,-120,cs),
(988,1400,ls)
);
},
{
closed = 0;
nodes = (
(988,120,ls),
(988,52,o),
(1040,0,o),
(1106,0,cs,{
name = instroke_raise;
}),
(1236,0,l)
);
}
);
width = 1236;
}
);
unicode = 85;
},
{
glyphname = V;
kernLeft = V;
kernRight = D;
lastChange = "2021-04-27 13:07:32 +0000";
layers = (
{
anchors = (
{
name = bottom;
pos = (594,0);
},
{
name = top;
pos = (594,1400);
}
);
layerId = m003;
shapes = (
{
closed = 0;
nodes = (
(68,1400,l),
(356,1400,l)
);
},
{
closed = 0;
nodes = (
(992,120,l),
(992,44,o),
(1034,0,o),
(1110,0,cs,{
name = instroke_raise;
}),
(1260,0,l)
);
},
{
closed = 0;
nodes = (
(348,1400,l),
(424,1400,o),
(468,1356,o),
(468,1280,cs),
(468,-120,ls),
(468,-200,o),
(508,-240,o),
(588,-240,cs),
(844,-240,l),
(924,-240,o),
(954,-200,o),
(964,-120,cs),
(1112,1178,ls),
(1130,1328,o),
(1076,1400,o),
(946,1400,cs),
(826,1400,l)
);
}
);
width = 1260;
}
);
unicode = 86;
},
{
glyphname = W;
kernLeft = V;
kernRight = D;
lastChange = "2021-04-27 13:07:32 +0000";
layers = (
{
anchors = (
{
name = bottom;
pos = (852,0);
},
{
name = top;
pos = (988,1400);
}
);
background = {
shapes = (
{
closed = 0;
nodes = (
(68,1400,l),
(348,1400,ls),
(424,1400,o),
(468,1356,o),
(468,1280,cs),
(468,-120,ls),
(468,-200,o),
(508,-240,o),
(588,-240,cs),
(868,-240,ls),
(948,-240,o),
(988,-200,o),
(988,-120,cs),
(988,1400,l)
);
},
{
closed = 0;
nodes = (
(988,-120,l),
(988,-200,o),
(1028,-240,o),
(1108,-240,cs),
(1368,-240,l),
(1448,-240,o),
(1482,-200,o),
(1488,-120,cs),
(1588,1280,ls),
(1594,1356,o),
(1550,1400,o),
(1468,1400,cs),
(1388,1400,ls)
);
},
{
closed = 0;
nodes = (
(1506,120,ls),
(1506,44,o),
(1548,0,o),
(1624,0,cs,{
name = instroke_raise;
}),
(1774,0,l)
);
}
);
};
layerId = m003;
shapes = (
{
closed = 0;
nodes = (
(68,1400,l),
(348,1400,ls),
(424,1400,o),
(468,1356,o),
(468,1280,cs),
(468,-120,ls),
(468,-200,o),
(508,-240,o),
(588,-240,cs),
(868,-240,ls),
(948,-240,o),
(988,-200,o),
(988,-120,cs),
(988,1400,l)
);
},
{
closed = 0;
nodes = (
(988,-120,l),
(988,-200,o),
(1028,-240,o),
(1108,-240,cs),
(1358,-240,l),
(1438,-240,o),
(1468,-200,o),
(1478,-120,cs),
(1626,1178,ls),
(1644,1328,o),
(1590,1400,o),
(1460,1400,cs),
(1340,1400,l)
);
},
{
closed = 0;
nodes = (
(1506,120,l),
(1506,44,o),
(1548,0,o),
(1624,0,cs,{
name = instroke_raise;
}),
(1774,0,l)
);
}
);
width = 1774;
}
);
unicode = 87;
},
{
glyphname = X;
kernLeft = X;
kernRight = K;
lastChange = "2021-04-27 13:07:32 +0000";
layers = (
{
anchors = (
{
name = bottom;
pos = (606,0);
},
{
name = top;
pos = (606,1400);
}
);
layerId = m003;
shapes = (
{
closed = 0;
nodes = (
(426,-240,l),
(426,500,ls),
(426,580,o),
(466,620,o),
(546,620,cs),
(866,620,l),
(946,620,o),
(986,580,o),
(986,500,cs),
(986,120,ls),
(986,52,o),
(1038,0,o),
(1104,0,cs,{
name = instroke_raise;
}),
(1254,0,l)
);
},
{
closed = 0;
nodes = (
(866,620,l),
(960,1400,l)
);
},
{
closed = 0;
nodes = (
(866,620,l),
(960,1400,l)
);
},
{
closed = 0;
nodes = (
(68,1400,l),
(356,1400,l)
);
},
{
closed = 0;
nodes = (
(348,1400,l),
(424,1400,o),
(460,1356,o),
(468,1280,cs),
(546,620,l)
);
},
{
closed = 0;
nodes = (
(986,-240,l),
(986,280,ls)
);
}
);
userData = {
com.typemytype.robofont.layerData = {
background = {
anchors = (
);
components = (
);
contours = (
{
points = (
{
segmentType = curve;
smooth = 1;
x = 470;
y = 250;
},
{
segmentType = line;
smooth = 1;
x = 470;
y = 60;
},
{
smooth = 0;
x = 470;
y = 7;
},
{
smooth = 0;
x = 497;
y = -20;
},
{
segmentType = curve;
smooth = 1;
x = 550;
y = -20;
},
{
segmentType = line;
smooth = 0;
x = 700;
y = -20;
},
{
segmentType = line;
smooth = 0;
x = 700;
y = 20;
},
{
segmentType = line;
smooth = 1;
x = 550;
y = 20;
},
{
smooth = 0;
x = 523;
y = 20;
},
{
smooth = 0;
x = 510;
y = 33;
},
{
segmentType = curve;
smooth = 0;
x = 510;
y = 60;
},
{
segmentType = line;
smooth = 1;
x = 510;
y = 250;
},
{
smooth = 0;
x = 513;
y = 303;
},
{
smooth = 0;
x = 483;
y = 330;
},
{
segmentType = curve;
smooth = 1;
x = 430;
y = 330;
},
{
segmentType = line;
smooth = 0;
x = 405;
y = 330;
},
{
segmentType = line;
smooth = 0;
x = 450;
y = 720;
},
{
segmentType = line;
smooth = 0;
x = 410;
y = 720;
},
{
segmentType = line;
smooth = 0;
x = 365;
y = 330;
},
{
segmentType = line;
smooth = 0;
x = 210;
y = 330;
},
{
segmentType = line;
smooth = 0;
x = 210;
y = 720;
},
{
segmentType = line;
smooth = 0;
x = 170;
y = 720;
},
{
segmentType = line;
smooth = 0;
x = 170;
y = -20;
},
{
segmentType = line;
smooth = 1;
x = 210;
y = -20;
},
{
segmentType = line;
smooth = 0;
x = 210;
y = 293;
},
{
segmentType = line;
smooth = 0;
x = 211;
y = 290;
},
{
segmentType = line;
smooth = 1;
x = 430;
y = 290;
},
{
smooth = 0;
x = 455;
y = 290;
},
{
smooth = 0;
x = 470;
y = 277;
}
);
}
);
lib = {
};
name = K;
unicodes = (
);
width = 680;
};
line = {
anchors = (
);
components = (
{
baseGlyph = underscore;
transformation = (
1,
0,
0,
1,
30,
0
);
}
);
contours = (
);
lib = {
};
name = K;
unicodes = (
);
width = 680;
};
};
};
width = 1254;
}
);
unicode = 88;
},
{
glyphname = Y;
kernLeft = Y;
kernRight = H;
lastChange = "2021-04-27 13:07:32 +0000";
layers = (
{
anchors = (
{
name = bottom;
pos = (1002,-60);
},
{
name = top;
pos = (602,1400);
},
{
name = topleft;
pos = (8,1400);
}
);
layerId = m003;
shapes = (
{
closed = 0;
nodes = (
(68,1400,l),
(68,1400,o),
(384,1400,o),
(384,1400,c),
(318,400,ls),
(312,320,o),
(358,280,o),
(438,280,c),
(848,280,l),
(848,1400,l)
);
},
{
closed = 0;
nodes = (
(402,-240,l),
(728,-240,ls),
(808,-240,o),
(848,-200,o),
(848,-120,cs),
(848,280,l)
);
},
{
closed = 0;
nodes = (
(848,120,ls),
(848,52,o),
(900,0,o),
(966,0,cs,{
name = instroke_raise;
}),
(1116,0,l)
);
}
);
width = 1116;
}
);
unicode = 89;
},
{
glyphname = Z;
kernLeft = Z;
kernRight = Z;
lastChange = "2021-04-27 14:09:08 +0000";
layers = (
{
anchors = (
{
name = bottom;
pos = (522,0);
},
{
name = center;
pos = (522,700);
},
{
name = top;
pos = (433,1400);
}
);
layerId = m003;
shapes = (
{
closed = 0;
nodes = (
(784,-500,l),
(850,480,ls),
(855,560,o),
(810,600,o),
(730,600,cs),
(730,600,o),
(580,600,o),
(580,600,c),
(670,1280,ls),
(681,1360,o),
(630,1400,o),
(550,1400,cs),
(310,1400,ls),
(230,1400,o),
(190,1362,o),
(190,1280,cs),
(190,400,ls)
);
},
{
closed = 0;
nodes = (
(826,120,ls),
(826,44,o),
(868,0,o),
(944,0,cs,{
name = instroke_raise;
}),
(1054,0,l)
);
}
);
width = 1054;
}
);
unicode = 90;
},
{
glyphname = a;
kernLeft = o;
kernRight = a;
lastChange = "2021-04-27 13:10:30 +0000";
layers = (
{
anchors = (
{
name = bottom;
pos = (478,0);
},
{
name = ogonek;
pos = (710,0);
},
{
name = top;
pos = (478,1000);
}
);
layerId = m003;
shapes = (
{
closed = 0;
nodes = (
(708,880,l),
(708,1110,l,{
name = stub;
})
);
},
{
closed = 0;
nodes = (
(248,120,l),
(248,52,o),
(196,0,o),
(130,0,cs,{
name = instroke_raise;
}),
(0,0,l)
);
},
{
closed = 0;
nodes = (
(708,120,l),
(708,52,o),
(760,0,o),
(826,0,cs,{
name = instroke_raise;
}),
(956,0,l)
);
},
{
closed = 1;
nodes = (
(668,0,o),
(708,40,o),
(708,120,cs),
(708,880,ls),
(708,960,o),
(668,1000,o),
(588,1000,cs),
(368,1000,ls),
(284,1000,o),
(248,960,o),
(248,880,cs),
(248,120,ls),
(248,40,o),
(288,0,o),
(368,0,cs),
(588,0,ls)
);
}
);
width = 956;
}
);
unicode = 97;
},
{
glyphname = b;
kernLeft = l;
kernRight = o;
lastChange = "2021-04-27 13:07:32 +0000";
layers = (
{
anchors = (
{
name = bottom;
pos = (478,0);
},
{
name = top;
pos = (478,1500);
}
);
layerId = m003;
shapes = (
{
closed = 0;
nodes = (
(248,880,l),
(248,1500,l,{
name = stub;
})
);
},
{
closed = 0;
nodes = (
(248,120,l),
(248,52,o),
(196,0,o),
(130,0,cs,{
name = instroke_raise;
}),
(0,0,l)
);
},
{
closed = 1;
nodes = (
(668,0,o),
(708,40,o),
(708,120,cs),
(708,880,ls),
(708,960,o),
(668,1000,o),
(588,1000,cs),
(368,1000,ls),
(284,1000,o),
(248,960,o),
(248,880,cs),
(248,120,ls),
(248,40,o),
(288,0,o),
(368,0,cs),
(588,0,ls)
);
},
{
closed = 0;
nodes = (
(708,120,l),
(708,52,o),
(760,0,o),
(826,0,cs,{
name = instroke_raise;
}),
(956,0,l)
);
}
);
width = 956;
}
);
unicode = 98;
},
{
glyphname = c;
kernLeft = o;
kernRight = c;
lastChange = "2021-04-27 13:07:32 +0000";
layers = (
{
anchors = (
{
name = bottom;
pos = (468,0);
},
{
name = top;
pos = (468,1000);
}
);
background = {
anchors = (
{
name = instroke;
pos = (380,120);
},
{
name = outstroke_flat;
pos = (740,0);
}
);
shapes = (
{
closed = 0;
nodes = (
(820,490,l),
(820,880,ls),
(820,960,o),
(780,1000,o),
(700,1000,cs),
(500,1000,ls),
(420,1000,o),
(380,960,o),
(380,880,cs),
(380,120,ls),
(380,40,o),
(420,0,o),
(500,0,c),
(500,0,o),
(740,0,o),
(740,0,c)
);
}
);
};
layerId = m003;
shapes = (
{
closed = 0;
nodes = (
(248,120,l),
(248,52,o),
(196,0,o),
(130,0,cs,{
name = instroke_raise;
}),
(0,0,l)
);
},
{
closed = 0;
nodes = (
(648,580,l),
(688,880,ls),
(698,960,o),
(648,1000,o),
(568,1000,c),
(368,1000,l),
(288,1000,o),
(248,960,o),
(248,880,cs),
(248,120,ls),
(248,52,o),
(296,0,o),
(368,0,c),
(568,0,l),
(640,0,o),
(690,52,o),
(690,120,c)
);
},
{
closed = 0;
nodes = (
(916,0,l),
(806,0,ls,{
name = instroke_raise;
}),
(740,0,o),
(692,50,o),
(690,120,cs),
(688,220,l)
);
}
);
width = 916;
}
);
unicode = 99;
},
{
glyphname = d;
kernLeft = o;
kernRight = l;
lastChange = "2021-04-27 13:07:32 +0000";
layers = (
{
anchors = (
{
name = bottom;
pos = (478,0);
},
{
name = center;
pos = (478,500);
},
{
name = top;
pos = (478,1500);
},
{
name = topright;
pos = (706,1500);
}
);
layerId = m003;
shapes = (
{
closed = 0;
nodes = (
(706,1500,l),
(706,120,ls),
(706,52,o),
(758,0,o),
(824,0,cs,{
name = instroke_raise;
}),
(954,0,l)
);
},
{
closed = 1;
nodes = (
(666,0,o),
(706,40,o),
(706,120,cs),
(706,880,ls),
(706,960,o),
(666,1000,o),
(586,1000,cs),
(366,1000,ls),
(282,1000,o),
(246,960,o),
(246,880,cs),
(246,120,ls),
(246,40,o),
(286,0,o),
(366,0,cs),
(586,0,ls)
);
},
{
closed = 0;
nodes = (
(246,120,ls),
(246,52,o),
(196,0,o),
(130,0,cs,{
name = instroke_raise;
}),
(0,0,l)
);
}
);
width = 954;
}
);
unicode = 100;
},
{
glyphname = eth;
kernLeft = o;
kernRight = l;
lastChange = "2021-04-27 13:07:32 +0000";
layers = (
{
layerId = m003;
shapes = (
{
closed = 1;
nodes = (
(668,0,o),
(708,40,o),
(708,120,cs),
(708,880,ls),
(708,960,o),
(668,1000,o),
(588,1000,cs),
(368,1000,ls),
(288,1000,o),
(248,960,o),
(248,880,cs),
(248,120,ls),
(248,40,o),
(288,0,o),
(368,0,cs),
(588,0,ls)
);
},
{
closed = 0;
nodes = (
(248,120,ls),
(248,52,o),
(196,0,o),
(130,0,cs,{
name = instroke_raise;
}),
(0,0,l)
);
},
{
closed = 0;
nodes = (
(708,120,ls),
(708,52,o),
(760,0,o),
(826,0,cs,{
name = instroke_raise;
}),
(956,0,l)
);
},
{
closed = 0;
nodes = (
(460,1500,l),
(590,1500,ls,{
name = instroke_raise;
}),
(656,1500,o),
(708,1448,o),
(708,1380,cs,{
name = "instroke_raise,outstroke_raise";
}),
(708,500,l)
);
},
{
closed = 0;
nodes = (
(424,1226,l),
(910,1278,l)
);
}
);
width = 956;
}
);
unicode = 240;
},
{
glyphname = dcroat;
kernLeft = o;
kernRight = l;
lastChange = "2021-04-27 13:07:32 +0000";
layers = (
{
layerId = m003;
shapes = (
{
ref = d;
},
{
closed = 0;
nodes = (
(428,1286,l),
(866,1286,l)
);
}
);
width = 954;
}
);
unicode = 273;
},
{
glyphname = e;
kernLeft = o;
kernRight = e;
lastChange = "2021-04-27 13:07:32 +0000";
layers = (
{
anchors = (
{
name = bottom;
pos = (468,0);
},
{
name = ogonek;
pos = (690,0);
},
{
name = top;
pos = (468,1000);
}
);
layerId = m003;
shapes = (
{
closed = 0;
nodes = (
(248,380,l),
(568,520,ls),
(646,554,o),
(688,638,o),
(688,720,cs),
(688,880,ls),
(688,960,o),
(648,1000,o),
(568,1000,cs),
(368,1000,ls),
(288,1000,o),
(248,960,o),
(248,880,cs),
(248,120,ls),
(248,52,o),
(296,0,o),
(368,0,c),
(368,0,o),
(568,0,o),
(568,0,c),
(642,-2,o),
(690,48,o),
(688,120,c),
(688,240,l)
);
},
{
closed = 0;
nodes = (
(248,120,ls),
(248,52,o),
(194,0,o),
(130,0,cs,{
name = instroke_raise;
}),
(0,0,l)
);
},
{
closed = 0;
nodes = (
(688,120,ls),
(688,52,o),
(740,0,o),
(806,0,c,{
name = instroke_raise;
}),
(936,0,l)
);
}
);
width = 936;
}
);
unicode = 101;
},
{
glyphname = f;
kernLeft = l;
kernRight = f;
lastChange = "2021-04-27 13:07:32 +0000";
layers = (
{
anchors = (
{
name = bottom;
pos = (402,0);
},
{
name = top;
pos = (402,1500);
}
);
layerId = m003;
shapes = (
{
closed = 0;
nodes = (
(248,120,ls),
(248,52,o),
(196,0,o),
(130,0,cs,{
name = instroke_raise;
}),
(0,0,l)
);
},
{
closed = 0;
nodes = (
(248,-400,l),
(248,1380,l),
(248,1460,o),
(288,1500,o),
(368,1500,c),
(568,1500,ls),
(648,1500,o),
(700,1440,o),
(688,1360,cs),
(516,120,ls),
(506,52,o),
(568,0,o),
(634,0,cs,{
name = instroke_raise;
}),
(824,0,l)
);
}
);
width = 824;
}
);
unicode = 102;
},
{
glyphname = g;
kernLeft = o;
kernRight = g;
lastChange = "2021-04-27 13:07:32 +0000";
layers = (
{
anchors = (
{
name = bottom;
pos = (478,-500);
},
{
name = top;
pos = (478,1000);
}
);
layerId = m003;
shapes = (
{
closed = 1;
nodes = (
(668,0,o),
(708,40,o),
(708,120,cs),
(708,880,ls),
(708,960,o),
(668,1000,o),
(588,1000,cs),
(368,1000,ls),
(288,1000,o),
(248,960,o),
(248,880,cs),
(248,120,ls),
(248,40,o),
(288,0,o),
(368,0,cs),
(588,0,ls)
);
},
{
closed = 0;
nodes = (
(248,120,ls),
(248,52,o),
(196,0,o),
(130,0,cs,{
name = instroke_raise;
}),
(0,0,l)
);
},
{
closed = 0;
nodes = (
(708,120,ls),
(708,52,o),
(760,0,o),
(826,0,cs,{
name = instroke_raise;
}),
(956,0,l)
);
},
{
closed = 0;
nodes = (
(368,-400,ls),
(588,-400,ls),
(668,-400,o),
(708,-360,o),
(708,-280,cs),
(708,480,ls)
);
},
{
closed = 0;
nodes = (
(708,880,l),
(708,1110,l,{
name = stub;
})
);
}
);
width = 956;
}
);
unicode = 103;
},
{
glyphname = h;
kernLeft = l;
kernRight = n;
lastChange = "2021-04-27 13:07:32 +0000";
layers = (
{
anchors = (
{
name = bottom;
pos = (468,0);
},
{
name = center;
pos = (468,750);
},
{
name = top;
pos = (468,1500);
}
);
layerId = m003;
shapes = (
{
closed = 0;
nodes = (
(248,880,l),
(248,960,o),
(288,1000,o),
(368,1000,c),
(568,1000,ls),
(648,1000,o),
(688,960,o),
(688,880,cs),
(688,120,ls),
(688,52,o),
(740,0,o),
(806,0,cs,{
name = instroke_raise;
}),
(936,0,l)
);
},
{
closed = 0;
nodes = (
(248,1500,l),
(248,120,ls),
(248,52,o),
(196,0,o),
(130,0,cs,{
name = instroke_raise;
}),
(0,0,l)
);
}
);
width = 936;
}
);
unicode = 104;
},
{
glyphname = hbar;
kernLeft = l;
kernRight = n;
lastChange = "2021-04-27 13:07:32 +0000";
layers = (
{
layerId = m003;
shapes = (
{
ref = h;
},
{
closed = 0;
nodes = (
(100,1286,l),
(538,1286,l)
);
}
);
width = 936;
}
);
unicode = 295;
},
{
glyphname = idotless;
kernLeft = u;
kernRight = u;
lastChange = "2021-04-27 13:07:32 +0000";
layers = (
{
anchors = (
{
name = bottom;
pos = (250,0);
},
{
name = ogonek;
pos = (250,20);
},
{
name = top;
pos = (248,1000);
}
);
layerId = m003;
shapes = (
{
closed = 0;
nodes = (
(248,1000,l),
(248,120,ls,{
name = "instroke_raise,outstroke_raise";
}),
(248,52,o),
(196,0,o),
(130,0,cs,{
name = instroke_raise;
}),
(0,0,l)
);
},
{
closed = 0;
nodes = (
(248,120,l,{
name = "instroke_raise,outstroke_raise";
}),
(248,52,o),
(300,0,o),
(366,0,cs,{
name = instroke_raise;
}),
(496,0,l)
);
}
);
width = 496;
}
);
unicode = 305;
},
{
glyphname = jdotless;
kernLeft = i;
kernRight = i;
lastChange = "2021-04-27 13:07:32 +0000";
layers = (
{
anchors = (
{
name = bottom;
pos = (600,-500);
},
{
name = top;
pos = (248,1000);
}
);
layerId = m003;
shapes = (
{
closed = 0;
nodes = (
(248,1000,l),
(248,120,ls,{
name = "instroke_raise,outstroke_raise";
}),
(248,52,o),
(196,0,o),
(130,0,cs,{
name = instroke_raise;
}),
(0,0,l)
);
},
{
closed = 0;
nodes = (
(248,120,l,{
name = "instroke_raise,outstroke_raise";
}),
(248,52,o),
(300,0,o),
(366,0,cs,{
name = instroke_raise;
}),
(496,0,l)
);
},
{
closed = 0;
nodes = (
(248,600,l),
(248,-360,ls,{
name = "instroke_raise,outstroke_raise";
}),
(248,-428,o),
(196,-480,o),
(130,-480,cs,{
name = instroke_raise;
}),
(0,-480,l)
);
}
);
width = 496;
}
);
unicode = 567;
},
{
glyphname = k;
kernLeft = l;
kernRight = k;
lastChange = "2021-04-27 13:07:32 +0000";
layers = (
{
anchors = (
{
name = bottom;
pos = (458,0);
},
{
name = top;
pos = (458,1500);
}
);
layerId = m003;
shapes = (
{
closed = 0;
nodes = (
(248,880,l),
(248,960,o),
(288,1000,o),
(368,1000,cs),
(526,1000,ls),
(606,1000,o),
(666,960,o),
(646,880,cs),
(534,440,l),
(588,440,ls),
(668,440,o),
(708,400,o),
(708,320,cs),
(708,120,ls),
(708,52,o),
(760,0,o),
(826,0,cs,{
name = instroke_raise;
}),
(916,0,l)
);
},
{
closed = 0;
nodes = (
(248,880,l)
);
},
{
closed = 0;
nodes = (
(248,1500,l),
(248,120,ls),
(248,52,o),
(196,0,o),
(130,0,cs,{
name = instroke_raise;
}),
(0,0,l)
);
}
);
width = 916;
}
);
unicode = 107;
},
{
glyphname = l;
kernLeft = l;
kernRight = l;
lastChange = "2021-04-27 13:07:32 +0000";
layers = (
{
anchors = (
{
name = bottom;
pos = (248,0);
},
{
name = center;
pos = (248,750);
},
{
name = top;
pos = (248,1500);
},
{
name = topright;
pos = (248,1500);
}
);
layerId = m003;
shapes = (
{
closed = 0;
nodes = (
(248,1500,l),
(248,120,ls,{
name = "instroke_raise,outstroke_raise";
}),
(248,52,o),
(196,0,o),
(130,0,cs,{
name = instroke_raise;
}),
(0,0,l)
);
},
{
closed = 0;
nodes = (
(248,120,l,{
name = "instroke_raise,outstroke_raise";
}),
(248,52,o),
(300,0,o),
(366,0,cs,{
name = instroke_raise;
}),
(496,0,l)
);
}
);
width = 496;
}
);
unicode = 108;
},
{
glyphname = lslash;
kernLeft = l;
kernRight = l;
lastChange = "2021-04-27 13:07:32 +0000";
layers = (
{
layerId = m003;
shapes = (
{
ref = l;
},
{
closed = 0;
nodes = (
(40,494,l),
(464,728,l)
);
}
);
width = 496;
}
);
unicode = 322;
},
{
glyphname = m;
kernLeft = n;
kernRight = o;
lastChange = "2021-04-27 13:07:32 +0000";
layers = (
{
anchors = (
{
name = bottom;
pos = (688,0);
},
{
name = top;
pos = (688,1000);
}
);
layerId = m003;
shapes = (
{
closed = 0;
nodes = (
(688,0,l),
(688,880,ls),
(688,960,o),
(648,1000,o),
(568,1000,cs),
(368,1000,l),
(288,1000,o),
(248,960,o),
(248,880,cs),
(248,120,ls),
(248,52,o),
(196,0,o),
(130,0,cs,{
name = instroke_raise;
}),
(0,0,l)
);
},
{
closed = 0;
nodes = (
(248,1110,l),
(248,880,l)
);
},
{
closed = 0;
nodes = (
(688,880,l),
(688,960,o),
(728,1000,o),
(808,1000,c),
(1008,1000,ls),
(1088,1000,o),
(1128,960,o),
(1128,880,cs),
(1128,120,ls),
(1128,52,o),
(1180,0,o),
(1246,0,cs,{
name = instroke_raise;
}),
(1376,0,l)
);
}
);
width = 1376;
}
);
unicode = 109;
},
{
glyphname = n;
kernLeft = n;
kernRight = o;
lastChange = "2021-04-27 13:07:32 +0000";
layers = (
{
anchors = (
{
name = bottom;
pos = (468,0);
},
{
name = top;
pos = (468,1000);
}
);
background = {
shapes = (
{
closed = 0;
nodes = (
(248,880,l),
(248,960,o),
(288,1000,o),
(368,1000,c),
(568,1000,ls),
(648,1000,o),
(688,960,o),
(688,880,cs),
(688,120,ls),
(688,52,o),
(740,0,o),
(806,0,cs,{
name = instroke_raise;
}),
(936,0,l)
);
},
{
closed = 0;
nodes = (
(248,1110,l),
(248,120,ls),
(248,52,o),
(196,0,o),
(130,0,cs,{
name = instroke_raise;
}),
(0,0,l)
);
}
);
};
layerId = m003;
shapes = (
{
closed = 0;
nodes = (
(248,880,l),
(248,960,o),
(288,1000,o),
(368,1000,c),
(568,1000,ls),
(648,1000,o),
(688,960,o),
(688,880,cs),
(688,120,ls),
(688,52,o),
(740,0,o),
(806,0,cs,{
name = instroke_raise;
}),
(936,0,l)
);
},
{
closed = 0;
nodes = (
(248,1110,l),
(248,120,ls),
(248,52,o),
(196,0,o),
(130,0,cs,{
name = instroke_raise;
}),
(0,0,l)
);
}
);
width = 936;
}
);
unicode = 110;
},
{
glyphname = eng;
lastChange = "2021-04-27 13:07:32 +0000";
layers = (
{
layerId = m003;
shapes = (
{
ref = n;
},
{
closed = 0;
nodes = (
(688,600,l),
(688,-360,ls,{
name = "instroke_raise,outstroke_raise";
}),
(688,-428,o),
(636,-480,o),
(570,-480,cs,{
name = instroke_raise;
}),
(440,-480,l)
);
}
);
width = 936;
}
);
unicode = 331;
},
{
glyphname = o;
kernLeft = o;
kernRight = o;
lastChange = "2021-04-27 13:07:32 +0000";
layers = (
{
anchors = (
{
name = bottom;
pos = (478,0);
},
{
name = center;
pos = (478,500);
},
{
name = ogonek;
pos = (860,20);
},
{
name = top;
pos = (478,1000);
},
{
name = topright;
pos = (696,1000);
}
);
layerId = m003;
shapes = (
{
closed = 1;
nodes = (
(668,0,o),
(708,40,o),
(708,120,cs),
(708,880,ls),
(708,960,o),
(668,1000,o),
(588,1000,cs),
(368,1000,ls),
(288,1000,o),
(248,960,o),
(248,880,cs),
(248,120,ls),
(248,40,o),
(288,0,o),
(368,0,cs),
(588,0,ls)
);
},
{
closed = 0;
nodes = (
(248,120,ls),
(248,52,o),
(196,0,o),
(130,0,cs,{
name = instroke_raise;
}),
(0,0,l)
);
},
{
closed = 0;
nodes = (
(708,120,ls),
(708,52,o),
(760,0,o),
(826,0,cs,{
name = instroke_raise;
}),
(956,0,l)
);
}
);
width = 956;
}
);
unicode = 111;
},
{
glyphname = oslash;
kernLeft = o;
kernRight = o;
lastChange = "2021-04-27 13:07:32 +0000";
layers = (
{
anchors = (
{
name = top;
pos = (600,1000);
}
);
layerId = m003;
shapes = (
{
ref = o;
},
{
closed = 0;
nodes = (
(760,1200,l),
(170,-240,l)
);
}
);
width = 956;
}
);
unicode = 248;
},
{
glyphname = oe;
kernLeft = o;
kernRight = e;
lastChange = "2021-04-27 13:07:32 +0000";
layers = (
{
anchors = (
{
name = bottom;
pos = (600,0);
},
{
name = top;
pos = (600,1000);
}
);
layerId = m003;
shapes = (
{
closed = 1;
nodes = (
(668,0,o),
(708,40,o),
(708,120,cs),
(708,880,ls),
(708,960,o),
(668,1000,o),
(588,1000,cs),
(368,1000,ls),
(288,1000,o),
(248,960,o),
(248,880,cs),
(248,120,ls),
(248,40,o),
(288,0,o),
(368,0,cs),
(588,0,ls,{
name = instroke_raise;
})
);
},
{
closed = 0;
nodes = (
(248,120,l),
(248,52,o),
(196,0,o),
(130,0,cs,{
name = instroke_raise;
}),
(0,0,l)
);
},
{
closed = 0;
nodes = (
(708,380,l),
(1028,520,ls),
(1106,554,o),
(1148,638,o),
(1148,720,cs),
(1148,880,ls),
(1148,960,o),
(1108,1000,o),
(1028,1000,cs),
(828,1000,ls),
(748,1000,o),
(708,960,o),
(708,880,cs),
(708,120,ls),
(708,52,o),
(756,0,o),
(828,0,c),
(828,0,o),
(1028,0,o),
(1028,0,c),
(1102,-2,o),
(1150,48,o),
(1148,120,c),
(1148,240,l)
);
},
{
closed = 0;
nodes = (
(1148,120,l),
(1148,52,o),
(1200,0,o),
(1266,0,c,{
name = instroke_raise;
}),
(1396,0,l)
);
}
);
width = 1396;
}
);
metricLeft = "=o";
metricRight = "=e";
unicode = 339;
},
{
glyphname = p;
kernLeft = n;
kernRight = o;
lastChange = "2021-04-27 13:07:32 +0000";
layers = (
{
anchors = (
{
name = bottom;
pos = (478,0);
},
{
name = top;
pos = (478,1000);
}
);
layerId = m003;
shapes = (
{
closed = 0;
nodes = (
(588,0,l),
(668,0,o),
(708,40,o),
(708,120,cs),
(708,880,ls),
(708,960,o),
(668,1000,o),
(588,1000,cs),
(368,1000,ls),
(288,1000,o),
(248,960,o),
(248,880,cs),
(248,120,ls),
(248,40,o),
(288,0,o),
(368,0,cs),
(588,0,ls)
);
},
{
closed = 0;
nodes = (
(248,120,l),
(248,52,o),
(196,0,o),
(130,0,cs,{
name = instroke_raise;
}),
(0,0,l)
);
},
{
closed = 0;
nodes = (
(708,120,l),
(708,52,o),
(760,0,o),
(826,0,cs,{
name = instroke_raise;
}),
(956,0,l)
);
},
{
closed = 0;
nodes = (
(248,1100,l),
(248,-500,l,{
name = "instroke_raise,outstroke_raise";
})
);
}
);
width = 956;
}
);
unicode = 112;
},
{
glyphname = thorn;
kernLeft = l;
kernRight = o;
lastChange = "2021-04-27 13:07:32 +0000";
layers = (
{
layerId = m003;
shapes = (
{
closed = 0;
nodes = (
(588,0,l),
(668,0,o),
(708,40,o),
(708,120,cs),
(708,880,ls),
(708,960,o),
(668,1000,o),
(588,1000,cs),
(368,1000,ls),
(288,1000,o),
(248,960,o),
(248,880,cs),
(248,120,ls),
(248,40,o),
(288,0,o),
(368,0,cs),
(588,0,ls)
);
},
{
closed = 0;
nodes = (
(248,120,l),
(248,52,o),
(196,0,o),
(130,0,cs,{
name = instroke_raise;
}),
(0,0,l)
);
},
{
closed = 0;
nodes = (
(708,120,l),
(708,52,o),
(760,0,o),
(826,0,cs,{
name = instroke_raise;
}),
(956,0,l)
);
},
{
closed = 0;
nodes = (
(248,1500,l),
(248,-500,l,{
name = "instroke_raise,outstroke_raise";
})
);
}
);
width = 956;
}
);
unicode = 254;
},
{
glyphname = q;
kernLeft = o;
kernRight = a;
lastChange = "2021-04-27 13:07:32 +0000";
layers = (
{
anchors = (
{
name = bottom;
pos = (478,0);
},
{
name = top;
pos = (478,1000);
}
);
layerId = m003;
shapes = (
{
closed = 0;
nodes = (
(368,0,ls),
(588,0,ls),
(668,0,o),
(708,40,o),
(708,120,cs),
(708,880,ls),
(708,960,o),
(668,1000,o),
(588,1000,cs),
(368,1000,ls),
(288,1000,o),
(248,960,o),
(248,880,cs),
(248,120,ls),
(248,40,o),
(288,0,o),
(368,0,c)
);
},
{
closed = 0;
nodes = (
(708,120,l),
(708,52,o),
(760,0,o),
(826,0,cs,{
name = instroke_raise;
}),
(956,0,l)
);
},
{
closed = 0;
nodes = (
(248,120,l),
(248,52,o),
(196,0,o),
(130,0,cs,{
name = instroke_raise;
}),
(0,0,l)
);
},
{
closed = 0;
nodes = (
(708,1100,l),
(708,-500,l,{
name = "instroke_raise,outstroke_raise";
})
);
}
);
width = 956;
}
);
unicode = 113;
},
{
glyphname = r;
kernLeft = n;
kernRight = r;
lastChange = "2021-04-27 13:07:32 +0000";
layers = (
{
anchors = (
{
name = bottom;
pos = (438,0);
},
{
name = top;
pos = (438,1000);
}
);
layerId = m003;
shapes = (
{
closed = 0;
nodes = (
(248,880,l),
(248,960,o),
(288,1000,o),
(368,1000,c),
(568,1000,ls),
(648,1000,o),
(700,958,o),
(688,880,cs),
(578,120,ls),
(568,54,o),
(618,0,o),
(686,0,cs,{
name = instroke_raise;
}),
(876,0,l)
);
},
{
closed = 0;
nodes = (
(248,1110,l),
(248,120,ls),
(248,52,o),
(196,0,o),
(130,0,cs,{
name = instroke_raise;
}),
(0,0,l)
);
}
);
width = 876;
}
);
unicode = 114;
},
{
glyphname = s;
kernLeft = s;
kernRight = s;
lastChange = "2021-04-27 13:07:32 +0000";
layers = (
{
anchors = (
{
name = bottom;
pos = (406,0);
},
{
name = top;
pos = (394,1040);
}
);
layerId = m003;
shapes = (
{
closed = 0;
nodes = (
(376,1050,l),
(354,938,o),
(428,846,o),
(496,758,cs),
(576,656,o),
(648,480,o),
(648,328,cs),
(648,120,l),
(648,40,o),
(608,0,o),
(528,0,c),
(346,0,l)
);
},
{
closed = 0;
nodes = (
(648,120,l),
(648,52,o),
(700,0,o),
(766,0,c,{
name = instroke_raise;
}),
(856,0,l)
);
},
{
closed = 0;
nodes = (
(388,1110,l,{
name = stub;
}),
(188,120,ls),
(174,54,o),
(116,0,o),
(50,0,cs,{
name = instroke_raise;
}),
(0,0,l)
);
}
);
width = 856;
}
);
unicode = 115;
},
{
glyphname = germandbls;
kernLeft = l;
kernRight = germandbls;
lastChange = "2021-04-27 13:07:32 +0000";
layers = (
{
anchors = (
{
name = bottom;
pos = (600,0);
},
{
name = top;
pos = (600,1000);
}
);
background = {
shapes = (
{
closed = 0;
nodes = (
(0,0,l),
(130,0,ls,{
name = instroke_raise;
}),
(196,0,o),
(248,52,o),
(248,120,cs),
(248,1380,l),
(248,1460,o),
(288,1500,o),
(368,1500,c),
(548,1500,ls)
);
},
{
closed = 0;
nodes = (
(248,880,ls),
(248,960,o),
(288,1000,o),
(368,1000,cs),
(516,1000,ls),
(586,1000,o),
(634,960,o),
(622,880,cs),
(554,400,l),
(628,400,l),
(704,400,o),
(752,352,o),
(748,280,cs),
(702,-500,l)
);
},
{
closed = 0;
nodes = (
(738,120,l),
(738,52,o),
(790,-2,o),
(856,0,c,{
name = instroke_raise;
}),
(946,0,l)
);
}
);
};
layerId = m003;
shapes = (
{
closed = 0;
nodes = (
(0,0,l),
(130,0,ls,{
name = instroke_raise;
}),
(196,0,o),
(248,52,o),
(248,120,cs),
(248,1382,ls),
(248,1462,o),
(288,1500,o),
(368,1500,cs),
(578,1500,ls),
(648,1500,o),
(691,1450,o),
(684,1380,cs),
(616,740,l),
(688,740,ls),
(762,740,o),
(815,690,o),
(810,620,cs),
(736,-500,l)
);
},
{
closed = 0;
nodes = (
(778,120,l),
(778,52,o),
(830,-2,o),
(896,0,c,{
name = instroke_raise;
}),
(1006,0,l)
);
}
);
width = 1006;
}
);
unicode = 223;
},
{
glyphname = t;
kernLeft = t;
kernRight = t;
lastChange = "2021-04-27 13:07:32 +0000";
layers = (
{
anchors = (
{
name = bottom;
pos = (328,0);
},
{
name = center;
pos = (328,500);
},
{
name = top;
pos = (328,1000);
},
{
name = topright;
pos = (308,1500);
}
);
layerId = m003;
shapes = (
{
closed = 0;
nodes = (
(100,1000,l),
(556,1000,l)
);
},
{
closed = 0;
nodes = (
(308,1500,l),
(308,120,l,{
name = "instroke_raise,outstroke_raise";
}),
(308,52,o),
(256,0,o),
(190,0,cs,{
name = instroke_raise;
}),
(0,0,l)
);
},
{
closed = 0;
nodes = (
(308,120,l,{
name = "instroke_raise,outstroke_raise";
}),
(308,52,o),
(360,0,o),
(426,0,cs,{
name = instroke_raise;
}),
(656,0,l)
);
}
);
width = 656;
}
);
unicode = 116;
},
{
glyphname = tbar;
lastChange = "2021-04-27 13:07:32 +0000";
layers = (
{
layerId = m003;
shapes = (
{
ref = t;
},
{
closed = 0;
nodes = (
(100,540,l),
(556,540,l)
);
}
);
width = 656;
}
);
unicode = 359;
},
{
glyphname = u;
kernLeft = u;
kernRight = u;
lastChange = "2021-04-27 13:07:32 +0000";
layers = (
{
anchors = (
{
name = bottom;
pos = (478,0);
},
{
name = ogonek;
pos = (708,0);
},
{
name = top;
pos = (478,1000);
},
{
name = topright;
pos = (708,1000);
}
);
layerId = m003;
shapes = (
{
closed = 0;
nodes = (
(248,1000,l),
(248,120,ls),
(248,40,o),
(288,0,o),
(368,0,cs),
(588,0,ls),
(668,0,o),
(708,40,o),
(708,120,cs),
(708,1000,ls)
);
},
{
closed = 0;
nodes = (
(248,120,l),
(248,52,o),
(196,0,o),
(130,0,cs,{
name = instroke_raise;
}),
(0,0,l)
);
},
{
closed = 0;
nodes = (
(708,120,l),
(708,52,o),
(760,0,o),
(826,0,cs,{
name = instroke_raise;
}),
(956,0,l)
);
}
);
width = 956;
}
);
unicode = 117;
},
{
glyphname = v;
kernLeft = u;
kernRight = v;
lastChange = "2021-04-27 13:07:32 +0000";
layers = (
{
anchors = (
{
name = bottom;
pos = (458,0);
},
{
name = top;
pos = (458,1000);
}
);
background = {
shapes = (
{
closed = 0;
nodes = (
(588,0,l),
(668,0,o),
(708,40,o),
(708,120,cs),
(708,1000,ls)
);
},
{
closed = 0;
nodes = (
(248,120,l),
(248,52,o),
(196,0,o),
(130,0,cs,{
name = instroke_raise;
}),
(0,0,l)
);
},
{
closed = 0;
nodes = (
(708,120,l),
(708,52,o),
(760,0,o),
(826,0,cs,{
name = instroke_raise;
}),
(956,0,l)
);
},
{
closed = 0;
nodes = (
(248,1000,l),
(248,120,ls),
(248,40,o),
(288,0,o),
(368,0,cs),
(588,0,ls)
);
}
);
};
layerId = m003;
shapes = (
{
closed = 0;
nodes = (
(248,1000,l),
(248,120,ls),
(248,40,o),
(292,0,o),
(368,0,cs),
(508,0,l),
(588,0,o),
(616,40,o),
(628,120,cs),
(734,778,ls),
(758,926,o),
(698,1000,o),
(568,1000,cs),
(488,1000,l)
);
},
{
closed = 0;
nodes = (
(248,120,l),
(248,52,o),
(196,0,o),
(130,0,cs,{
name = instroke_raise;
}),
(0,0,l)
);
},
{
closed = 0;
nodes = (
(628,120,l),
(628,52,o),
(680,0,o),
(746,0,cs,{
name = instroke_raise;
}),
(916,0,l)
);
}
);
width = 916;
}
);
unicode = 118;
},
{
glyphname = w;
kernLeft = u;
kernRight = v;
lastChange = "2021-04-27 13:07:32 +0000";
layers = (
{
anchors = (
{
name = bottom;
pos = (648,0);
},
{
name = top;
pos = (648,1000);
}
);
layerId = m003;
shapes = (
{
closed = 0;
nodes = (
(248,120,l),
(248,52,o),
(196,0,o),
(130,0,cs,{
name = instroke_raise;
}),
(0,0,l)
);
},
{
closed = 0;
nodes = (
(1008,120,l),
(1008,52,o),
(1060,0,o),
(1126,0,cs,{
name = instroke_raise;
}),
(1296,0,l)
);
},
{
closed = 0;
nodes = (
(248,1000,l),
(248,120,ls),
(248,40,o),
(292,0,o),
(368,0,cs),
(508,0,l,{
name = instroke_raise;
}),
(588,0,o),
(616,40,o),
(628,120,cs)
);
},
{
closed = 0;
nodes = (
(628,1000,l),
(628,120,ls),
(628,40,o),
(672,0,o),
(748,0,cs),
(888,0,l),
(968,0,o),
(996,40,o),
(1008,120,cs),
(1114,778,ls),
(1138,926,o),
(1078,1000,o),
(948,1000,cs),
(888,1000,l)
);
}
);
width = 1296;
}
);
unicode = 119;
},
{
glyphname = x;
kernLeft = x;
kernRight = x;
lastChange = "2021-04-27 13:07:32 +0000";
layers = (
{
anchors = (
{
name = bottom;
pos = (456,0);
},
{
name = top;
pos = (456,1000);
}
);
layerId = m003;
shapes = (
{
closed = 0;
nodes = (
(652,1000,ls),
(540,440,l),
(554,440,ls),
(634,440,o),
(674,400,o),
(674,320,cs),
(674,120,ls),
(674,52,o),
(726,0,o),
(792,0,cs,{
name = instroke_raise;
}),
(882,0,l)
);
},
{
closed = 0;
nodes = (
(230,1000,ls),
(342,440,l),
(328,440,ls),
(248,440,o),
(208,400,o),
(208,320,cs),
(208,120,ls),
(208,52,o),
(156,0,o),
(90,0,cs,{
name = instroke_raise;
}),
(0,0,l)
);
},
{
closed = 0;
nodes = (
(344,440,l),
(540,440,l)
);
}
);
width = 882;
}
);
unicode = 120;
},
{
glyphname = y;
kernLeft = u;
kernRight = u;
lastChange = "2021-04-27 13:07:32 +0000";
layers = (
{
anchors = (
{
name = bottom;
pos = (866,0);
},
{
name = top;
pos = (468,1000);
}
);
layerId = m003;
shapes = (
{
closed = 0;
nodes = (
(568,0,l),
(648,0,o),
(688,40,o),
(688,120,cs),
(688,1000,ls)
);
},
{
closed = 0;
nodes = (
(248,120,l),
(248,52,o),
(196,0,o),
(130,0,cs,{
name = instroke_raise;
}),
(0,0,l)
);
},
{
closed = 0;
nodes = (
(688,120,l),
(688,52,o),
(740,0,o),
(806,0,cs,{
name = instroke_raise;
}),
(936,0,l)
);
},
{
closed = 0;
nodes = (
(568,-400,l),
(648,-400,o),
(688,-360,o),
(688,-280,cs),
(688,480,ls)
);
},
{
closed = 0;
nodes = (
(348,-400,l),
(568,-400,ls)
);
},
{
closed = 0;
nodes = (
(248,1000,l),
(248,120,ls),
(248,40,o),
(288,0,o),
(368,0,cs),
(568,0,ls)
);
}
);
width = 936;
}
);
unicode = 121;
},
{
glyphname = z;
kernLeft = o;
kernRight = z;
lastChange = "2021-04-27 13:07:32 +0000";
layers = (
{
anchors = (
{
name = bottom;
pos = (494,0);
},
{
name = center;
pos = (494,500);
},
{
name = top;
pos = (460,1000);
}
);
layerId = m003;
shapes = (
{
closed = 0;
nodes = (
(0,0,l),
(130,0,ls,{
name = instroke_raise;
}),
(194,0,o),
(248,52,o),
(248,120,cs,{
name = instroke_raise;
}),
(248,880,ls),
(248,960,o),
(288,1000,o),
(368,1000,cs),
(536,1000,ls),
(606,1000,o),
(660,960,o),
(642,880,cs),
(534,400,l),
(648,400,l),
(728,400,o),
(773,360,o),
(768,280,cs),
(722,-500,l)
);
},
{
closed = 0;
nodes = (
(760,120,l),
(756,52,o),
(810,-2,o),
(876,0,c,{
name = instroke_raise;
}),
(966,0,l)
);
}
);
width = 966;
}
);
unicode = 122;
},
{
color = 6;
glyphname = b.fina;
kernLeft = l;
kernRight = o.n;
lastChange = "2021-04-27 13:07:32 +0000";
layers = (
{
layerId = m003;
shapes = (
{
closed = 0;
nodes = (
(248,880,l),
(248,1500,l,{
name = stub;
})
);
},
{
closed = 0;
nodes = (
(248,120,l),
(248,52,o),
(196,0,o),
(130,0,cs,{
name = instroke_raise;
}),
(0,0,l)
);
},
{
closed = 1;
nodes = (
(668,0,o),
(708,40,o),
(708,120,cs),
(708,880,ls),
(708,960,o),
(668,1000,o),
(588,1000,cs),
(368,1000,ls),
(284,1000,o),
(248,960,o),
(248,880,cs),
(248,120,ls),
(248,40,o),
(288,0,o),
(368,0,cs),
(588,0,ls)
);
}
);
width = 908;
}
);
},
{
color = 6;
glyphname = c.fina;
kernLeft = o;
kernRight = c.n;
lastChange = "2021-04-27 13:07:32 +0000";
layers = (
{
anchors = (
{
name = bottom;
pos = (468,0);
},
{
name = top;
pos = (468,1000);
}
);
background = {
anchors = (
{
name = instroke;
pos = (380,120);
},
{
name = outstroke_flat;
pos = (740,0);
}
);
shapes = (
{
closed = 0;
nodes = (
(820,490,l),
(820,880,ls),
(820,960,o),
(780,1000,o),
(700,1000,cs),
(500,1000,ls),
(420,1000,o),
(380,960,o),
(380,880,cs),
(380,120,ls),
(380,40,o),
(420,0,o),
(500,0,c),
(500,0,o),
(740,0,o),
(740,0,c)
);
}
);
};
layerId = m003;
shapes = (
{
closed = 0;
nodes = (
(248,120,l),
(248,52,o),
(196,0,o),
(130,0,cs,{
name = instroke_raise;
}),
(0,0,l)
);
},
{
closed = 0;
nodes = (
(648,580,l),
(688,880,ls),
(698,960,o),
(648,1000,o),
(568,1000,cs),
(368,1000,ls),
(288,1000,o),
(248,960,o),
(248,880,cs),
(248,120,ls),
(248,52,o),
(296,0,o),
(368,0,c),
(368,0,o),
(608,0,o),
(608,0,c),
(680,0,o),
(728,52,o),
(728,120,c),
(728,220,l)
);
}
);
width = 928;
}
);
},
{
color = 6;
glyphname = e.fina;
kernLeft = o;
kernRight = e.n;
lastChange = "2021-04-27 13:07:32 +0000";
layers = (
{
anchors = (
{
name = bottom;
pos = (468,0);
},
{
name = ogonek;
pos = (690,0);
},
{
name = top;
pos = (468,1000);
}
);
layerId = m003;
shapes = (
{
closed = 0;
nodes = (
(248,380,l),
(568,520,ls),
(646,554,o),
(688,638,o),
(688,720,cs),
(688,880,ls),
(688,960,o),
(648,1000,o),
(568,1000,cs),
(368,1000,ls),
(288,1000,o),
(248,960,o),
(248,880,cs),
(248,120,ls),
(248,52,o),
(296,0,o),
(368,0,c),
(368,0,o),
(608,0,o),
(608,0,c),
(680,0,o),
(728,52,o),
(728,120,c),
(728,240,l)
);
},
{
closed = 0;
nodes = (
(248,120,l),
(248,52,o),
(194,0,o),
(130,0,cs,{
name = instroke_raise;
}),
(0,0,l)
);
}
);
width = 928;
}
);
},
{
color = 6;
glyphname = g.fina;
kernLeft = o;
kernRight = g.n;
lastChange = "2021-04-27 13:07:32 +0000";
layers = (
{
anchors = (
{
name = bottom;
pos = (478,-500);
},
{
name = top;
pos = (478,1000);
}
);
layerId = m003;
shapes = (
{
closed = 1;
nodes = (
(668,0,o),
(708,40,o),
(708,120,cs),
(708,880,ls),
(708,960,o),
(668,1000,o),
(588,1000,cs),
(368,1000,ls),
(288,1000,o),
(248,960,o),
(248,880,cs),
(248,120,ls),
(248,40,o),
(288,0,o),
(368,0,cs),
(588,0,ls)
);
},
{
closed = 0;
nodes = (
(248,120,l),
(248,52,o),
(196,0,o),
(130,0,cs,{
name = instroke_raise;
}),
(0,0,l)
);
},
{
closed = 0;
nodes = (
(368,-400,l),
(588,-400,ls),
(668,-400,o),
(708,-360,o),
(708,-280,cs),
(708,480,l)
);
},
{
closed = 0;
nodes = (
(708,880,l),
(708,1110,l,{
name = stub;
})
);
}
);
width = 908;
}
);
},
{
color = 6;
glyphname = jdotless.fina;
kernLeft = u;
kernRight = u.n;
lastChange = "2021-04-27 13:07:32 +0000";
layers = (
{
anchors = (
{
name = bottom;
pos = (600,-500);
},
{
name = top;
pos = (248,1000);
}
);
layerId = m003;
shapes = (
{
closed = 0;
nodes = (
(248,1000,l),
(248,120,ls,{
name = "instroke_raise,outstroke_raise";
}),
(248,52,o),
(196,0,o),
(130,0,cs,{
name = instroke_raise;
}),
(0,0,l)
);
},
{
closed = 0;
nodes = (
(248,600,l),
(248,-360,ls,{
name = "instroke_raise,outstroke_raise";
}),
(248,-428,o),
(196,-480,o),
(130,-480,cs,{
name = instroke_raise;
}),
(0,-480,l)
);
}
);
width = 496;
}
);
},
{
color = 6;
glyphname = o.fina;
kernLeft = o;
kernRight = o.h;
lastChange = "2021-04-27 13:07:32 +0000";
layers = (
{
anchors = (
{
name = bottom;
pos = (478,0);
},
{
name = center;
pos = (478,500);
},
{
name = ogonek;
pos = (860,20);
},
{
name = top;
pos = (478,1000);
},
{
name = topright;
pos = (916,1000);
}
);
layerId = m003;
shapes = (
{
closed = 1;
nodes = (
(668,0,o),
(708,40,o),
(708,120,cs),
(708,880,ls),
(708,960,o),
(668,1000,o),
(588,1000,cs),
(368,1000,ls),
(288,1000,o),
(248,960,o),
(248,880,cs),
(248,120,ls),
(248,40,o),
(288,0,o),
(368,0,cs),
(588,0,ls)
);
},
{
closed = 0;
nodes = (
(248,120,ls),
(248,52,o),
(196,0,o),
(130,0,cs,{
name = instroke_raise;
}),
(0,0,l)
);
},
{
closed = 0;
nodes = (
(708,820,ls),
(708,752,o),
(760,700,o),
(826,700,cs,{
name = instroke_raise;
}),
(956,700,l)
);
}
);
width = 956;
}
);
},
{
color = 6;
glyphname = p.fina;
kernLeft = n;
kernRight = o.n;
lastChange = "2021-04-27 13:07:32 +0000";
layers = (
{
anchors = (
{
name = bottom;
pos = (478,0);
},
{
name = top;
pos = (478,1000);
}
);
layerId = m003;
shapes = (
{
closed = 0;
nodes = (
(588,0,l),
(668,0,o),
(708,40,o),
(708,120,cs),
(708,880,ls),
(708,960,o),
(668,1000,o),
(588,1000,cs),
(368,1000,ls),
(288,1000,o),
(248,960,o),
(248,880,cs),
(248,120,ls),
(248,40,o),
(288,0,o),
(368,0,cs),
(588,0,ls)
);
},
{
closed = 0;
nodes = (
(248,120,l),
(248,52,o),
(196,0,o),
(130,0,cs,{
name = instroke_raise;
}),
(0,0,l)
);
},
{
closed = 0;
nodes = (
(248,1100,l),
(248,-500,l,{
name = "instroke_raise,outstroke_raise";
})
);
}
);
width = 908;
}
);
},
{
color = 6;
glyphname = thorn.fina;
kernLeft = h;
kernRight = o.n;
lastChange = "2021-04-27 13:07:32 +0000";
layers = (
{
layerId = m003;
shapes = (
{
closed = 0;
nodes = (
(588,0,l),
(668,0,o),
(708,40,o),
(708,120,cs),
(708,880,ls),
(708,960,o),
(668,1000,o),
(588,1000,cs),
(368,1000,ls),
(288,1000,o),
(248,960,o),
(248,880,cs),
(248,120,ls),
(248,40,o),
(288,0,o),
(368,0,cs),
(588,0,ls)
);
},
{
closed = 0;
nodes = (
(248,120,l),
(248,52,o),
(196,0,o),
(130,0,cs,{
name = instroke_raise;
}),
(0,0,l)
);
},
{
closed = 0;
nodes = (
(248,1500,l),
(248,-500,l,{
name = "instroke_raise,outstroke_raise";
})
);
}
);
width = 908;
}
);
},
{
color = 6;
glyphname = q.fina;
kernLeft = o;
kernRight = g.n;
lastChange = "2021-04-27 13:07:32 +0000";
layers = (
{
anchors = (
{
name = bottom;
pos = (478,0);
},
{
name = top;
pos = (478,1000);
}
);
layerId = m003;
shapes = (
{
closed = 0;
nodes = (
(368,0,l),
(588,0,ls),
(668,0,o),
(708,40,o),
(708,120,cs),
(708,880,ls),
(708,960,o),
(668,1000,o),
(588,1000,cs),
(368,1000,ls),
(288,1000,o),
(248,960,o),
(248,880,cs),
(248,120,ls),
(248,40,o),
(288,0,o),
(368,0,c)
);
},
{
closed = 0;
nodes = (
(248,120,l),
(248,52,o),
(196,0,o),
(130,0,cs,{
name = instroke_raise;
}),
(0,0,l)
);
},
{
closed = 0;
nodes = (
(708,1100,l),
(708,-500,l,{
name = "instroke_raise,outstroke_raise";
})
);
}
);
width = 908;
}
);
},
{
color = 6;
glyphname = s.fina;
kernLeft = s;
kernRight = s.n;
lastChange = "2021-04-27 13:07:32 +0000";
layers = (
{
anchors = (
{
name = bottom;
pos = (448,0);
},
{
name = top;
pos = (448,1000);
}
);
background = {
shapes = (
{
closed = 0;
nodes = (
(376,1050,l),
(354,938,o),
(428,846,o),
(496,758,cs),
(576,656,o),
(648,480,o),
(648,328,cs),
(648,120,l),
(648,40,o),
(608,0,o),
(528,0,c),
(346,0,l)
);
},
{
closed = 0;
nodes = (
(648,120,l),
(648,52,o),
(700,0,o),
(766,0,c,{
name = instroke_raise;
}),
(856,0,l)
);
},
{
closed = 0;
nodes = (
(388,1110,l,{
name = stub;
}),
(188,120,ls),
(174,54,o),
(116,0,o),
(50,0,cs,{
name = instroke_raise;
}),
(0,0,l)
);
}
);
};
layerId = m003;
shapes = (
{
closed = 0;
nodes = (
(346,0,l),
(528,0,l),
(608,0,o),
(648,40,o),
(648,120,c),
(648,328,ls),
(648,480,o),
(576,656,o),
(496,758,cs),
(428,846,o),
(354,938,o),
(376,1050,c)
);
},
{
closed = 0;
nodes = (
(388,1110,l,{
name = stub;
}),
(188,120,ls),
(174,54,o),
(116,0,o),
(50,0,cs,{
name = instroke_raise;
}),
(0,0,l)
);
}
);
width = 848;
}
);
},
{
color = 6;
glyphname = t.fina;
kernLeft = t;
kernRight = t;
lastChange = "2021-04-27 13:07:32 +0000";
layers = (
{
anchors = (
{
name = bottom;
pos = (328,0);
},
{
name = center;
pos = (328,500);
},
{
name = top;
pos = (328,1000);
},
{
name = topright;
pos = (596,1000);
}
);
layerId = m003;
shapes = (
{
closed = 0;
nodes = (
(100,1000,l),
(556,1000,l)
);
},
{
closed = 0;
nodes = (
(308,1500,l),
(308,120,l,{
name = "instroke_raise,outstroke_raise";
}),
(308,52,o),
(256,0,o),
(190,0,cs,{
name = instroke_raise;
}),
(0,0,l)
);
},
{
closed = 0;
nodes = (
(308,120,l,{
name = "instroke_raise,outstroke_raise";
}),
(308,52,o),
(360,0,o),
(426,0,cs,{
name = instroke_raise;
}),
(656,0,l)
);
}
);
width = 656;
}
);
},
{
color = 6;
glyphname = v.fina;
kernLeft = u;
kernRight = v.h;
lastChange = "2021-04-27 13:07:32 +0000";
layers = (
{
anchors = (
{
name = bottom;
pos = (458,0);
},
{
name = top;
pos = (458,1000);
}
);
background = {
shapes = (
{
closed = 0;
nodes = (
(588,0,l),
(668,0,o),
(708,40,o),
(708,120,cs),
(708,1000,ls)
);
},
{
closed = 0;
nodes = (
(248,120,l),
(248,52,o),
(196,0,o),
(130,0,cs,{
name = instroke_raise;
}),
(0,0,l)
);
},
{
closed = 0;
nodes = (
(708,120,l),
(708,52,o),
(760,0,o),
(826,0,cs,{
name = instroke_raise;
}),
(956,0,l)
);
},
{
closed = 0;
nodes = (
(248,1000,l),
(248,120,ls),
(248,40,o),
(288,0,o),
(368,0,cs),
(588,0,ls)
);
}
);
};
layerId = m003;
shapes = (
{
closed = 0;
nodes = (
(248,1000,l),
(248,120,ls),
(248,40,o),
(292,0,o),
(368,0,cs),
(508,0,l),
(588,0,o),
(616,40,o),
(628,120,cs),
(734,778,ls),
(758,926,o),
(698,1000,o),
(568,1000,cs),
(488,1000,l)
);
},
{
closed = 0;
nodes = (
(248,120,l),
(248,52,o),
(196,0,o),
(130,0,cs,{
name = instroke_raise;
}),
(0,0,l)
);
},
{
closed = 0;
nodes = (
(738,820,ls),
(738,752,o),
(790,700,o),
(856,700,cs,{
name = instroke_raise;
}),
(986,700,l)
);
}
);
width = 986;
}
);
},
{
color = 6;
glyphname = w.fina;
kernLeft = u;
kernRight = v.h;
lastChange = "2021-04-27 13:07:32 +0000";
layers = (
{
anchors = (
{
name = bottom;
pos = (648,0);
},
{
name = top;
pos = (648,1000);
}
);
layerId = m003;
shapes = (
{
closed = 0;
nodes = (
(248,1000,l),
(248,120,ls),
(248,40,o),
(292,0,o),
(368,0,cs),
(508,0,l,{
name = instroke_raise;
}),
(588,0,o),
(616,40,o),
(628,120,cs)
);
},
{
closed = 0;
nodes = (
(248,120,l),
(248,52,o),
(196,0,o),
(130,0,cs,{
name = instroke_raise;
}),
(0,0,l)
);
},
{
closed = 0;
nodes = (
(510,0,l,{
name = instroke_raise;
}),
(380,0,l)
);
},
{
closed = 0;
nodes = (
(628,1000,l),
(628,120,ls),
(628,40,o),
(672,0,o),
(748,0,cs),
(888,0,l),
(968,0,o),
(996,40,o),
(1008,120,cs),
(1114,778,ls),
(1138,926,o),
(1078,1000,o),
(948,1000,cs),
(888,1000,l)
);
},
{
closed = 0;
nodes = (
(1118,820,ls),
(1118,752,o),
(1170,700,o),
(1236,700,cs,{
name = instroke_raise;
}),
(1366,700,l)
);
}
);
width = 1366;
}
);
},
{
color = 6;
glyphname = x.fina;
kernLeft = x;
kernRight = x;
lastChange = "2021-04-27 13:07:32 +0000";
layers = (
{
anchors = (
{
name = bottom;
pos = (490,0);
},
{
name = top;
pos = (490,1000);
}
);
layerId = m003;
shapes = (
{
closed = 0;
nodes = (
(652,1000,ls),
(540,440,l),
(554,440,ls),
(634,440,o),
(674,400,o),
(674,320,cs),
(674,120,ls),
(674,52,o),
(726,0,o),
(792,0,cs,{
name = instroke_raise;
}),
(882,0,l)
);
},
{
closed = 0;
nodes = (
(230,1000,ls),
(342,440,l),
(328,440,ls),
(248,440,o),
(208,400,o),
(208,320,cs),
(208,120,ls),
(208,52,o),
(156,0,o),
(90,0,cs,{
name = instroke_raise;
}),
(0,0,l)
);
},
{
closed = 0;
nodes = (
(344,440,l),
(540,440,l)
);
}
);
width = 882;
}
);
},
{
color = 6;
glyphname = y.fina;
kernLeft = u;
kernRight = g.n;
lastChange = "2021-04-27 13:07:32 +0000";
layers = (
{
anchors = (
{
name = bottom;
pos = (468,0);
},
{
name = top;
pos = (468,1000);
}
);
layerId = m003;
shapes = (
{
closed = 0;
nodes = (
(568,0,l),
(648,0,o),
(688,40,o),
(688,120,cs),
(688,1000,ls)
);
},
{
closed = 0;
nodes = (
(248,120,l),
(248,52,o),
(196,0,o),
(130,0,cs,{
name = instroke_raise;
}),
(0,0,l)
);
},
{
closed = 0;
nodes = (
(568,-400,l),
(648,-400,o),
(688,-360,o),
(688,-280,cs),
(688,480,ls)
);
},
{
closed = 0;
nodes = (
(348,-400,l),
(568,-400,ls)
);
},
{
closed = 0;
nodes = (
(248,1000,l),
(248,120,ls),
(248,40,o),
(288,0,o),
(368,0,cs),
(568,0,ls)
);
}
);
width = 888;
}
);
},
{
color = 6;
glyphname = z.fina;
kernLeft = o;
kernRight = z.n;
lastChange = "2021-04-27 13:07:32 +0000";
layers = (
{
anchors = (
{
name = bottom;
pos = (494,0);
},
{
name = center;
pos = (494,500);
},
{
name = top;
pos = (494,1000);
}
);
background = {
shapes = (
{
closed = 0;
nodes = (
(0,0,l),
(130,0,ls,{
name = instroke_raise;
}),
(194,0,o),
(248,52,o),
(248,120,cs,{
name = instroke_raise;
}),
(248,880,ls),
(248,960,o),
(288,1000,o),
(368,1000,cs),
(536,1000,ls),
(606,1000,o),
(660,960,o),
(642,880,cs),
(534,400,l),
(648,400,l),
(728,400,o),
(772,360,o),
(768,280,cs),
(722,-500,l)
);
},
{
closed = 0;
nodes = (
(758,120,l),
(758,52,o),
(810,-2,o),
(876,0,c,{
name = instroke_raise;
}),
(966,0,l)
);
}
);
};
layerId = m003;
shapes = (
{
closed = 0;
nodes = (
(0,0,l),
(130,0,ls,{
name = instroke_raise;
}),
(194,0,o),
(248,52,o),
(248,120,cs,{
name = instroke_raise;
}),
(248,880,ls),
(248,960,o),
(288,1000,o),
(368,1000,cs),
(516,1000,ls),
(586,1000,o),
(636,960,o),
(622,880,cs),
(534,400,l),
(648,400,l),
(728,400,o),
(772,360,o),
(768,280,cs),
(722,-500,l)
);
}
);
width = 938;
}
);
},
{
color = 9;
glyphname = a.high;
kernLeft = o.h;
kernRight = a;
lastChange = "2021-04-27 13:07:32 +0000";
layers = (
{
anchors = (
{
name = bottom;
pos = (478,0);
},
{
name = ogonek;
pos = (710,0);
},
{
name = top;
pos = (478,1000);
}
);
layerId = m003;
shapes = (
{
closed = 0;
nodes = (
(708,880,l),
(708,1110,l,{
name = stub;
})
);
},
{
closed = 0;
nodes = (
(248,820,l),
(248,752,o),
(196,700,o),
(130,700,cs,{
name = instroke_raise;
}),
(0,700,l)
);
},
{
closed = 0;
nodes = (
(708,120,l),
(708,52,o),
(760,0,o),
(826,0,cs,{
name = instroke_raise;
}),
(956,0,l)
);
},
{
closed = 1;
nodes = (
(668,0,o),
(708,40,o),
(708,120,cs),
(708,880,ls),
(708,960,o),
(668,1000,o),
(588,1000,cs),
(368,1000,ls),
(284,1000,o),
(248,960,o),
(248,880,cs),
(248,120,ls),
(248,40,o),
(288,0,o),
(368,0,cs),
(588,0,ls)
);
}
);
width = 956;
}
);
},
{
color = 9;
glyphname = b.high;
kernLeft = l.h;
kernRight = o;
lastChange = "2021-04-27 13:07:32 +0000";
layers = (
{
anchors = (
{
name = bottom;
pos = (478,0);
},
{
name = top;
pos = (478,1500);
}
);
layerId = m003;
shapes = (
{
closed = 0;
nodes = (
(248,880,l),
(248,1500,l,{
name = stub;
})
);
},
{
closed = 0;
nodes = (
(248,820,l),
(248,752,o),
(196,700,o),
(130,700,cs,{
name = instroke_raise;
}),
(0,700,l)
);
},
{
closed = 0;
nodes = (
(708,120,l),
(708,52,o),
(760,0,o),
(826,0,cs,{
name = instroke_raise;
}),
(956,0,l)
);
},
{
closed = 1;
nodes = (
(668,0,o),
(708,40,o),
(708,120,cs),
(708,880,ls),
(708,960,o),
(668,1000,o),
(588,1000,cs),
(368,1000,ls),
(284,1000,o),
(248,960,o),
(248,880,cs),
(248,120,ls),
(248,40,o),
(288,0,o),
(368,0,cs),
(588,0,ls)
);
}
);
width = 956;
}
);
},
{
color = 9;
glyphname = c.high;
kernLeft = o.h;
kernRight = c;
lastChange = "2021-04-27 13:07:32 +0000";
layers = (
{
anchors = (
{
name = bottom;
pos = (468,0);
},
{
name = top;
pos = (468,1000);
}
);
background = {
anchors = (
{
name = instroke;
pos = (380,120);
},
{
name = outstroke_flat;
pos = (740,0);
}
);
shapes = (
{
closed = 0;
nodes = (
(820,490,l),
(820,880,ls),
(820,960,o),
(780,1000,o),
(700,1000,cs),
(500,1000,ls),
(420,1000,o),
(380,960,o),
(380,880,cs),
(380,120,ls),
(380,40,o),
(420,0,o),
(500,0,c),
(500,0,o),
(740,0,o),
(740,0,c)
);
}
);
};
layerId = m003;
shapes = (
{
closed = 0;
nodes = (
(248,820,l),
(248,752,o),
(196,700,o),
(130,700,cs,{
name = instroke_raise;
}),
(0,700,l)
);
},
{
closed = 0;
nodes = (
(688,120,l),
(688,50,o),
(740,0,o),
(806,0,cs,{
name = instroke_raise;
}),
(916,0,l)
);
},
{
closed = 0;
nodes = (
(648,580,l),
(688,880,ls),
(698,960,o),
(648,1000,o),
(568,1000,cs),
(368,1000,ls),
(288,1000,o),
(248,960,o),
(248,880,cs),
(248,120,ls),
(248,52,o),
(296,0,o),
(368,0,c),
(368,0,o),
(568,0,o),
(568,0,c),
(640,0,o),
(688,52,o),
(688,120,c),
(688,220,l)
);
}
);
width = 916;
}
);
},
{
color = 9;
glyphname = d.high;
kernLeft = o.h;
kernRight = l;
lastChange = "2021-04-27 13:07:32 +0000";
layers = (
{
anchors = (
{
name = bottom;
pos = (478,0);
},
{
name = center;
pos = (478,500);
},
{
name = top;
pos = (478,1500);
},
{
name = topright;
pos = (914,1000);
}
);
layerId = m003;
shapes = (
{
closed = 0;
nodes = (
(706,1500,l),
(706,120,ls),
(706,52,o),
(758,0,o),
(824,0,cs,{
name = instroke_raise;
}),
(954,0,l)
);
},
{
closed = 1;
nodes = (
(666,0,o),
(706,40,o),
(706,120,cs),
(706,880,ls),
(706,960,o),
(666,1000,o),
(586,1000,cs),
(366,1000,ls),
(282,1000,o),
(246,960,o),
(246,880,cs),
(246,120,ls),
(246,40,o),
(286,0,o),
(366,0,cs),
(586,0,ls)
);
},
{
closed = 0;
nodes = (
(248,820,ls),
(248,752,o),
(196,700,o),
(130,700,cs,{
name = instroke_raise;
}),
(0,700,l)
);
}
);
width = 954;
}
);
},
{
color = 9;
glyphname = e.high;
kernLeft = o.h;
kernRight = e;
lastChange = "2021-04-27 13:07:32 +0000";
layers = (
{
anchors = (
{
name = bottom;
pos = (468,0);
},
{
name = ogonek;
pos = (690,0);
},
{
name = top;
pos = (468,1000);
}
);
layerId = m003;
shapes = (
{
closed = 0;
nodes = (
(248,380,l),
(568,520,ls),
(646,554,o),
(688,638,o),
(688,720,cs),
(688,880,ls),
(688,960,o),
(648,1000,o),
(568,1000,cs),
(368,1000,ls),
(288,1000,o),
(248,960,o),
(248,880,cs),
(248,120,ls),
(248,52,o),
(296,0,o),
(368,0,c),
(368,0,o),
(568,0,o),
(568,0,c),
(640,0,o),
(688,52,o),
(688,120,c),
(688,240,l)
);
},
{
closed = 0;
nodes = (
(248,820,ls),
(248,752,o),
(194,700,o),
(130,700,cs,{
name = instroke_raise;
}),
(0,700,l)
);
},
{
closed = 0;
nodes = (
(688,120,ls),
(688,52,o),
(740,0,o),
(806,0,c,{
name = instroke_raise;
}),
(936,0,l)
);
}
);
width = 936;
}
);
},
{
color = 9;
glyphname = f.high;
kernLeft = l.h;
kernRight = f;
lastChange = "2021-04-27 13:07:32 +0000";
layers = (
{
anchors = (
{
name = bottom;
pos = (402,0);
},
{
name = top;
pos = (402,1500);
}
);
layerId = m003;
shapes = (
{
closed = 0;
nodes = (
(248,820,ls),
(248,752,o),
(196,700,o),
(130,700,cs,{
name = instroke_raise;
}),
(0,700,l)
);
},
{
closed = 0;
nodes = (
(248,-400,l),
(248,1380,l),
(248,1460,o),
(288,1500,o),
(368,1500,c),
(568,1500,ls),
(648,1500,o),
(698,1460,o),
(688,1380,cs),
(516,120,ls),
(506,52,o),
(568,0,o),
(634,0,cs,{
name = instroke_raise;
}),
(824,0,l)
);
}
);
width = 824;
}
);
},
{
color = 9;
glyphname = g.high;
kernLeft = o.h;
kernRight = a;
lastChange = "2021-04-27 13:07:32 +0000";
layers = (
{
anchors = (
{
name = bottom;
pos = (478,-500);
},
{
name = top;
pos = (478,1000);
}
);
layerId = m003;
shapes = (
{
closed = 0;
nodes = (
(588,0,ls),
(668,0,o),
(708,40,o),
(708,120,cs),
(708,880,ls),
(708,960,o),
(668,1000,o),
(588,1000,cs),
(368,1000,ls),
(288,1000,o),
(248,960,o),
(248,880,cs),
(248,120,ls),
(248,40,o),
(288,0,o),
(368,0,cs),
(588,0,ls)
);
},
{
closed = 0;
nodes = (
(248,820,ls),
(248,752,o),
(196,700,o),
(130,700,cs,{
name = instroke_raise;
}),
(0,700,l)
);
},
{
closed = 0;
nodes = (
(708,120,ls),
(708,52,o),
(760,0,o),
(826,0,cs,{
name = instroke_raise;
}),
(956,0,l)
);
},
{
closed = 0;
nodes = (
(588,-400,ls),
(668,-400,o),
(708,-360,o),
(708,-280,cs),
(708,480,ls)
);
},
{
closed = 0;
nodes = (
(368,-400,ls),
(588,-400,ls)
);
},
{
closed = 0;
nodes = (
(708,880,l),
(708,1110,l,{
name = stub;
})
);
}
);
width = 956;
}
);
},
{
color = 9;
glyphname = h.high;
kernLeft = l.h;
kernRight = n;
lastChange = "2021-04-27 13:07:32 +0000";
layers = (
{
anchors = (
{
name = bottom;
pos = (468,0);
},
{
name = center;
pos = (468,750);
},
{
name = top;
pos = (468,1500);
}
);
layerId = m003;
shapes = (
{
closed = 0;
nodes = (
(248,880,l),
(248,960,o),
(288,1000,o),
(368,1000,c),
(568,1000,ls),
(648,1000,o),
(688,960,o),
(688,880,cs),
(688,120,ls),
(688,52,o),
(740,0,o),
(806,0,cs,{
name = instroke_raise;
}),
(936,0,l)
);
},
{
closed = 0;
nodes = (
(248,1500,l),
(248,820,ls),
(248,752,o),
(196,700,o),
(130,700,cs,{
name = instroke_raise;
}),
(0,700,l)
);
},
{
closed = 0;
nodes = (
(248,0,l),
(248,1012,l)
);
}
);
width = 936;
}
);
},
{
color = 9;
glyphname = idotless.high;
kernLeft = u.h;
kernRight = u;
lastChange = "2021-04-27 13:07:32 +0000";
layers = (
{
anchors = (
{
name = bottom;
pos = (250,0);
},
{
name = ogonek;
pos = (250,20);
},
{
name = top;
pos = (248,1000);
}
);
layerId = m003;
shapes = (
{
closed = 0;
nodes = (
(248,1000,l),
(248,820,ls,{
name = "instroke_raise,outstroke_raise";
}),
(248,752,o),
(196,700,o),
(130,700,c,{
name = instroke_raise;
}),
(0,700,l)
);
},
{
closed = 0;
nodes = (
(496,0,l),
(366,0,ls,{
name = instroke_raise;
}),
(300,0,o),
(248,52,o),
(248,120,c,{
name = "instroke_raise,outstroke_raise";
}),
(248,868,l)
);
}
);
width = 496;
}
);
},
{
color = 9;
glyphname = jdotless.high;
kernLeft = u.h;
kernRight = u;
lastChange = "2021-04-27 13:07:32 +0000";
layers = (
{
anchors = (
{
name = bottom;
pos = (600,-500);
},
{
name = top;
pos = (248,1000);
}
);
layerId = m003;
shapes = (
{
closed = 0;
nodes = (
(248,1000,l),
(248,820,ls,{
name = "instroke_raise,outstroke_raise";
}),
(248,752,o),
(198,700,o),
(130,700,cs,{
name = instroke_raise;
}),
(0,700,l)
);
},
{
closed = 0;
nodes = (
(248,120,l,{
name = "instroke_raise,outstroke_raise";
}),
(248,52,o),
(300,0,o),
(366,0,cs,{
name = instroke_raise;
}),
(496,0,l)
);
},
{
closed = 0;
nodes = (
(248,880,l),
(248,-360,ls,{
name = "instroke_raise,outstroke_raise";
}),
(248,-428,o),
(196,-480,o),
(130,-480,cs,{
name = instroke_raise;
}),
(0,-480,l)
);
}
);
width = 496;
}
);
},
{
color = 9;
glyphname = k.high;
kernLeft = l.h;
kernRight = k;
lastChange = "2021-04-27 13:07:32 +0000";
layers = (
{
anchors = (
{
name = bottom;
pos = (458,0);
},
{
name = top;
pos = (458,1500);
}
);
layerId = m003;
shapes = (
{
closed = 0;
nodes = (
(248,880,ls),
(248,960,o),
(288,1000,o),
(368,1000,cs),
(526,1000,ls),
(606,1000,o),
(666,960,o),
(646,880,cs),
(534,440,l),
(588,440,ls),
(668,440,o),
(708,400,o),
(708,320,cs),
(708,120,ls),
(708,52,o),
(760,0,o),
(826,0,cs,{
name = instroke_raise;
}),
(916,0,l)
);
},
{
closed = 0;
nodes = (
(248,880,l),
(248,0,l)
);
},
{
closed = 0;
nodes = (
(248,1500,l),
(248,820,ls),
(248,752,o),
(196,700,o),
(130,700,cs,{
name = instroke_raise;
}),
(0,700,l)
);
}
);
width = 916;
}
);
},
{
color = 9;
glyphname = l.high;
kernLeft = l.h;
kernRight = l;
lastChange = "2021-04-27 13:07:32 +0000";
layers = (
{
anchors = (
{
name = bottom;
pos = (248,0);
},
{
name = center;
pos = (248,750);
},
{
name = top;
pos = (248,1500);
},
{
name = topright;
pos = (456,1500);
}
);
layerId = m003;
shapes = (
{
closed = 0;
nodes = (
(248,1500,l),
(248,820,ls,{
name = "instroke_raise,outstroke_raise";
}),
(248,752,o),
(196,700,o),
(130,700,cs,{
name = instroke_raise;
}),
(0,700,l)
);
},
{
closed = 0;
nodes = (
(496,0,l),
(366,0,ls,{
name = instroke_raise;
}),
(300,0,o),
(248,52,o),
(248,120,cs,{
name = "instroke_raise,outstroke_raise";
}),
(248,942,l)
);
}
);
width = 496;
}
);
},
{
color = 9;
glyphname = m.high;
kernLeft = n.h;
kernRight = o;
lastChange = "2021-04-27 13:07:32 +0000";
layers = (
{
anchors = (
{
name = bottom;
pos = (688,0);
},
{
name = top;
pos = (688,1000);
}
);
layerId = m003;
shapes = (
{
closed = 0;
nodes = (
(688,0,l),
(688,880,ls),
(688,960,o),
(648,1000,o),
(568,1000,cs),
(368,1000,l),
(288,1000,o),
(248,960,o),
(248,880,cs),
(248,820,ls),
(248,752,o),
(196,700,o),
(130,700,cs,{
name = instroke_raise;
}),
(0,700,l)
);
},
{
closed = 0;
nodes = (
(248,1110,l),
(248,0,l)
);
},
{
closed = 0;
nodes = (
(688,880,l),
(688,960,o),
(728,1000,o),
(808,1000,c),
(1008,1000,ls),
(1088,1000,o),
(1128,960,o),
(1128,880,cs),
(1128,120,ls),
(1128,52,o),
(1180,0,o),
(1246,0,cs,{
name = instroke_raise;
}),
(1376,0,l)
);
}
);
width = 1376;
}
);
},
{
color = 9;
glyphname = n.high;
kernLeft = n.h;
kernRight = o;
lastChange = "2021-04-27 13:07:32 +0000";
layers = (
{
anchors = (
{
name = bottom;
pos = (468,0);
},
{
name = top;
pos = (468,1000);
}
);
background = {
shapes = (
{
closed = 0;
nodes = (
(248,880,l),
(248,960,o),
(288,1000,o),
(368,1000,c),
(568,1000,ls),
(648,1000,o),
(688,960,o),
(688,880,cs),
(688,120,ls),
(688,52,o),
(740,0,o),
(806,0,cs,{
name = instroke_raise;
}),
(936,0,l)
);
},
{
closed = 0;
nodes = (
(248,1110,l),
(248,120,ls),
(248,52,o),
(196,0,o),
(130,0,cs,{
name = instroke_raise;
}),
(0,0,l)
);
}
);
};
layerId = m003;
shapes = (
{
closed = 0;
nodes = (
(936,0,l),
(806,0,ls,{
name = instroke_raise;
}),
(740,0,o),
(688,52,o),
(688,120,cs),
(688,880,ls),
(688,960,o),
(648,1000,o),
(568,1000,cs),
(368,1000,l),
(288,1000,o),
(248,960,o),
(248,880,cs),
(248,0,l)
);
},
{
closed = 0;
nodes = (
(248,1110,l),
(248,820,ls),
(248,752,o),
(196,700,o),
(130,700,cs,{
name = instroke_raise;
}),
(0,700,l)
);
}
);
width = 936;
}
);
},
{
color = 9;
glyphname = o.high;
kernLeft = o.h;
kernRight = o;
lastChange = "2021-04-27 13:07:32 +0000";
layers = (
{
anchors = (
{
name = bottom;
pos = (478,0);
},
{
name = center;
pos = (478,500);
},
{
name = ogonek;
pos = (860,20);
},
{
name = top;
pos = (478,1000);
},
{
name = topright;
pos = (916,1000);
}
);
layerId = m003;
shapes = (
{
closed = 1;
nodes = (
(668,0,o),
(708,40,o),
(708,120,cs),
(708,880,ls),
(708,960,o),
(668,1000,o),
(588,1000,cs),
(368,1000,ls),
(288,1000,o),
(248,960,o),
(248,880,cs),
(248,120,ls),
(248,40,o),
(288,0,o),
(368,0,cs),
(588,0,ls)
);
},
{
closed = 0;
nodes = (
(248,820,ls),
(248,752,o),
(196,700,o),
(130,700,cs,{
name = instroke_raise;
}),
(0,700,l)
);
},
{
closed = 0;
nodes = (
(708,120,ls),
(708,52,o),
(760,0,o),
(826,0,cs,{
name = instroke_raise;
}),
(956,0,l)
);
}
);
width = 956;
}
);
},
{
color = 9;
glyphname = p.high;
kernLeft = n.h;
kernRight = o;
lastChange = "2021-04-27 13:07:32 +0000";
layers = (
{
anchors = (
{
name = bottom;
pos = (478,0);
},
{
name = top;
pos = (478,1000);
}
);
layerId = m003;
shapes = (
{
closed = 0;
nodes = (
(588,0,l),
(668,0,o),
(708,40,o),
(708,120,cs),
(708,880,ls),
(708,960,o),
(668,1000,o),
(588,1000,cs),
(368,1000,ls),
(288,1000,o),
(248,960,o),
(248,880,cs),
(248,120,ls),
(248,40,o),
(288,0,o),
(368,0,cs),
(588,0,ls)
);
},
{
closed = 0;
nodes = (
(248,820,l),
(248,752,o),
(196,700,o),
(130,700,cs,{
name = instroke_raise;
}),
(0,700,l)
);
},
{
closed = 0;
nodes = (
(708,120,l),
(708,52,o),
(760,0,o),
(826,0,cs,{
name = instroke_raise;
}),
(956,0,l)
);
},
{
closed = 0;
nodes = (
(248,1100,l),
(248,-500,l,{
name = "instroke_raise,outstroke_raise";
})
);
}
);
width = 956;
}
);
},
{
color = 9;
glyphname = thorn.high;
kernLeft = l.h;
kernRight = o;
lastChange = "2021-04-27 13:07:32 +0000";
layers = (
{
layerId = m003;
shapes = (
{
closed = 0;
nodes = (
(588,0,l),
(668,0,o),
(708,40,o),
(708,120,cs),
(708,880,ls),
(708,960,o),
(668,1000,o),
(588,1000,cs),
(368,1000,ls),
(288,1000,o),
(248,960,o),
(248,880,cs),
(248,120,ls),
(248,40,o),
(288,0,o),
(368,0,cs),
(588,0,ls)
);
},
{
closed = 0;
nodes = (
(248,820,l),
(248,752,o),
(196,700,o),
(130,700,cs,{
name = instroke_raise;
}),
(0,700,l)
);
},
{
closed = 0;
nodes = (
(708,120,l),
(708,52,o),
(760,0,o),
(826,0,cs,{
name = instroke_raise;
}),
(956,0,l)
);
},
{
closed = 0;
nodes = (
(248,1500,l),
(248,-500,l,{
name = "instroke_raise,outstroke_raise";
})
);
}
);
width = 956;
}
);
},
{
color = 9;
glyphname = q.high;
kernLeft = o.h;
kernRight = a;
lastChange = "2021-04-27 13:07:32 +0000";
layers = (
{
anchors = (
{
name = bottom;
pos = (478,0);
},
{
name = top;
pos = (478,1000);
}
);
layerId = m003;
shapes = (
{
closed = 0;
nodes = (
(368,0,ls),
(588,0,ls),
(668,0,o),
(708,40,o),
(708,120,cs),
(708,880,ls),
(708,960,o),
(668,1000,o),
(588,1000,cs),
(368,1000,ls),
(288,1000,o),
(248,960,o),
(248,880,cs),
(248,120,ls),
(248,40,o),
(288,0,o),
(368,0,c)
);
},
{
closed = 0;
nodes = (
(708,120,l),
(708,52,o),
(760,0,o),
(826,0,cs,{
name = instroke_raise;
}),
(956,0,l)
);
},
{
closed = 0;
nodes = (
(248,820,l),
(248,752,o),
(196,700,o),
(130,700,cs,{
name = instroke_raise;
}),
(0,700,l)
);
},
{
closed = 0;
nodes = (
(708,1100,l),
(708,-500,l,{
name = "instroke_raise,outstroke_raise";
})
);
}
);
width = 956;
}
);
},
{
color = 9;
glyphname = r.high;
lastChange = "2021-04-27 13:07:32 +0000";
layers = (
{
anchors = (
{
name = bottom;
pos = (338,0);
},
{
name = top;
pos = (338,1000);
}
);
layerId = m003;
shapes = (
{
closed = 0;
nodes = (
(148,880,l),
(148,960,o),
(188,1000,o),
(268,1000,c),
(468,1000,ls),
(548,1000,o),
(600,958,o),
(588,880,cs),
(478,120,ls),
(468,54,o),
(518,0,o),
(586,0,cs,{
name = instroke_raise;
}),
(776,0,l)
);
},
{
closed = 0;
nodes = (
(148,1110,l),
(148,820,ls),
(148,752,o),
(96,700,o),
(30,700,cs,{
name = instroke_raise;
}),
(0,700,l)
);
}
);
width = 776;
}
);
},
{
color = 9;
glyphname = s.high;
lastChange = "2021-04-27 13:07:32 +0000";
layers = (
{
anchors = (
{
name = bottom;
pos = (448,0);
},
{
name = top;
pos = (448,1000);
}
);
layerId = m003;
shapes = (
{
closed = 0;
nodes = (
(308,0,l),
(448,0,l),
(528,0,o),
(568,40,o),
(568,120,c),
(568,328,ls),
(568,480,o),
(496,656,o),
(416,758,cs),
(348,846,o),
(274,938,o),
(296,1050,c)
);
},
{
closed = 0;
nodes = (
(568,120,l),
(568,52,o),
(620,0,o),
(686,0,c,{
name = instroke_raise;
}),
(776,0,l)
);
},
{
closed = 0;
nodes = (
(324,1110,l,{
name = stub;
}),
(188,820,ls),
(158,756,o),
(116,700,o),
(50,700,cs,{
name = instroke_raise;
}),
(0,700,l)
);
}
);
width = 776;
}
);
},
{
color = 9;
glyphname = t.high;
lastChange = "2021-04-27 13:07:32 +0000";
layers = (
{
anchors = (
{
name = bottom;
pos = (328,0);
},
{
name = center;
pos = (328,500);
},
{
name = top;
pos = (328,1000);
},
{
name = topright;
pos = (596,1000);
}
);
layerId = m003;
shapes = (
{
closed = 0;
nodes = (
(100,1000,l),
(556,1000,l)
);
},
{
closed = 0;
nodes = (
(308,1500,l),
(308,820,l,{
name = "instroke_raise,outstroke_raise";
}),
(308,752,o),
(256,700,o),
(190,700,cs,{
name = instroke_raise;
}),
(0,700,l)
);
},
{
closed = 0;
nodes = (
(656,0,l),
(426,0,ls,{
name = instroke_raise;
}),
(360,0,o),
(308,52,o),
(308,120,cs,{
name = "instroke_raise,outstroke_raise";
}),
(308,890,l)
);
}
);
width = 656;
}
);
},
{
color = 9;
glyphname = u.high;
lastChange = "2021-04-27 13:07:32 +0000";
layers = (
{
anchors = (
{
name = bottom;
pos = (478,0);
},
{
name = ogonek;
pos = (860,20);
},
{
name = top;
pos = (478,1000);
},
{
name = topright;
pos = (916,1000);
}
);
layerId = m003;
shapes = (
{
closed = 0;
nodes = (
(588,0,l),
(668,0,o),
(708,40,o),
(708,120,cs),
(708,1000,ls)
);
},
{
closed = 0;
nodes = (
(248,820,l),
(248,752,o),
(196,700,o),
(130,700,cs,{
name = instroke_raise;
}),
(0,700,l)
);
},
{
closed = 0;
nodes = (
(708,120,l),
(708,52,o),
(760,0,o),
(826,0,cs,{
name = instroke_raise;
}),
(956,0,l)
);
},
{
closed = 0;
nodes = (
(248,1000,l),
(248,120,ls),
(248,40,o),
(288,0,o),
(368,0,cs),
(588,0,ls)
);
}
);
width = 956;
}
);
},
{
color = 9;
glyphname = v.high;
lastChange = "2021-04-27 13:07:32 +0000";
layers = (
{
anchors = (
{
name = bottom;
pos = (458,0);
},
{
name = top;
pos = (458,1000);
}
);
background = {
shapes = (
{
closed = 0;
nodes = (
(588,0,l),
(668,0,o),
(708,40,o),
(708,120,cs),
(708,1000,ls)
);
},
{
closed = 0;
nodes = (
(248,120,l),
(248,52,o),
(196,0,o),
(130,0,cs,{
name = instroke_raise;
}),
(0,0,l)
);
},
{
closed = 0;
nodes = (
(708,120,l),
(708,52,o),
(760,0,o),
(826,0,cs,{
name = instroke_raise;
}),
(956,0,l)
);
},
{
closed = 0;
nodes = (
(248,1000,l),
(248,120,ls),
(248,40,o),
(288,0,o),
(368,0,cs),
(588,0,ls)
);
}
);
};
layerId = m003;
shapes = (
{
closed = 0;
nodes = (
(248,1000,l),
(248,120,ls),
(248,40,o),
(292,0,o),
(368,0,cs),
(508,0,l),
(588,0,o),
(616,40,o),
(628,120,cs),
(734,778,ls),
(758,926,o),
(698,1000,o),
(568,1000,cs),
(488,1000,l)
);
},
{
closed = 0;
nodes = (
(248,820,l),
(248,752,o),
(196,700,o),
(130,700,cs,{
name = instroke_raise;
}),
(0,700,l)
);
},
{
closed = 0;
nodes = (
(628,120,l),
(628,52,o),
(680,0,o),
(746,0,cs,{
name = instroke_raise;
}),
(916,0,l)
);
}
);
width = 916;
}
);
},
{
color = 9;
glyphname = w.high;
lastChange = "2021-04-27 13:07:32 +0000";
layers = (
{
anchors = (
{
name = bottom;
pos = (648,0);
},
{
name = top;
pos = (648,1000);
}
);
layerId = m003;
shapes = (
{
closed = 0;
nodes = (
(248,1000,l),
(248,120,ls),
(248,40,o),
(292,0,o),
(368,0,cs),
(508,0,l,{
name = instroke_raise;
}),
(588,0,o),
(616,40,o),
(628,120,cs)
);
},
{
closed = 0;
nodes = (
(248,820,l),
(248,752,o),
(196,700,o),
(130,700,cs,{
name = instroke_raise;
}),
(0,700,l)
);
},
{
closed = 0;
nodes = (
(510,0,ls,{
name = instroke_raise;
}),
(380,0,l)
);
},
{
closed = 0;
nodes = (
(628,1000,l),
(628,120,ls),
(628,40,o),
(672,0,o),
(748,0,cs),
(888,0,l),
(968,0,o),
(996,40,o),
(1008,120,cs),
(1114,778,ls),
(1138,926,o),
(1078,1000,o),
(948,1000,cs),
(888,1000,l)
);
},
{
closed = 0;
nodes = (
(1008,120,l),
(1008,52,o),
(1060,0,o),
(1126,0,cs,{
name = instroke_raise;
}),
(1296,0,l)
);
}
);
width = 1296;
}
);
},
{
color = 9;
glyphname = x.high;
lastChange = "2021-04-27 13:07:32 +0000";
layers = (
{
anchors = (
{
name = bottom;
pos = (490,0);
},
{
name = top;
pos = (490,1000);
}
);
layerId = m003;
shapes = (
{
closed = 0;
nodes = (
(192,0,l,{
name = instroke_raise;
}),
(192,280,ls),
(192,360,o),
(232,400,o),
(312,400,cs),
(492,400,ls),
(572,400,o),
(612,360,o),
(612,280,cs),
(612,120,ls),
(612,52,o),
(664,0,o),
(730,0,cs,{
name = instroke_raise;
}),
(820,0,l)
);
},
{
closed = 0;
nodes = (
(492,400,l),
(580,1000,l)
);
},
{
closed = 0;
nodes = (
(224,1000,l),
(312,400,l)
);
},
{
closed = 0;
nodes = (
(248,820,ls),
(248,752,o),
(196,700,o),
(130,700,cs,{
name = instroke_raise;
}),
(0,700,l)
);
}
);
width = 820;
}
);
},
{
color = 9;
glyphname = y.high;
lastChange = "2021-04-27 13:07:32 +0000";
layers = (
{
anchors = (
{
name = bottom;
pos = (468,0);
},
{
name = top;
pos = (468,1000);
}
);
layerId = m003;
shapes = (
{
closed = 0;
nodes = (
(568,0,l),
(648,0,o),
(688,40,o),
(688,120,cs),
(688,1000,ls)
);
},
{
closed = 0;
nodes = (
(248,820,l),
(248,752,o),
(196,700,o),
(130,700,cs,{
name = instroke_raise;
}),
(0,700,l)
);
},
{
closed = 0;
nodes = (
(688,120,l),
(688,52,o),
(740,0,o),
(806,0,cs,{
name = instroke_raise;
}),
(936,0,l)
);
},
{
closed = 0;
nodes = (
(568,-400,l),
(648,-400,o),
(688,-360,o),
(688,-280,cs),
(688,480,ls)
);
},
{
closed = 0;
nodes = (
(348,-400,l),
(568,-400,ls)
);
},
{
closed = 0;
nodes = (
(248,1000,l),
(248,120,ls),
(248,40,o),
(288,0,o),
(368,0,cs),
(568,0,ls)
);
}
);
width = 936;
}
);
},
{
color = 9;
glyphname = z.high;
lastChange = "2021-04-27 13:07:32 +0000";
layers = (
{
anchors = (
{
name = bottom;
pos = (394,0);
},
{
name = center;
pos = (394,500);
},
{
name = top;
pos = (394,1000);
}
);
background = {
shapes = (
{
closed = 0;
nodes = (
(-100,0,l),
(30,0,ls,{
name = instroke_raise;
}),
(94,0,o),
(148,52,o),
(148,120,cs,{
name = instroke_raise;
}),
(148,880,ls),
(148,960,o),
(188,1000,o),
(268,1000,cs),
(436,1000,ls),
(506,1000,o),
(560,960,o),
(542,880,cs),
(434,400,l),
(548,400,l),
(628,400,o),
(672,360,o),
(668,280,cs),
(622,-500,l)
);
},
{
closed = 0;
nodes = (
(658,120,l),
(658,52,o),
(710,-2,o),
(776,0,c,{
name = instroke_raise;
}),
(866,0,l)
);
}
);
};
layerId = m003;
shapes = (
{
closed = 0;
nodes = (
(0,700,l),
(30,700,ls,{
name = instroke_raise;
}),
(94,700,o),
(148,752,o),
(148,820,cs,{
name = instroke_raise;
}),
(148,880,ls),
(148,960,o),
(188,1000,o),
(268,1000,cs),
(436,1000,ls),
(506,1000,o),
(560,960,o),
(542,880,cs),
(434,400,l),
(548,400,l),
(628,400,o),
(672,360,o),
(668,280,cs),
(622,-500,l)
);
},
{
closed = 0;
nodes = (
(658,120,l),
(658,52,o),
(710,-2,o),
(776,0,c,{
name = instroke_raise;
}),
(866,0,l)
);
}
);
width = 866;
}
);
},
{
color = 4;
glyphname = a.init;
kernLeft = o.n;
lastChange = "2021-04-27 13:07:32 +0000";
layers = (
{
anchors = (
{
name = bottom;
pos = (430,0);
},
{
name = ogonek;
pos = (662,0);
},
{
name = top;
pos = (430,1000);
}
);
layerId = m003;
shapes = (
{
closed = 0;
nodes = (
(660,880,l),
(660,1110,l,{
name = stub;
})
);
},
{
closed = 0;
nodes = (
(660,120,l),
(660,52,o),
(712,0,o),
(778,0,cs,{
name = instroke_raise;
}),
(908,0,l)
);
},
{
closed = 1;
nodes = (
(620,0,o),
(660,40,o),
(660,120,cs),
(660,880,ls),
(660,960,o),
(620,1000,o),
(540,1000,cs),
(320,1000,ls),
(236,1000,o),
(200,960,o),
(200,880,cs),
(200,120,ls),
(200,40,o),
(240,0,o),
(320,0,cs),
(540,0,ls)
);
}
);
width = 908;
}
);
},
{
color = 4;
glyphname = b.init;
kernLeft = l.n;
lastChange = "2021-04-27 13:07:32 +0000";
layers = (
{
anchors = (
{
name = bottom;
pos = (430,0);
},
{
name = top;
pos = (430,1500);
}
);
layerId = m003;
shapes = (
{
closed = 0;
nodes = (
(200,880,l),
(200,1500,l,{
name = stub;
})
);
},
{
closed = 0;
nodes = (
(660,120,l),
(660,52,o),
(712,0,o),
(778,0,cs,{
name = instroke_raise;
}),
(908,0,l)
);
},
{
closed = 1;
nodes = (
(620,0,o),
(660,40,o),
(660,120,cs),
(660,880,ls),
(660,960,o),
(620,1000,o),
(540,1000,cs),
(320,1000,ls),
(236,1000,o),
(200,960,o),
(200,880,cs),
(200,120,ls),
(200,40,o),
(240,0,o),
(320,0,cs),
(540,0,ls)
);
}
);
width = 908;
}
);
},
{
color = 4;
glyphname = c.init;
kernLeft = o.n;
lastChange = "2021-04-27 13:07:32 +0000";
layers = (
{
anchors = (
{
name = bottom;
pos = (420,0);
},
{
name = top;
pos = (420,1000);
}
);
background = {
anchors = (
{
name = instroke;
pos = (332,120);
},
{
name = outstroke_flat;
pos = (692,0);
}
);
shapes = (
{
closed = 0;
nodes = (
(772,490,l),
(772,880,ls),
(772,960,o),
(732,1000,o),
(652,1000,cs),
(452,1000,ls),
(372,1000,o),
(332,960,o),
(332,880,cs),
(332,120,ls),
(332,40,o),
(372,0,o),
(452,0,c),
(452,0,o),
(692,0,o),
(692,0,c)
);
}
);
};
layerId = m003;
shapes = (
{
closed = 0;
nodes = (
(640,120,l),
(640,50,o),
(692,0,o),
(758,0,cs,{
name = instroke_raise;
}),
(868,0,l)
);
},
{
closed = 0;
nodes = (
(600,580,l),
(640,880,ls),
(650,960,o),
(600,1000,o),
(520,1000,cs),
(320,1000,ls),
(240,1000,o),
(200,960,o),
(200,880,cs),
(200,120,ls),
(200,52,o),
(248,0,o),
(320,0,c),
(320,0,o),
(520,0,o),
(520,0,c),
(592,0,o),
(640,52,o),
(640,120,c),
(640,220,l)
);
}
);
width = 868;
}
);
},
{
color = 4;
glyphname = d.init;
kernLeft = o.n;
lastChange = "2021-04-27 13:07:32 +0000";
layers = (
{
anchors = (
{
name = bottom;
pos = (432,0);
},
{
name = center;
pos = (432,500);
},
{
name = top;
pos = (432,1500);
},
{
name = topright;
pos = (868,1000);
}
);
layerId = m003;
shapes = (
{
closed = 0;
nodes = (
(660,1500,l),
(660,120,ls),
(660,52,o),
(712,0,o),
(778,0,cs,{
name = instroke_raise;
}),
(908,0,l)
);
},
{
closed = 1;
nodes = (
(620,0,o),
(660,40,o),
(660,120,cs),
(660,880,ls),
(660,960,o),
(620,1000,o),
(540,1000,cs),
(320,1000,ls),
(236,1000,o),
(200,960,o),
(200,880,cs),
(200,120,ls),
(200,40,o),
(240,0,o),
(320,0,cs),
(540,0,ls)
);
}
);
width = 908;
}
);
},
{
color = 4;
glyphname = e.init;
kernLeft = o.n;
lastChange = "2021-04-27 13:07:32 +0000";
layers = (
{
anchors = (
{
name = bottom;
pos = (420,0);
},
{
name = ogonek;
pos = (642,0);
},
{
name = top;
pos = (420,1000);
}
);
layerId = m003;
shapes = (
{
closed = 0;
nodes = (
(200,380,l),
(520,520,ls),
(598,554,o),
(640,638,o),
(640,720,cs),
(640,880,ls),
(640,960,o),
(600,1000,o),
(520,1000,cs),
(320,1000,ls),
(240,1000,o),
(200,960,o),
(200,880,cs),
(200,120,ls),
(200,52,o),
(248,0,o),
(320,0,c),
(320,0,o),
(520,0,o),
(520,0,c),
(592,0,o),
(640,52,o),
(640,120,c),
(640,240,l)
);
},
{
closed = 0;
nodes = (
(640,120,l),
(640,52,o),
(692,0,o),
(758,0,c,{
name = instroke_raise;
}),
(888,0,l)
);
}
);
width = 888;
}
);
},
{
color = 4;
glyphname = f.init;
kernLeft = l.n;
lastChange = "2021-04-27 13:07:32 +0000";
layers = (
{
anchors = (
{
name = bottom;
pos = (354,0);
},
{
name = top;
pos = (354,1500);
}
);
layerId = m003;
shapes = (
{
closed = 0;
nodes = (
(200,-400,l),
(200,1380,l),
(200,1460,o),
(240,1500,o),
(320,1500,c),
(520,1500,ls),
(600,1500,o),
(650,1460,o),
(640,1380,cs),
(468,120,ls),
(458,52,o),
(520,0,o),
(586,0,cs,{
name = instroke_raise;
}),
(776,0,l)
);
}
);
width = 776;
}
);
},
{
color = 4;
glyphname = g.init;
kernLeft = o.n;
lastChange = "2021-04-27 13:07:32 +0000";
layers = (
{
anchors = (
{
name = bottom;
pos = (430,-500);
},
{
name = top;
pos = (430,1000);
}
);
layerId = m003;
shapes = (
{
closed = 0;
nodes = (
(540,0,l),
(620,0,o),
(660,40,o),
(660,120,cs),
(660,880,ls),
(660,960,o),
(620,1000,o),
(540,1000,cs),
(320,1000,ls),
(240,1000,o),
(200,960,o),
(200,880,cs),
(200,120,ls),
(200,40,o),
(240,0,o),
(320,0,cs),
(540,0,ls)
);
},
{
closed = 0;
nodes = (
(660,120,l),
(660,52,o),
(712,0,o),
(778,0,cs,{
name = instroke_raise;
}),
(908,0,l)
);
},
{
closed = 0;
nodes = (
(540,-400,l),
(620,-400,o),
(660,-360,o),
(660,-280,cs),
(660,480,ls)
);
},
{
closed = 0;
nodes = (
(320,-400,l),
(540,-400,ls)
);
},
{
closed = 0;
nodes = (
(660,880,l),
(660,1110,l,{
name = stub;
})
);
}
);
width = 908;
}
);
},
{
color = 4;
glyphname = h.init;
kernLeft = l.n;
lastChange = "2021-04-27 13:07:32 +0000";
layers = (
{
anchors = (
{
name = bottom;
pos = (420,0);
},
{
name = center;
pos = (420,750);
},
{
name = top;
pos = (420,1500);
}
);
layerId = m003;
shapes = (
{
closed = 0;
nodes = (
(200,880,l),
(200,960,o),
(240,1000,o),
(320,1000,c),
(520,1000,ls),
(600,1000,o),
(640,960,o),
(640,880,cs),
(640,120,ls),
(640,52,o),
(692,0,o),
(758,0,cs,{
name = instroke_raise;
}),
(888,0,l)
);
},
{
closed = 0;
nodes = (
(200,1500,l),
(200,0,ls)
);
}
);
width = 888;
}
);
},
{
color = 4;
glyphname = idotless.init;
kernLeft = u.n;
lastChange = "2021-04-27 13:07:32 +0000";
layers = (
{
anchors = (
{
name = bottom;
pos = (202,0);
},
{
name = ogonek;
pos = (202,20);
},
{
name = top;
pos = (200,1000);
}
);
layerId = m003;
shapes = (
{
closed = 0;
nodes = (
(200,1000,l),
(200,120,l,{
name = "instroke_raise,outstroke_raise";
})
);
},
{
closed = 0;
nodes = (
(200,120,l,{
name = "instroke_raise,outstroke_raise";
}),
(200,52,o),
(252,0,o),
(318,0,cs,{
name = instroke_raise;
}),
(448,0,l)
);
}
);
width = 448;
}
);
},
{
color = 4;
glyphname = jdotless.init;
kernLeft = u.n;
lastChange = "2021-04-27 13:07:32 +0000";
layers = (
{
anchors = (
{
name = bottom;
pos = (600,-500);
},
{
name = top;
pos = (248,1000);
}
);
layerId = m003;
shapes = (
{
closed = 0;
nodes = (
(248,1000,l),
(248,120,l,{
name = "instroke_raise,outstroke_raise";
})
);
},
{
closed = 0;
nodes = (
(248,120,l,{
name = "instroke_raise,outstroke_raise";
}),
(248,52,o),
(300,0,o),
(366,0,cs,{
name = instroke_raise;
}),
(496,0,l)
);
},
{
closed = 0;
nodes = (
(248,600,l),
(248,-360,ls,{
name = "instroke_raise,outstroke_raise";
}),
(248,-428,o),
(196,-480,o),
(130,-480,cs,{
name = instroke_raise;
}),
(0,-480,l)
);
}
);
width = 496;
}
);
},
{
color = 4;
glyphname = k.init;
kernLeft = l.n;
lastChange = "2021-04-27 13:07:32 +0000";
layers = (
{
anchors = (
{
name = bottom;
pos = (410,0);
},
{
name = top;
pos = (410,1500);
}
);
layerId = m003;
shapes = (
{
closed = 0;
nodes = (
(200,880,l),
(200,960,o),
(240,1000,o),
(320,1000,cs),
(478,1000,ls),
(558,1000,o),
(618,960,o),
(598,880,cs),
(486,440,l),
(540,440,ls),
(620,440,o),
(660,400,o),
(660,320,cs),
(660,120,ls),
(660,52,o),
(712,0,o),
(778,0,cs,{
name = instroke_raise;
}),
(868,0,l)
);
},
{
closed = 0;
nodes = (
(200,880,l)
);
},
{
closed = 0;
nodes = (
(200,1500,l),
(200,0,l)
);
}
);
width = 868;
}
);
},
{
color = 4;
glyphname = l.init;
kernLeft = l.n;
lastChange = "2021-04-27 13:07:32 +0000";
layers = (
{
anchors = (
{
name = bottom;
pos = (200,0);
},
{
name = center;
pos = (200,750);
},
{
name = top;
pos = (200,1500);
},
{
name = topright;
pos = (408,1500);
}
);
layerId = m003;
shapes = (
{
closed = 0;
nodes = (
(200,1500,l),
(200,120,l,{
name = "instroke_raise,outstroke_raise";
})
);
},
{
closed = 0;
nodes = (
(200,120,l,{
name = "instroke_raise,outstroke_raise";
}),
(200,52,o),
(252,0,o),
(318,0,cs,{
name = instroke_raise;
}),
(448,0,l)
);
}
);
width = 448;
}
);
},
{
color = 4;
glyphname = m.init;
kernLeft = n.n;
lastChange = "2021-04-27 13:07:32 +0000";
layers = (
{
anchors = (
{
name = bottom;
pos = (640,0);
},
{
name = top;
pos = (640,1000);
}
);
layerId = m003;
shapes = (
{
closed = 0;
nodes = (
(640,0,l),
(640,880,ls),
(640,960,o),
(600,1000,o),
(520,1000,cs),
(320,1000,l),
(240,1000,o),
(200,960,o),
(200,880,cs),
(200,0,ls)
);
},
{
closed = 0;
nodes = (
(200,1110,l),
(200,880,l)
);
},
{
closed = 0;
nodes = (
(640,880,l),
(640,960,o),
(680,1000,o),
(760,1000,c),
(960,1000,ls),
(1040,1000,o),
(1080,960,o),
(1080,880,cs),
(1080,120,ls),
(1080,52,o),
(1132,0,o),
(1198,0,cs,{
name = instroke_raise;
}),
(1328,0,l)
);
}
);
width = 1328;
}
);
},
{
color = 4;
glyphname = n.init;
kernLeft = n.n;
lastChange = "2021-04-27 13:07:32 +0000";
layers = (
{
anchors = (
{
name = bottom;
pos = (420,0);
},
{
name = top;
pos = (420,1000);
}
);
background = {
shapes = (
{
closed = 0;
nodes = (
(200,880,l),
(200,960,o),
(240,1000,o),
(320,1000,c),
(520,1000,ls),
(600,1000,o),
(640,960,o),
(640,880,cs),
(640,120,ls),
(640,52,o),
(692,0,o),
(758,0,cs,{
name = instroke_raise;
}),
(888,0,l)
);
},
{
closed = 0;
nodes = (
(200,1110,l),
(200,120,ls),
(200,52,o),
(148,0,o),
(82,0,cs,{
name = instroke_raise;
}),
(-48,0,l)
);
}
);
};
layerId = m003;
shapes = (
{
closed = 0;
nodes = (
(200,880,l),
(200,960,o),
(240,1000,o),
(320,1000,c),
(520,1000,ls),
(600,1000,o),
(640,960,o),
(640,880,cs),
(640,120,ls),
(640,52,o),
(692,0,o),
(758,0,cs,{
name = instroke_raise;
}),
(888,0,l)
);
},
{
closed = 0;
nodes = (
(200,1110,l),
(200,0,ls)
);
}
);
width = 888;
}
);
},
{
color = 4;
glyphname = o.init;
kernLeft = o.n;
lastChange = "2021-04-27 13:07:32 +0000";
layers = (
{
anchors = (
{
name = bottom;
pos = (430,0);
},
{
name = center;
pos = (430,500);
},
{
name = ogonek;
pos = (812,20);
},
{
name = top;
pos = (430,1000);
},
{
name = topright;
pos = (868,1000);
}
);
layerId = m003;
shapes = (
{
closed = 1;
nodes = (
(620,0,o),
(660,40,o),
(660,120,cs),
(660,880,ls),
(660,960,o),
(620,1000,o),
(540,1000,cs),
(320,1000,ls),
(240,1000,o),
(200,960,o),
(200,880,cs),
(200,120,ls),
(200,40,o),
(240,0,o),
(320,0,cs),
(540,0,ls)
);
},
{
closed = 0;
nodes = (
(660,120,l),
(660,52,o),
(712,0,o),
(778,0,cs,{
name = instroke_raise;
}),
(908,0,l)
);
}
);
width = 908;
}
);
},
{
color = 4;
glyphname = p.init;
kernLeft = n.n;
lastChange = "2021-04-27 13:07:32 +0000";
layers = (
{
anchors = (
{
name = bottom;
pos = (430,0);
},
{
name = top;
pos = (430,1000);
}
);
layerId = m003;
shapes = (
{
closed = 0;
nodes = (
(540,0,l),
(620,0,o),
(660,40,o),
(660,120,cs),
(660,880,ls),
(660,960,o),
(620,1000,o),
(540,1000,cs),
(320,1000,ls),
(240,1000,o),
(200,960,o),
(200,880,cs),
(200,120,ls),
(200,40,o),
(240,0,o),
(320,0,cs),
(540,0,ls)
);
},
{
closed = 0;
nodes = (
(660,120,l),
(660,52,o),
(712,0,o),
(778,0,cs,{
name = instroke_raise;
}),
(908,0,l)
);
},
{
closed = 0;
nodes = (
(200,1100,l),
(200,-500,l,{
name = "instroke_raise,outstroke_raise";
})
);
}
);
width = 908;
}
);
},
{
color = 4;
glyphname = thorn.init;
kernLeft = l.n;
lastChange = "2021-04-27 13:07:32 +0000";
layers = (
{
layerId = m003;
shapes = (
{
closed = 0;
nodes = (
(540,0,l),
(620,0,o),
(660,40,o),
(660,120,cs),
(660,880,ls),
(660,960,o),
(620,1000,o),
(540,1000,cs),
(320,1000,ls),
(240,1000,o),
(200,960,o),
(200,880,cs),
(200,120,ls),
(200,40,o),
(240,0,o),
(320,0,cs),
(540,0,ls)
);
},
{
closed = 0;
nodes = (
(660,120,l),
(660,52,o),
(712,0,o),
(778,0,cs,{
name = instroke_raise;
}),
(908,0,l)
);
},
{
closed = 0;
nodes = (
(200,1500,l),
(200,-500,l,{
name = "instroke_raise,outstroke_raise";
})
);
}
);
width = 908;
}
);
},
{
color = 4;
glyphname = q.init;
kernLeft = o.n;
lastChange = "2021-04-27 13:07:32 +0000";
layers = (
{
anchors = (
{
name = bottom;
pos = (430,0);
},
{
name = top;
pos = (430,1000);
}
);
layerId = m003;
shapes = (
{
closed = 0;
nodes = (
(320,0,l),
(540,0,ls),
(620,0,o),
(660,40,o),
(660,120,cs),
(660,880,ls),
(660,960,o),
(620,1000,o),
(540,1000,cs),
(320,1000,ls),
(240,1000,o),
(200,960,o),
(200,880,cs),
(200,120,ls),
(200,40,o),
(240,0,o),
(320,0,c)
);
},
{
closed = 0;
nodes = (
(660,120,l),
(660,52,o),
(712,0,o),
(778,0,cs,{
name = instroke_raise;
}),
(908,0,l)
);
},
{
closed = 0;
nodes = (
(660,1100,l),
(660,-500,l,{
name = "instroke_raise,outstroke_raise";
})
);
}
);
width = 908;
}
);
},
{
color = 4;
glyphname = r.init;
kernLeft = n.n;
lastChange = "2021-04-27 13:07:32 +0000";
layers = (
{
anchors = (
{
name = bottom;
pos = (390,0);
},
{
name = top;
pos = (390,1000);
}
);
layerId = m003;
shapes = (
{
closed = 0;
nodes = (
(200,880,l),
(200,960,o),
(240,1000,o),
(320,1000,c),
(520,1000,ls),
(600,1000,o),
(652,958,o),
(640,880,cs),
(530,120,ls),
(520,54,o),
(570,0,o),
(638,0,cs,{
name = instroke_raise;
}),
(828,0,l)
);
},
{
closed = 0;
nodes = (
(200,1110,l),
(200,0,l)
);
}
);
width = 828;
}
);
},
{
color = 4;
glyphname = s.init;
lastChange = "2021-04-27 13:07:32 +0000";
layers = (
{
anchors = (
{
name = bottom;
pos = (448,0);
},
{
name = top;
pos = (448,1000);
}
);
layerId = m003;
shapes = (
{
closed = 0;
nodes = (
(388,0,l),
(528,0,l),
(608,0,o),
(648,40,o),
(648,120,c),
(648,328,ls),
(648,480,o),
(576,656,o),
(496,758,cs),
(428,846,o),
(354,938,o),
(376,1050,c)
);
},
{
closed = 0;
nodes = (
(648,120,l),
(648,52,o),
(700,0,o),
(766,0,c,{
name = instroke_raise;
}),
(856,0,l)
);
},
{
closed = 0;
nodes = (
(388,1110,l,{
name = stub;
}),
(164,0,l)
);
}
);
width = 856;
}
);
},
{
color = 4;
glyphname = t.init;
lastChange = "2021-04-27 13:07:32 +0000";
layers = (
{
anchors = (
{
name = bottom;
pos = (328,0);
},
{
name = center;
pos = (328,500);
},
{
name = top;
pos = (328,1000);
},
{
name = topright;
pos = (596,1000);
}
);
layerId = m003;
shapes = (
{
closed = 0;
nodes = (
(100,1000,l),
(556,1000,l)
);
},
{
closed = 0;
nodes = (
(308,1500,l),
(308,120,l,{
name = "instroke_raise,outstroke_raise";
})
);
},
{
closed = 0;
nodes = (
(308,120,l,{
name = "instroke_raise,outstroke_raise";
}),
(308,52,o),
(360,0,o),
(426,0,cs,{
name = instroke_raise;
}),
(656,0,l)
);
}
);
width = 656;
}
);
},
{
color = 4;
glyphname = u.init;
kernLeft = u.n;
lastChange = "2021-04-27 13:07:32 +0000";
layers = (
{
anchors = (
{
name = bottom;
pos = (430,0);
},
{
name = ogonek;
pos = (812,20);
},
{
name = top;
pos = (430,1000);
},
{
name = topright;
pos = (868,1000);
}
);
layerId = m003;
shapes = (
{
closed = 0;
nodes = (
(540,0,l),
(620,0,o),
(660,40,o),
(660,120,cs),
(660,1000,ls)
);
},
{
closed = 0;
nodes = (
(660,120,l),
(660,52,o),
(712,0,o),
(778,0,cs,{
name = instroke_raise;
}),
(908,0,l)
);
},
{
closed = 0;
nodes = (
(200,1000,l),
(200,120,ls),
(200,40,o),
(240,0,o),
(320,0,cs),
(540,0,ls)
);
}
);
width = 908;
}
);
},
{
color = 4;
glyphname = v.init;
kernLeft = u.n;
lastChange = "2021-04-27 13:07:32 +0000";
layers = (
{
anchors = (
{
name = bottom;
pos = (410,0);
},
{
name = top;
pos = (410,1000);
}
);
background = {
shapes = (
{
closed = 0;
nodes = (
(540,0,l),
(620,0,o),
(660,40,o),
(660,120,cs),
(660,1000,ls)
);
},
{
closed = 0;
nodes = (
(200,120,l),
(200,52,o),
(148,0,o),
(82,0,cs,{
name = instroke_raise;
}),
(-48,0,l)
);
},
{
closed = 0;
nodes = (
(660,120,l),
(660,52,o),
(712,0,o),
(778,0,cs,{
name = instroke_raise;
}),
(908,0,l)
);
},
{
closed = 0;
nodes = (
(200,1000,l),
(200,120,ls),
(200,40,o),
(240,0,o),
(320,0,cs),
(540,0,ls)
);
}
);
};
layerId = m003;
shapes = (
{
closed = 0;
nodes = (
(200,1000,l),
(200,120,ls),
(200,40,o),
(244,0,o),
(320,0,cs),
(460,0,l),
(540,0,o),
(568,40,o),
(580,120,cs),
(686,778,ls),
(710,926,o),
(650,1000,o),
(520,1000,cs),
(440,1000,l)
);
},
{
closed = 0;
nodes = (
(580,120,l),
(580,52,o),
(632,0,o),
(698,0,cs,{
name = instroke_raise;
}),
(868,0,l)
);
}
);
width = 868;
}
);
},
{
color = 4;
glyphname = w.init;
kernLeft = u.n;
lastChange = "2021-04-27 13:07:32 +0000";
layers = (
{
anchors = (
{
name = bottom;
pos = (600,0);
},
{
name = top;
pos = (600,1000);
}
);
layerId = m003;
shapes = (
{
closed = 0;
nodes = (
(200,1000,l),
(200,120,ls),
(200,40,o),
(244,0,o),
(320,0,cs),
(460,0,l,{
name = instroke_raise;
}),
(540,0,o),
(568,40,o),
(580,120,cs)
);
},
{
closed = 0;
nodes = (
(462,0,l,{
name = instroke_raise;
}),
(332,0,l)
);
},
{
closed = 0;
nodes = (
(580,1000,l),
(580,120,ls),
(580,40,o),
(624,0,o),
(700,0,cs),
(840,0,l),
(920,0,o),
(948,40,o),
(960,120,cs),
(1066,778,ls),
(1090,926,o),
(1030,1000,o),
(900,1000,cs),
(840,1000,l)
);
},
{
closed = 0;
nodes = (
(960,120,l),
(960,52,o),
(1012,0,o),
(1078,0,cs,{
name = instroke_raise;
}),
(1248,0,l)
);
}
);
width = 1248;
}
);
},
{
color = 4;
glyphname = x.init;
lastChange = "2021-04-27 13:07:32 +0000";
layers = (
{
anchors = (
{
name = bottom;
pos = (490,0);
},
{
name = top;
pos = (490,1000);
}
);
layerId = m003;
shapes = (
{
closed = 0;
nodes = (
(280,0,l,{
name = instroke_raise;
}),
(280,280,ls),
(280,360,o),
(320,400,o),
(400,400,cs),
(580,400,ls),
(660,400,o),
(700,360,o),
(700,280,cs),
(700,120,ls),
(700,52,o),
(752,0,o),
(818,0,cs,{
name = instroke_raise;
}),
(948,0,l)
);
},
{
closed = 0;
nodes = (
(580,400,l),
(668,1000,l)
);
},
{
closed = 0;
nodes = (
(312,1000,l),
(400,400,l)
);
}
);
width = 980;
}
);
},
{
color = 4;
glyphname = y.init;
kernLeft = u.n;
lastChange = "2021-04-27 13:07:32 +0000";
layers = (
{
anchors = (
{
name = bottom;
pos = (420,0);
},
{
name = top;
pos = (420,1000);
}
);
layerId = m003;
shapes = (
{
closed = 0;
nodes = (
(520,0,l),
(600,0,o),
(640,40,o),
(640,120,cs),
(640,1000,ls)
);
},
{
closed = 0;
nodes = (
(640,120,l),
(640,52,o),
(692,0,o),
(758,0,cs,{
name = instroke_raise;
}),
(888,0,l)
);
},
{
closed = 0;
nodes = (
(520,-400,l),
(600,-400,o),
(640,-360,o),
(640,-280,cs),
(640,480,ls)
);
},
{
closed = 0;
nodes = (
(300,-400,l),
(520,-400,ls)
);
},
{
closed = 0;
nodes = (
(200,1000,l),
(200,120,ls),
(200,40,o),
(240,0,o),
(320,0,cs),
(520,0,ls)
);
}
);
width = 888;
}
);
},
{
color = 4;
glyphname = z.init;
lastChange = "2021-04-27 13:07:32 +0000";
layers = (
{
anchors = (
{
name = bottom;
pos = (446,0);
},
{
name = center;
pos = (446,500);
},
{
name = top;
pos = (446,1000);
}
);
background = {
shapes = (
{
closed = 0;
nodes = (
(-48,0,l),
(82,0,ls,{
name = instroke_raise;
}),
(146,0,o),
(200,52,o),
(200,120,cs,{
name = instroke_raise;
}),
(200,880,ls),
(200,960,o),
(240,1000,o),
(320,1000,cs),
(488,1000,ls),
(558,1000,o),
(612,960,o),
(594,880,cs),
(486,400,l),
(600,400,l),
(680,400,o),
(724,360,o),
(720,280,cs),
(674,-500,l)
);
},
{
closed = 0;
nodes = (
(710,120,l),
(710,52,o),
(762,-2,o),
(828,0,c,{
name = instroke_raise;
}),
(918,0,l)
);
}
);
};
layerId = m003;
shapes = (
{
closed = 0;
nodes = (
(712,120,l),
(712,52,o),
(764,-2,o),
(830,0,c,{
name = instroke_raise;
}),
(898,0,l)
);
},
{
closed = 0;
nodes = (
(200,400,l,{
name = instroke_raise;
}),
(200,880,ls),
(200,960,o),
(240,1000,o),
(320,1000,cs),
(468,1000,ls),
(538,1000,o),
(588,960,o),
(574,880,cs),
(486,400,l),
(600,400,l),
(680,400,o),
(724,360,o),
(720,280,cs),
(674,-500,l)
);
}
);
width = 898;
}
);
},
{
color = 2;
glyphname = b.isol;
kernLeft = l.n;
lastChange = "2021-04-27 13:07:32 +0000";
layers = (
{
anchors = (
{
name = bottom;
pos = (430,0);
},
{
name = top;
pos = (430,1500);
}
);
layerId = m003;
shapes = (
{
closed = 0;
nodes = (
(200,880,l),
(200,1500,l,{
name = stub;
})
);
},
{
closed = 1;
nodes = (
(620,0,o),
(660,40,o),
(660,120,cs),
(660,880,ls),
(660,960,o),
(620,1000,o),
(540,1000,cs),
(320,1000,ls),
(236,1000,o),
(200,960,o),
(200,880,cs),
(200,120,ls),
(200,40,o),
(240,0,o),
(320,0,cs),
(540,0,ls)
);
}
);
width = 860;
}
);
},
{
color = 2;
glyphname = c.isol;
kernLeft = o.n;
lastChange = "2021-04-27 13:07:32 +0000";
layers = (
{
anchors = (
{
name = bottom;
pos = (420,0);
},
{
name = top;
pos = (420,1000);
}
);
background = {
anchors = (
{
name = instroke;
pos = (332,120);
},
{
name = outstroke_flat;
pos = (692,0);
}
);
shapes = (
{
closed = 0;
nodes = (
(772,490,l),
(772,880,ls),
(772,960,o),
(732,1000,o),
(652,1000,cs),
(452,1000,ls),
(372,1000,o),
(332,960,o),
(332,880,cs),
(332,120,ls),
(332,40,o),
(372,0,o),
(452,0,c),
(452,0,o),
(692,0,o),
(692,0,c)
);
}
);
};
layerId = m003;
shapes = (
{
closed = 0;
nodes = (
(600,580,l),
(640,880,ls),
(650,960,o),
(600,1000,o),
(520,1000,cs),
(320,1000,ls),
(240,1000,o),
(200,960,o),
(200,880,cs),
(200,120,ls),
(200,52,o),
(248,0,o),
(320,0,c),
(320,0,o),
(520,0,o),
(520,0,c),
(592,0,o),
(640,52,o),
(640,120,c),
(640,220,l)
);
}
);
width = 842;
}
);
},
{
color = 2;
glyphname = e.isol;
kernLeft = o.n;
lastChange = "2021-04-27 13:07:32 +0000";
layers = (
{
anchors = (
{
name = bottom;
pos = (420,0);
},
{
name = ogonek;
pos = (642,0);
},
{
name = top;
pos = (420,1000);
}
);
layerId = m003;
shapes = (
{
closed = 0;
nodes = (
(200,380,l),
(520,520,ls),
(598,554,o),
(640,638,o),
(640,720,cs),
(640,880,ls),
(640,960,o),
(600,1000,o),
(520,1000,cs),
(320,1000,ls),
(240,1000,o),
(200,960,o),
(200,880,cs),
(200,120,ls),
(200,52,o),
(248,0,o),
(320,0,c),
(320,0,o),
(520,0,o),
(520,0,c),
(592,0,o),
(640,52,o),
(640,120,c),
(640,240,l)
);
}
);
width = 840;
}
);
},
{
color = 2;
glyphname = g.isol;
kernLeft = o.n;
lastChange = "2021-04-27 13:07:32 +0000";
layers = (
{
anchors = (
{
name = bottom;
pos = (430,-500);
},
{
name = top;
pos = (430,1000);
}
);
layerId = m003;
shapes = (
{
closed = 0;
nodes = (
(540,0,l),
(620,0,o),
(660,40,o),
(660,120,cs),
(660,880,ls),
(660,960,o),
(620,1000,o),
(540,1000,cs),
(320,1000,ls),
(240,1000,o),
(200,960,o),
(200,880,cs),
(200,120,ls),
(200,40,o),
(240,0,o),
(320,0,cs),
(540,0,ls)
);
},
{
closed = 0;
nodes = (
(540,-400,l),
(620,-400,o),
(660,-360,o),
(660,-280,cs),
(660,480,ls)
);
},
{
closed = 0;
nodes = (
(320,-400,l),
(540,-400,ls)
);
},
{
closed = 0;
nodes = (
(660,880,l),
(660,1110,l,{
name = stub;
})
);
}
);
width = 860;
}
);
},
{
color = 2;
glyphname = jdotless.isol;
kernLeft = u.n;
lastChange = "2021-04-27 13:07:32 +0000";
layers = (
{
anchors = (
{
name = bottom;
pos = (600,-500);
},
{
name = top;
pos = (248,1000);
}
);
layerId = m003;
shapes = (
{
closed = 0;
nodes = (
(248,1000,l),
(248,120,l,{
name = "instroke_raise,outstroke_raise";
})
);
},
{
closed = 0;
nodes = (
(248,120,l,{
name = "instroke_raise,outstroke_raise";
})
);
},
{
closed = 0;
nodes = (
(248,600,l),
(248,-360,ls,{
name = "instroke_raise,outstroke_raise";
}),
(248,-428,o),
(196,-480,o),
(130,-480,cs,{
name = instroke_raise;
}),
(0,-480,l)
);
}
);
width = 496;
}
);
},
{
color = 2;
glyphname = n.isol;
kernLeft = n.n;
lastChange = "2021-04-27 13:07:32 +0000";
layers = (
{
anchors = (
{
name = bottom;
pos = (468,0);
},
{
name = top;
pos = (468,1000);
}
);
background = {
shapes = (
{
closed = 0;
nodes = (
(248,880,l),
(248,960,o),
(288,1000,o),
(368,1000,c),
(568,1000,ls),
(648,1000,o),
(688,960,o),
(688,880,cs),
(688,120,ls),
(688,52,o),
(740,0,o),
(806,0,cs,{
name = instroke_raise;
}),
(936,0,l)
);
},
{
closed = 0;
nodes = (
(248,1110,l),
(248,120,ls),
(248,52,o),
(196,0,o),
(130,0,cs,{
name = instroke_raise;
}),
(0,0,l)
);
}
);
};
layerId = m003;
shapes = (
{
ref = n.init;
}
);
width = 888;
}
);
},
{
color = 2;
glyphname = o.isol;
kernLeft = o.n;
lastChange = "2021-04-27 13:07:32 +0000";
layers = (
{
anchors = (
{
name = bottom;
pos = (430,0);
},
{
name = center;
pos = (430,500);
},
{
name = ogonek;
pos = (812,20);
},
{
name = top;
pos = (430,1000);
},
{
name = topright;
pos = (868,1000);
}
);
layerId = m003;
shapes = (
{
closed = 1;
nodes = (
(620,0,o),
(660,40,o),
(660,120,cs),
(660,880,ls),
(660,960,o),
(620,1000,o),
(540,1000,cs),
(320,1000,ls),
(240,1000,o),
(200,960,o),
(200,880,cs),
(200,120,ls),
(200,40,o),
(240,0,o),
(320,0,cs),
(540,0,ls)
);
},
{
closed = 0;
nodes = (
(660,820,l),
(660,752,o),
(712,700,o),
(778,700,cs,{
name = instroke_raise;
}),
(908,700,l)
);
}
);
width = 908;
}
);
},
{
color = 2;
glyphname = p.isol;
kernLeft = n.n;
lastChange = "2021-04-27 13:07:32 +0000";
layers = (
{
anchors = (
{
name = bottom;
pos = (430,0);
},
{
name = top;
pos = (430,1000);
}
);
layerId = m003;
shapes = (
{
closed = 0;
nodes = (
(540,0,l),
(620,0,o),
(660,40,o),
(660,120,cs),
(660,880,ls),
(660,960,o),
(620,1000,o),
(540,1000,cs),
(320,1000,ls),
(240,1000,o),
(200,960,o),
(200,880,cs),
(200,120,ls),
(200,40,o),
(240,0,o),
(320,0,cs),
(540,0,ls)
);
},
{
closed = 0;
nodes = (
(200,1100,l),
(200,-500,l,{
name = "instroke_raise,outstroke_raise";
})
);
}
);
width = 860;
}
);
},
{
color = 2;
glyphname = thorn.isol;
kernLeft = l.n;
lastChange = "2021-04-27 13:07:32 +0000";
layers = (
{
layerId = m003;
shapes = (
{
closed = 0;
nodes = (
(540,0,l),
(620,0,o),
(660,40,o),
(660,120,cs),
(660,880,ls),
(660,960,o),
(620,1000,o),
(540,1000,cs),
(320,1000,ls),
(240,1000,o),
(200,960,o),
(200,880,cs),
(200,120,ls),
(200,40,o),
(240,0,o),
(320,0,cs),
(540,0,ls)
);
},
{
closed = 0;
nodes = (
(200,1500,l),
(200,-500,l,{
name = "instroke_raise,outstroke_raise";
})
);
}
);
width = 860;
}
);
},
{
color = 2;
glyphname = q.isol;
kernLeft = o.n;
lastChange = "2021-04-27 13:07:32 +0000";
layers = (
{
anchors = (
{
name = bottom;
pos = (430,0);
},
{
name = top;
pos = (430,1000);
}
);
layerId = m003;
shapes = (
{
closed = 0;
nodes = (
(320,0,l),
(540,0,ls),
(620,0,o),
(660,40,o),
(660,120,cs),
(660,880,ls),
(660,960,o),
(620,1000,o),
(540,1000,cs),
(320,1000,ls),
(240,1000,o),
(200,960,o),
(200,880,cs),
(200,120,ls),
(200,40,o),
(240,0,o),
(320,0,c)
);
},
{
closed = 0;
nodes = (
(660,1100,l),
(660,-500,l,{
name = "instroke_raise,outstroke_raise";
})
);
}
);
width = 860;
}
);
},
{
color = 2;
glyphname = s.isol;
lastChange = "2021-04-27 13:07:32 +0000";
layers = (
{
anchors = (
{
name = bottom;
pos = (448,0);
},
{
name = top;
pos = (448,1000);
}
);
layerId = m003;
shapes = (
{
closed = 0;
nodes = (
(388,0,l),
(528,0,l),
(608,0,o),
(648,40,o),
(648,120,c),
(648,328,ls),
(648,480,o),
(576,656,o),
(496,758,cs),
(428,846,o),
(354,938,o),
(376,1050,c)
);
},
{
closed = 0;
nodes = (
(388,1110,l,{
name = stub;
}),
(164,0,l)
);
}
);
width = 856;
}
);
},
{
color = 2;
glyphname = t.isol;
lastChange = "2021-04-27 13:07:32 +0000";
layers = (
{
anchors = (
{
name = bottom;
pos = (328,0);
},
{
name = center;
pos = (328,500);
},
{
name = top;
pos = (328,1000);
},
{
name = topright;
pos = (596,1000);
}
);
layerId = m003;
shapes = (
{
closed = 0;
nodes = (
(100,1000,l),
(556,1000,l)
);
},
{
closed = 0;
nodes = (
(308,1500,l),
(308,120,l,{
name = "instroke_raise,outstroke_raise";
})
);
},
{
closed = 0;
nodes = (
(308,120,l,{
name = "instroke_raise,outstroke_raise";
}),
(308,52,o),
(360,0,o),
(426,0,cs,{
name = instroke_raise;
}),
(656,0,l)
);
}
);
width = 656;
}
);
},
{
color = 2;
glyphname = u.isol;
kernLeft = u.n;
lastChange = "2021-04-27 13:07:32 +0000";
layers = (
{
anchors = (
{
name = bottom;
pos = (478,0);
},
{
name = ogonek;
pos = (860,20);
},
{
name = top;
pos = (478,1000);
},
{
name = topright;
pos = (916,1000);
}
);
layerId = m003;
shapes = (
{
closed = 0;
nodes = (
(588,0,l),
(668,0,o),
(708,40,o),
(708,120,cs),
(708,1000,ls)
);
},
{
closed = 0;
nodes = (
(708,120,l),
(708,52,o),
(760,0,o),
(826,0,cs,{
name = instroke_raise;
}),
(956,0,l)
);
},
{
closed = 0;
nodes = (
(248,1000,l),
(248,120,ls),
(248,40,o),
(288,0,o),
(368,0,cs),
(588,0,ls)
);
}
);
width = 956;
}
);
},
{
color = 2;
glyphname = v.isol;
kernLeft = u.n;
lastChange = "2021-04-27 13:07:32 +0000";
layers = (
{
anchors = (
{
name = bottom;
pos = (410,0);
},
{
name = top;
pos = (410,1000);
}
);
background = {
shapes = (
{
closed = 0;
nodes = (
(540,0,l),
(620,0,o),
(660,40,o),
(660,120,cs),
(660,1000,ls)
);
},
{
closed = 0;
nodes = (
(200,120,l),
(200,52,o),
(148,0,o),
(82,0,cs,{
name = instroke_raise;
}),
(-48,0,l)
);
},
{
closed = 0;
nodes = (
(660,120,l),
(660,52,o),
(712,0,o),
(778,0,cs,{
name = instroke_raise;
}),
(908,0,l)
);
},
{
closed = 0;
nodes = (
(200,1000,l),
(200,120,ls),
(200,40,o),
(240,0,o),
(320,0,cs),
(540,0,ls)
);
}
);
};
layerId = m003;
shapes = (
{
closed = 0;
nodes = (
(200,1000,l),
(200,120,ls),
(200,40,o),
(244,0,o),
(320,0,cs),
(460,0,l),
(540,0,o),
(568,40,o),
(580,120,cs),
(686,778,ls),
(710,926,o),
(650,1000,o),
(520,1000,cs),
(440,1000,l)
);
},
{
closed = 0;
nodes = (
(690,820,ls),
(690,752,o),
(742,700,o),
(808,700,cs,{
name = instroke_raise;
}),
(938,700,l)
);
},
{
closed = 0;
nodes = (
(690,820,ls),
(690,752,o),
(742,700,o),
(808,700,cs,{
name = instroke_raise;
}),
(938,700,l)
);
}
);
width = 938;
}
);
},
{
color = 2;
glyphname = w.isol;
kernLeft = u.n;
lastChange = "2021-04-27 13:07:32 +0000";
layers = (
{
anchors = (
{
name = bottom;
pos = (600,0);
},
{
name = top;
pos = (600,1000);
}
);
layerId = m003;
shapes = (
{
closed = 0;
nodes = (
(200,1000,l),
(200,120,ls),
(200,40,o),
(244,0,o),
(320,0,cs),
(460,0,l,{
name = instroke_raise;
}),
(540,0,o),
(568,40,o),
(580,120,cs)
);
},
{
closed = 0;
nodes = (
(462,0,l,{
name = instroke_raise;
}),
(332,0,l)
);
},
{
closed = 0;
nodes = (
(580,1000,l),
(580,120,ls),
(580,40,o),
(624,0,o),
(700,0,cs),
(840,0,l),
(920,0,o),
(948,40,o),
(960,120,cs),
(1066,778,ls),
(1090,926,o),
(1030,1000,o),
(900,1000,cs),
(840,1000,l)
);
},
{
closed = 0;
nodes = (
(1070,820,ls),
(1070,752,o),
(1122,700,o),
(1188,700,cs,{
name = instroke_raise;
}),
(1318,700,l)
);
}
);
width = 1318;
}
);
},
{
color = 2;
glyphname = x.isol;
lastChange = "2021-04-27 13:07:32 +0000";
layers = (
{
anchors = (
{
name = bottom;
pos = (482,0);
},
{
name = top;
pos = (482,1000);
}
);
layerId = m003;
shapes = (
{
closed = 0;
nodes = (
(644,1000,l),
(532,440,l),
(546,440,ls),
(626,440,o),
(666,400,o),
(666,320,cs),
(666,120,ls),
(666,52,o),
(718,0,o),
(784,0,cs,{
name = instroke_raise;
}),
(874,0,l)
);
},
{
closed = 0;
nodes = (
(222,1000,l),
(334,440,l),
(320,440,ls),
(240,440,o),
(200,400,o),
(200,320,cs),
(200,0,l)
);
},
{
closed = 0;
nodes = (
(336,440,l),
(532,440,l)
);
}
);
width = 874;
}
);
},
{
color = 2;
glyphname = y.isol;
lastChange = "2021-04-27 13:07:32 +0000";
layers = (
{
anchors = (
{
name = bottom;
pos = (420,0);
},
{
name = top;
pos = (420,1000);
}
);
layerId = m003;
shapes = (
{
closed = 0;
nodes = (
(520,0,l),
(600,0,o),
(640,40,o),
(640,120,cs),
(640,1000,ls)
);
},
{
closed = 0;
nodes = (
(520,-400,l),
(600,-400,o),
(640,-360,o),
(640,-280,cs),
(640,480,ls)
);
},
{
closed = 0;
nodes = (
(300,-400,l),
(520,-400,ls)
);
},
{
closed = 0;
nodes = (
(200,1000,l),
(200,120,ls),
(200,40,o),
(240,0,o),
(320,0,cs),
(520,0,ls)
);
}
);
width = 840;
}
);
},
{
color = 2;
glyphname = z.isol;
lastChange = "2021-04-27 13:07:32 +0000";
layers = (
{
anchors = (
{
name = bottom;
pos = (446,0);
},
{
name = center;
pos = (446,500);
},
{
name = top;
pos = (446,1000);
}
);
background = {
shapes = (
{
closed = 0;
nodes = (
(-48,0,l),
(82,0,ls,{
name = instroke_raise;
}),
(146,0,o),
(200,52,o),
(200,120,cs,{
name = instroke_raise;
}),
(200,880,ls),
(200,960,o),
(240,1000,o),
(320,1000,cs),
(488,1000,ls),
(558,1000,o),
(612,960,o),
(594,880,cs),
(486,400,l),
(600,400,l),
(680,400,o),
(724,360,o),
(720,280,cs),
(674,-500,l)
);
},
{
closed = 0;
nodes = (
(710,120,l),
(710,52,o),
(762,-2,o),
(828,0,c,{
name = instroke_raise;
}),
(918,0,l)
);
}
);
};
layerId = m003;
shapes = (
{
closed = 0;
nodes = (
(200,0,l,{
name = instroke_raise;
}),
(200,880,ls),
(200,960,o),
(240,1000,o),
(320,1000,cs),
(488,1000,ls),
(558,1000,o),
(612,960,o),
(594,880,cs),
(486,400,l),
(600,400,l),
(680,400,o),
(724,360,o),
(720,280,cs),
(674,-500,l)
);
}
);
width = 860;
}
);
},
{
glyphname = a.salt;
lastChange = "2021-04-27 13:07:32 +0000";
layers = (
{
anchors = (
{
name = bottom;
pos = (468,0);
},
{
name = ogonek;
pos = (246,1000);
},
{
name = top;
pos = (468,1000);
}
);
layerId = m003;
shapes = (
{
closed = 0;
nodes = (
(688,620,l),
(368,480,ls),
(290,446,o),
(248,362,o),
(248,280,cs),
(248,120,ls),
(248,40,o),
(288,0,o),
(368,0,cs),
(568,0,ls),
(648,0,o),
(688,40,o),
(688,120,cs),
(688,880,ls),
(688,948,o),
(640,1000,o),
(568,1000,c),
(568,1000,o),
(368,1000,o),
(368,1000,c),
(294,1002,o),
(246,952,o),
(248,880,c),
(248,760,l)
);
},
{
closed = 0;
nodes = (
(936,0,l),
(806,0,ls,{
name = instroke_raise;
}),
(742,0,o),
(688,52,o),
(688,120,cs)
);
},
{
closed = 0;
nodes = (
(0,0,l),
(130,0,l,{
name = instroke_raise;
}),
(196,0,o),
(248,52,o),
(248,120,cs)
);
}
);
width = 936;
}
);
},
{
glyphname = f.ss03;
lastChange = "2021-04-27 13:07:32 +0000";
layers = (
{
anchors = (
{
name = bottom;
pos = (468,0);
},
{
name = ogonek;
pos = (246,1000);
},
{
name = top;
pos = (468,1000);
}
);
background = {
shapes = (
{
closed = 0;
nodes = (
(100,1000,l),
(556,1000,l)
);
},
{
closed = 0;
nodes = (
(308,1500,l),
(308,120,l,{
name = "instroke_raise,outstroke_raise";
}),
(308,52,o),
(256,0,o),
(190,0,cs,{
name = instroke_raise;
}),
(0,0,l)
);
},
{
closed = 0;
nodes = (
(308,120,l,{
name = "instroke_raise,outstroke_raise";
}),
(308,52,o),
(360,0,o),
(426,0,cs,{
name = instroke_raise;
}),
(656,0,l)
);
}
);
};
layerId = m003;
shapes = (
{
closed = 0;
nodes = (
(308,1000,l),
(308,120,ls,{
name = "instroke_raise,outstroke_raise";
}),
(308,52,o),
(256,0,o),
(190,0,cs,{
name = instroke_raise;
}),
(0,0,l)
);
},
{
closed = 0;
nodes = (
(308,120,l,{
name = "instroke_raise,outstroke_raise";
}),
(308,52,o),
(360,0,o),
(426,0,cs,{
name = instroke_raise;
}),
(656,0,l)
);
},
{
closed = 0;
nodes = (
(308,600,l),
(308,-360,ls,{
name = "instroke_raise,outstroke_raise";
}),
(308,-428,o),
(256,-480,o),
(190,-480,cs,{
name = instroke_raise;
}),
(60,-480,l)
);
},
{
closed = 0;
nodes = (
(556,1500,l),
(426,1500,ls,{
name = instroke_raise;
}),
(360,1500,o),
(308,1448,o),
(308,1380,cs,{
name = "instroke_raise,outstroke_raise";
}),
(308,500,l)
);
},
{
closed = 0;
nodes = (
(100,1000,l),
(556,1000,l)
);
}
);
width = 656;
}
);
},
{
color = 6;
glyphname = b.high.fina;
lastChange = "2021-04-27 13:07:32 +0000";
layers = (
{
layerId = m003;
shapes = (
{
closed = 0;
nodes = (
(248,880,l),
(248,1500,l,{
name = stub;
})
);
},
{
closed = 0;
nodes = (
(248,820,l),
(248,752,o),
(196,700,o),
(130,700,cs,{
name = instroke_raise;
}),
(0,700,l)
);
},
{
closed = 1;
nodes = (
(668,0,o),
(708,40,o),
(708,120,cs),
(708,880,ls),
(708,960,o),
(668,1000,o),
(588,1000,cs),
(368,1000,ls),
(284,1000,o),
(248,960,o),
(248,880,cs),
(248,120,ls),
(248,40,o),
(288,0,o),
(368,0,cs),
(588,0,ls)
);
}
);
width = 908;
}
);
},
{
color = 6;
glyphname = c.high.fina;
lastChange = "2021-04-27 13:07:32 +0000";
layers = (
{
anchors = (
{
name = bottom;
pos = (468,0);
},
{
name = top;
pos = (468,1000);
}
);
background = {
anchors = (
{
name = instroke;
pos = (380,120);
},
{
name = outstroke_flat;
pos = (740,0);
}
);
shapes = (
{
closed = 0;
nodes = (
(820,490,l),
(820,880,ls),
(820,960,o),
(780,1000,o),
(700,1000,cs),
(500,1000,ls),
(420,1000,o),
(380,960,o),
(380,880,cs),
(380,120,ls),
(380,40,o),
(420,0,o),
(500,0,c),
(500,0,o),
(740,0,o),
(740,0,c)
);
}
);
};
layerId = m003;
shapes = (
{
closed = 0;
nodes = (
(248,820,l),
(248,752,o),
(196,700,o),
(130,700,cs,{
name = instroke_raise;
}),
(0,700,l)
);
},
{
closed = 0;
nodes = (
(648,580,l),
(688,880,ls),
(698,960,o),
(648,1000,o),
(568,1000,cs),
(368,1000,ls),
(288,1000,o),
(248,960,o),
(248,880,cs),
(248,120,ls),
(248,52,o),
(296,0,o),
(368,0,c),
(368,0,o),
(608,0,o),
(608,0,c),
(680,0,o),
(728,52,o),
(728,120,c),
(728,220,l)
);
}
);
width = 928;
}
);
},
{
color = 6;
glyphname = e.high.fina;
lastChange = "2021-04-27 13:07:32 +0000";
layers = (
{
anchors = (
{
name = bottom;
pos = (468,0);
},
{
name = ogonek;
pos = (690,0);
},
{
name = top;
pos = (468,1000);
}
);
layerId = m003;
shapes = (
{
closed = 0;
nodes = (
(248,380,l),
(568,520,ls),
(646,554,o),
(688,638,o),
(688,720,cs),
(688,880,ls),
(688,960,o),
(648,1000,o),
(568,1000,cs),
(368,1000,ls),
(288,1000,o),
(248,960,o),
(248,880,cs),
(248,120,ls),
(248,52,o),
(296,0,o),
(368,0,c),
(368,0,o),
(608,0,o),
(608,0,c),
(680,0,o),
(728,52,o),
(728,120,c),
(728,240,l)
);
},
{
closed = 0;
nodes = (
(248,820,l),
(248,752,o),
(194,700,o),
(130,700,cs,{
name = instroke_raise;
}),
(0,700,l)
);
}
);
width = 928;
}
);
},
{
color = 6;
glyphname = g.high.fina;
lastChange = "2021-04-27 13:07:32 +0000";
layers = (
{
anchors = (
{
name = bottom;
pos = (478,-500);
},
{
name = top;
pos = (478,1000);
}
);
layerId = m003;
shapes = (
{
closed = 1;
nodes = (
(668,0,o),
(708,40,o),
(708,120,cs),
(708,880,ls),
(708,960,o),
(668,1000,o),
(588,1000,cs),
(368,1000,ls),
(288,1000,o),
(248,960,o),
(248,880,cs),
(248,120,ls),
(248,40,o),
(288,0,o),
(368,0,cs),
(588,0,ls)
);
},
{
closed = 0;
nodes = (
(248,820,l),
(248,752,o),
(196,700,o),
(130,700,cs,{
name = instroke_raise;
}),
(0,700,l)
);
},
{
closed = 0;
nodes = (
(368,-400,l),
(588,-400,ls),
(668,-400,o),
(708,-360,o),
(708,-280,cs),
(708,480,l)
);
},
{
closed = 0;
nodes = (
(708,880,l),
(708,1110,l,{
name = stub;
})
);
}
);
width = 908;
}
);
},
{
color = 6;
glyphname = jdotless.high.fina;
lastChange = "2021-04-27 13:07:32 +0000";
layers = (
{
anchors = (
{
name = bottom;
pos = (600,-500);
},
{
name = top;
pos = (248,1000);
}
);
layerId = m003;
shapes = (
{
closed = 0;
nodes = (
(248,1000,l),
(248,820,ls,{
name = "instroke_raise,outstroke_raise";
}),
(248,752,o),
(196,700,o),
(130,700,cs,{
name = instroke_raise;
}),
(0,700,l)
);
},
{
closed = 0;
nodes = (
(248,860,l),
(248,-360,ls,{
name = "instroke_raise,outstroke_raise";
}),
(248,-428,o),
(196,-480,o),
(130,-480,cs,{
name = instroke_raise;
}),
(0,-480,l)
);
}
);
width = 496;
}
);
},
{
color = 6;
glyphname = o.high.fina;
lastChange = "2021-04-27 13:07:32 +0000";
layers = (
{
anchors = (
{
name = bottom;
pos = (478,0);
},
{
name = center;
pos = (478,500);
},
{
name = ogonek;
pos = (860,20);
},
{
name = top;
pos = (478,1000);
},
{
name = topright;
pos = (916,1000);
}
);
layerId = m003;
shapes = (
{
closed = 1;
nodes = (
(668,0,o),
(708,40,o),
(708,120,cs),
(708,880,ls),
(708,960,o),
(668,1000,o),
(588,1000,cs),
(368,1000,ls),
(288,1000,o),
(248,960,o),
(248,880,cs),
(248,120,ls),
(248,40,o),
(288,0,o),
(368,0,cs),
(588,0,ls)
);
},
{
closed = 0;
nodes = (
(248,820,ls),
(248,752,o),
(196,700,o),
(130,700,cs,{
name = instroke_raise;
}),
(0,700,l)
);
},
{
closed = 0;
nodes = (
(708,820,ls),
(708,752,o),
(760,700,o),
(826,700,cs,{
name = instroke_raise;
}),
(956,700,l)
);
}
);
width = 956;
}
);
},
{
color = 6;
glyphname = p.high.fina;
lastChange = "2021-04-27 13:07:32 +0000";
layers = (
{
anchors = (
{
name = bottom;
pos = (478,0);
},
{
name = top;
pos = (478,1000);
}
);
layerId = m003;
shapes = (
{
closed = 0;
nodes = (
(588,0,l),
(668,0,o),
(708,40,o),
(708,120,cs),
(708,880,ls),
(708,960,o),
(668,1000,o),
(588,1000,cs),
(368,1000,ls),
(288,1000,o),
(248,960,o),
(248,880,cs),
(248,120,ls),
(248,40,o),
(288,0,o),
(368,0,cs),
(588,0,ls)
);
},
{
closed = 0;
nodes = (
(248,820,l),
(248,752,o),
(196,700,o),
(130,700,cs,{
name = instroke_raise;
}),
(0,700,l)
);
},
{
closed = 0;
nodes = (
(248,1100,l),
(248,-500,l,{
name = "instroke_raise,outstroke_raise";
})
);
}
);
width = 908;
}
);
},
{
color = 6;
glyphname = thorn.high.fina;
lastChange = "2021-04-27 13:07:32 +0000";
layers = (
{
layerId = m003;
shapes = (
{
closed = 0;
nodes = (
(588,0,l),
(668,0,o),
(708,40,o),
(708,120,cs),
(708,880,ls),
(708,960,o),
(668,1000,o),
(588,1000,cs),
(368,1000,ls),
(288,1000,o),
(248,960,o),
(248,880,cs),
(248,120,ls),
(248,40,o),
(288,0,o),
(368,0,cs),
(588,0,ls)
);
},
{
closed = 0;
nodes = (
(248,820,l),
(248,752,o),
(196,700,o),
(130,700,cs,{
name = instroke_raise;
}),
(0,700,l)
);
},
{
closed = 0;
nodes = (
(248,1500,l),
(248,-500,l,{
name = "instroke_raise,outstroke_raise";
})
);
}
);
width = 908;
}
);
},
{
color = 6;
glyphname = q.high.fina;
lastChange = "2021-04-27 13:07:32 +0000";
layers = (
{
anchors = (
{
name = bottom;
pos = (478,0);
},
{
name = top;
pos = (478,1000);
}
);
layerId = m003;
shapes = (
{
closed = 0;
nodes = (
(368,0,l),
(588,0,ls),
(668,0,o),
(708,40,o),
(708,120,cs),
(708,880,ls),
(708,960,o),
(668,1000,o),
(588,1000,cs),
(368,1000,ls),
(288,1000,o),
(248,960,o),
(248,880,cs),
(248,120,ls),
(248,40,o),
(288,0,o),
(368,0,c)
);
},
{
closed = 0;
nodes = (
(248,820,l),
(248,752,o),
(196,700,o),
(130,700,cs,{
name = instroke_raise;
}),
(0,700,l)
);
},
{
closed = 0;
nodes = (
(708,1100,l),
(708,-500,l,{
name = "instroke_raise,outstroke_raise";
})
);
}
);
width = 908;
}
);
},
{
color = 6;
glyphname = s.high.fina;
lastChange = "2021-04-27 13:07:32 +0000";
layers = (
{
anchors = (
{
name = bottom;
pos = (448,0);
},
{
name = top;
pos = (448,1000);
}
);
layerId = m003;
shapes = (
{
closed = 0;
nodes = (
(308,0,l),
(448,0,l),
(528,0,o),
(568,40,o),
(568,120,c),
(568,328,ls),
(568,480,o),
(496,656,o),
(416,758,cs),
(348,846,o),
(274,938,o),
(296,1050,c)
);
},
{
closed = 0;
nodes = (
(324,1110,l,{
name = stub;
}),
(188,820,ls),
(158,756,o),
(116,700,o),
(50,700,cs,{
name = instroke_raise;
}),
(0,700,l)
);
}
);
width = 768;
}
);
},
{
color = 6;
glyphname = t.high.fina;
lastChange = "2021-04-27 13:07:32 +0000";
layers = (
{
anchors = (
{
name = bottom;
pos = (328,700);
},
{
name = center;
pos = (328,500);
},
{
name = top;
pos = (328,1000);
},
{
name = topright;
pos = (596,1000);
}
);
layerId = m003;
shapes = (
{
closed = 0;
nodes = (
(100,1000,l),
(556,1000,l)
);
},
{
closed = 0;
nodes = (
(308,1500,l),
(308,820,l,{
name = "instroke_raise,outstroke_raise";
}),
(312,752,o),
(258,700,o),
(190,700,cs,{
name = instroke_raise;
}),
(0,700,l)
);
},
{
closed = 0;
nodes = (
(656,0,l),
(426,0,ls,{
name = instroke_raise;
}),
(360,0,o),
(308,52,o),
(308,120,c,{
name = "instroke_raise,outstroke_raise";
}),
(308,940,l)
);
}
);
width = 656;
}
);
},
{
color = 6;
glyphname = v.high.fina;
lastChange = "2021-04-27 13:07:32 +0000";
layers = (
{
anchors = (
{
name = bottom;
pos = (458,0);
},
{
name = top;
pos = (458,1000);
}
);
background = {
shapes = (
{
closed = 0;
nodes = (
(588,0,l),
(668,0,o),
(708,40,o),
(708,120,cs),
(708,1000,ls)
);
},
{
closed = 0;
nodes = (
(248,120,l),
(248,52,o),
(196,0,o),
(130,0,cs,{
name = instroke_raise;
}),
(0,0,l)
);
},
{
closed = 0;
nodes = (
(708,120,l),
(708,52,o),
(760,0,o),
(826,0,cs,{
name = instroke_raise;
}),
(956,0,l)
);
},
{
closed = 0;
nodes = (
(248,1000,l),
(248,120,ls),
(248,40,o),
(288,0,o),
(368,0,cs),
(588,0,ls)
);
}
);
};
layerId = m003;
shapes = (
{
closed = 0;
nodes = (
(248,1000,l),
(248,120,ls),
(248,40,o),
(292,0,o),
(368,0,cs),
(508,0,l),
(588,0,o),
(616,40,o),
(628,120,cs),
(734,778,ls),
(758,926,o),
(698,1000,o),
(568,1000,cs),
(488,1000,l)
);
},
{
closed = 0;
nodes = (
(248,820,l),
(248,752,o),
(196,700,o),
(130,700,cs,{
name = instroke_raise;
}),
(0,700,l)
);
},
{
closed = 0;
nodes = (
(738,820,ls),
(738,752,o),
(790,700,o),
(856,700,cs,{
name = instroke_raise;
}),
(986,700,l)
);
}
);
width = 986;
}
);
},
{
color = 6;
glyphname = w.high.fina;
lastChange = "2021-04-27 13:07:32 +0000";
layers = (
{
anchors = (
{
name = bottom;
pos = (648,0);
},
{
name = top;
pos = (648,1000);
}
);
layerId = m003;
shapes = (
{
closed = 0;
nodes = (
(248,1000,l),
(248,120,ls),
(248,40,o),
(292,0,o),
(368,0,cs),
(508,0,l,{
name = instroke_raise;
}),
(588,0,o),
(616,40,o),
(628,120,cs)
);
},
{
closed = 0;
nodes = (
(248,820,l),
(248,752,o),
(196,700,o),
(130,700,cs,{
name = instroke_raise;
}),
(0,700,l)
);
},
{
closed = 0;
nodes = (
(510,0,l,{
name = instroke_raise;
}),
(380,0,l)
);
},
{
closed = 0;
nodes = (
(628,1000,l),
(628,120,ls),
(628,40,o),
(672,0,o),
(748,0,cs),
(888,0,l),
(968,0,o),
(996,40,o),
(1008,120,cs),
(1114,778,ls),
(1138,926,o),
(1078,1000,o),
(948,1000,cs),
(888,1000,l)
);
},
{
closed = 0;
nodes = (
(1118,820,ls),
(1118,752,o),
(1170,700,o),
(1236,700,cs,{
name = instroke_raise;
}),
(1366,700,l)
);
}
);
width = 1366;
}
);
},
{
color = 6;
glyphname = x.high.fina;
lastChange = "2021-04-27 13:07:32 +0000";
layers = (
{
anchors = (
{
name = bottom;
pos = (490,0);
},
{
name = top;
pos = (490,1000);
}
);
layerId = m003;
shapes = (
{
closed = 0;
nodes = (
(192,0,l,{
name = instroke_raise;
}),
(192,280,ls),
(192,360,o),
(232,400,o),
(312,400,cs),
(492,400,ls),
(572,400,o),
(612,360,o),
(612,280,cs),
(612,120,ls),
(612,52,o),
(664,0,o),
(730,0,cs,{
name = instroke_raise;
}),
(820,0,l)
);
},
{
closed = 0;
nodes = (
(492,400,l),
(580,1000,l)
);
},
{
closed = 0;
nodes = (
(224,1000,l),
(312,400,l)
);
},
{
closed = 0;
nodes = (
(248,820,l),
(248,752,o),
(196,700,o),
(130,700,cs,{
name = instroke_raise;
}),
(0,700,l)
);
}
);
width = 820;
}
);
},
{
color = 6;
glyphname = y.high.fina;
lastChange = "2021-04-27 13:07:32 +0000";
layers = (
{
anchors = (
{
name = bottom;
pos = (468,0);
},
{
name = top;
pos = (468,1000);
}
);
layerId = m003;
shapes = (
{
closed = 0;
nodes = (
(568,0,l),
(648,0,o),
(688,40,o),
(688,120,cs),
(688,1000,ls)
);
},
{
closed = 0;
nodes = (
(248,820,l),
(248,752,o),
(196,700,o),
(130,700,cs,{
name = instroke_raise;
}),
(0,700,l)
);
},
{
closed = 0;
nodes = (
(568,-400,l),
(648,-400,o),
(688,-360,o),
(688,-280,cs),
(688,480,ls)
);
},
{
closed = 0;
nodes = (
(348,-400,l),
(568,-400,ls)
);
},
{
closed = 0;
nodes = (
(248,1000,l),
(248,120,ls),
(248,40,o),
(288,0,o),
(368,0,cs),
(568,0,ls)
);
}
);
width = 888;
}
);
},
{
color = 6;
glyphname = z.high.fina;
lastChange = "2021-04-27 13:07:32 +0000";
layers = (
{
anchors = (
{
name = bottom;
pos = (394,0);
},
{
name = center;
pos = (394,500);
},
{
name = top;
pos = (394,1000);
}
);
layerId = m003;
shapes = (
{
closed = 0;
nodes = (
(0,700,l),
(30,700,ls,{
name = instroke_raise;
}),
(94,700,o),
(148,752,o),
(148,820,cs,{
name = instroke_raise;
}),
(148,880,ls),
(148,960,o),
(188,1000,o),
(268,1000,cs),
(436,1000,ls),
(506,1000,o),
(560,960,o),
(542,880,cs),
(434,400,l),
(548,400,l),
(628,400,o),
(672,360,o),
(668,280,cs),
(622,-500,l)
);
}
);
width = 818;
}
);
},
{
glyphname = zero;
lastChange = "2021-04-27 13:07:32 +0000";
layers = (
{
anchors = (
{
name = bottom;
pos = (430,0);
},
{
name = center;
pos = (430,500);
},
{
name = ogonek;
pos = (812,20);
},
{
name = top;
pos = (430,1000);
},
{
name = topright;
pos = (868,1000);
}
);
layerId = m003;
shapes = (
{
closed = 1;
nodes = (
(760,0,o),
(800,40,o),
(800,120,cs),
(800,1080,ls),
(800,1160,o),
(760,1200,o),
(680,1200,cs),
(320,1200,ls),
(240,1200,o),
(200,1160,o),
(200,1080,cs),
(200,120,ls),
(200,40,o),
(240,0,o),
(320,0,cs),
(680,0,ls)
);
}
);
width = 1000;
}
);
unicode = 48;
},
{
glyphname = one;
lastChange = "2021-04-27 13:07:32 +0000";
layers = (
{
layerId = m003;
shapes = (
{
closed = 0;
nodes = (
(80,1200,l),
(210,1200,ls,{
name = instroke_raise;
}),
(276,1200,o),
(328,1148,o),
(328,1080,cs),
(328,0,ls,{
name = "instroke_raise,outstroke_raise";
})
);
}
);
width = 560;
}
);
unicode = 49;
},
{
glyphname = two;
lastChange = "2021-04-27 13:07:32 +0000";
layers = (
{
layerId = m003;
shapes = (
{
closed = 0;
nodes = (
(760,0,l),
(280,0,l),
(160,0,l),
(160,280,ls),
(160,360,o),
(200,416,o),
(280,440,cs),
(620,540,ls),
(700,564,o),
(740,620,o),
(740,700,cs),
(740,1080,ls),
(740,1160,o),
(700,1200,o),
(620,1200,cs),
(300,1200,ls),
(220,1200,o),
(188,1160,o),
(180,1080,cs),
(162,888,l)
);
}
);
width = 920;
}
);
unicode = 50;
},
{
glyphname = three;
lastChange = "2021-04-27 13:07:32 +0000";
layers = (
{
layerId = m003;
shapes = (
{
closed = 0;
nodes = (
(280,568,l),
(658,568,ls),
(732,568,o),
(778,522,o),
(778,448,cs),
(778,-80,ls),
(778,-154,o),
(732,-200,o),
(658,-200,cs),
(280,-200,ls),
(206,-200,o),
(160,-154,o),
(160,-80,cs),
(160,72,l)
);
},
{
closed = 0;
nodes = (
(200,888,l),
(220,1080,ls),
(228,1154,o),
(266,1200,o),
(340,1200,cs),
(588,1200,ls),
(662,1200,o),
(716,1154,o),
(708,1080,cs),
(658,568,l)
);
}
);
width = 958;
}
);
unicode = 51;
},
{
glyphname = four;
lastChange = "2021-04-27 13:07:32 +0000";
layers = (
{
layerId = m003;
shapes = (
{
closed = 0;
nodes = (
(300,1200,ls,{
name = "instroke_raise,outstroke_raise";
}),
(180,320,ls),
(170,244,o),
(208,200,o),
(298,200,cs,{
name = instroke_raise;
}),
(908,200,l)
);
},
{
closed = 0;
nodes = (
(716,-200,l),
(716,1200,l)
);
}
);
width = 1048;
}
);
unicode = 52;
},
{
glyphname = five;
lastChange = "2021-04-27 13:07:32 +0000";
layers = (
{
layerId = m003;
shapes = (
{
closed = 0;
nodes = (
(740,1200,l),
(180,1200,l),
(180,720,l),
(640,720,ls),
(720,720,o),
(760,680,o),
(760,600,cs),
(760,-60,ls),
(760,-140,o),
(720,-180,o),
(640,-180,cs),
(280,-180,ls),
(200,-180,o),
(160,-140,o),
(160,-60,cs),
(160,154,l)
);
}
);
width = 920;
}
);
unicode = 53;
},
{
glyphname = six;
lastChange = "2021-04-27 13:07:32 +0000";
layers = (
{
layerId = m003;
shapes = (
{
closed = 0;
nodes = (
(200,700,ls),
(200,780,o),
(240,820,o),
(320,820,cs),
(680,820,ls),
(760,820,o),
(800,780,o),
(800,700,cs),
(800,120,ls),
(800,40,o),
(760,0,o),
(680,0,cs),
(320,0,ls),
(240,0,o),
(200,40,o),
(200,120,cs),
(200,1280,ls),
(200,1360,o),
(240,1400,o),
(320,1400,cs),
(640,1400,ls),
(720,1400,o),
(764,1360,o),
(760,1280,cs),
(748,1084,l)
);
}
);
width = 980;
}
);
metricLeft = "=zero";
metricRight = "=zero-10";
unicode = 54;
},
{
glyphname = seven;
lastChange = "2021-04-27 13:07:32 +0000";
layers = (
{
layerId = m003;
shapes = (
{
closed = 0;
nodes = (
(320,-200,l),
(320,80,ls),
(320,160,o),
(370,196,o),
(440,240,cs),
(600,340,ls),
(670,384,o),
(720,420,o),
(720,500,cs),
(720,1080,ls),
(720,1160,o),
(680,1200,o),
(600,1200,cs),
(240,1200,ls),
(160,1200,o),
(120,1160,o),
(120,1080,cs),
(120,840,l)
);
}
);
width = 880;
}
);
unicode = 55;
},
{
glyphname = eight;
lastChange = "2021-04-27 13:07:32 +0000";
layers = (
{
layerId = m003;
shapes = (
{
closed = 1;
nodes = (
(180,120,ls),
(180,46,o),
(226,0,o),
(300,0,cs),
(678,0,ls),
(752,0,o),
(798,46,o),
(798,120,cs),
(798,648,ls),
(798,722,o),
(752,768,o),
(678,768,cs),
(300,768,ls),
(226,768,o),
(180,722,o),
(180,648,cs)
);
},
{
closed = 0;
nodes = (
(306,768,l),
(306,1280,ls),
(306,1354,o),
(352,1400,o),
(426,1400,cs),
(600,1400,ls),
(674,1400,o),
(728,1354,o),
(720,1280,cs),
(670,768,l)
);
}
);
width = 978;
}
);
unicode = 56;
},
{
glyphname = nine;
lastChange = "2021-04-27 13:07:32 +0000";
layers = (
{
layerId = m003;
shapes = (
{
closed = 0;
nodes = (
(780,500,ls),
(780,420,o),
(740,380,o),
(660,380,cs),
(300,380,ls),
(220,380,o),
(180,420,o),
(180,500,cs),
(180,1080,ls),
(180,1160,o),
(220,1200,o),
(300,1200,cs),
(660,1200,ls),
(740,1200,o),
(780,1160,o),
(780,1080,cs),
(780,-80,ls),
(780,-160,o),
(740,-200,o),
(660,-200,cs),
(340,-200,ls),
(260,-200,o),
(210,-160,o),
(220,-80,cs),
(240,96,l)
);
}
);
width = 980;
}
);
metricLeft = "=zero-10";
metricRight = "=zero";
unicode = 57;
},
{
glyphname = period;
kernLeft = period;
kernRight = period;
lastChange = "2021-04-27 13:07:32 +0000";
layers = (
{
layerId = m003;
shapes = (
{
closed = 0;
nodes = (
(248,180,l),
(248,0,l)
);
}
);
width = 496;
}
);
metricRight = "=|";
unicode = 46;
},
{
glyphname = comma;
lastChange = "2021-04-27 13:07:32 +0000";
layers = (
{
layerId = m003;
shapes = (
{
closed = 0;
nodes = (
(192,180,l),
(196,180,ls),
(264,180,o),
(296,122,o),
(278,52,cs),
(228,-140,l)
);
}
);
width = 496;
}
);
metricWidth = "=period";
unicode = 44;
},
{
glyphname = exclam;
lastChange = "2021-04-27 13:07:32 +0000";
layers = (
{
layerId = m003;
shapes = (
{
closed = 0;
nodes = (
(268,180,l),
(268,0,l)
);
},
{
closed = 0;
nodes = (
(268,1400,l),
(268,500,l)
);
}
);
width = 536;
}
);
metricRight = "=|";
unicode = 33;
},
{
glyphname = exclamdown;
lastChange = "2021-04-27 13:07:32 +0000";
layers = (
{
layerId = m003;
shapes = (
{
closed = 0;
nodes = (
(268,1000,l),
(268,820,l)
);
},
{
closed = 0;
nodes = (
(268,500,l),
(268,-400,l)
);
}
);
width = 536;
}
);
unicode = 161;
},
{
glyphname = question;
lastChange = "2021-04-27 13:07:32 +0000";
layers = (
{
layerId = m003;
shapes = (
{
closed = 0;
nodes = (
(360,500,l),
(360,580,ls),
(360,660,o),
(392,686,o),
(460,740,cs),
(558,820,ls),
(626,874,o),
(660,920,o),
(660,1000,cs),
(660,1280,ls),
(660,1360,o),
(620,1400,o),
(540,1400,cs),
(280,1400,ls),
(200,1400,o),
(160,1360,o),
(160,1280,cs),
(160,1040,l)
);
},
{
closed = 0;
nodes = (
(360,180,l),
(360,0,l)
);
}
);
width = 820;
}
);
unicode = 63;
},
{
glyphname = questiondown;
lastChange = "2021-04-27 13:07:32 +0000";
layers = (
{
layerId = m003;
shapes = (
{
closed = 0;
nodes = (
(460,500,l),
(460,420,ls),
(460,340,o),
(428,314,o),
(360,260,cs),
(262,180,ls),
(194,126,o),
(160,80,o),
(160,0,cs),
(160,-280,ls),
(160,-360,o),
(200,-400,o),
(280,-400,cs),
(540,-400,ls),
(620,-400,o),
(660,-360,o),
(660,-280,cs),
(660,-40,l)
);
},
{
closed = 0;
nodes = (
(460,1000,l),
(460,820,l)
);
}
);
width = 820;
}
);
unicode = 191;
},
{
glyphname = bullet;
lastChange = "2021-04-27 13:07:32 +0000";
layers = (
{
layerId = m003;
shapes = (
{
closed = 0;
nodes = (
(248,640,l),
(248,340,l)
);
},
{
closed = 0;
nodes = (
(448,640,l),
(448,340,l)
);
}
);
width = 696;
}
);
metricRight = "=|";
unicode = 8226;
},
{
glyphname = asterisk;
lastChange = "2021-04-27 13:07:32 +0000";
layers = (
{
layerId = m003;
shapes = (
{
closed = 0;
nodes = (
(530,1500,l),
(530,1120,l),
(200,930,l)
);
},
{
closed = 0;
nodes = (
(200,1310,l),
(530,1120,l),
(862,1310,l)
);
},
{
closed = 0;
nodes = (
(200,1310,l),
(530,1120,l),
(862,1310,l)
);
},
{
closed = 0;
nodes = (
(842,930,l),
(530,1120,l),
(530,1120,l),
(200,930,l)
);
},
{
closed = 0;
nodes = (
(530,1120,l),
(530,740,l)
);
}
);
width = 1062;
}
);
unicode = 42;
},
{
glyphname = numbersign;
lastChange = "2021-04-27 13:07:32 +0000";
layers = (
{
layerId = m003;
shapes = (
{
closed = 0;
nodes = (
(288,0,l),
(646,1200,l)
);
},
{
closed = 0;
nodes = (
(688,0,l),
(1046,1200,l)
);
},
{
closed = 0;
nodes = (
(348,876,l),
(1150,876,l)
);
},
{
closed = 0;
nodes = (
(200,382,l),
(1002,382,l)
);
}
);
width = 1350;
}
);
unicode = 35;
},
{
glyphname = slash;
lastChange = "2021-04-27 13:07:32 +0000";
layers = (
{
layerId = m003;
shapes = (
{
closed = 0;
nodes = (
(514,1500,l),
(200,-240,l)
);
}
);
width = 714;
}
);
unicode = 47;
},
{
glyphname = backslash;
lastChange = "2021-04-27 13:07:32 +0000";
layers = (
{
layerId = m003;
shapes = (
{
closed = 0;
nodes = (
(200,1500,l),
(514,-240,l)
);
}
);
width = 714;
}
);
unicode = 92;
},
{
glyphname = hyphen;
kernLeft = hyphen;
kernRight = hyphen;
lastChange = "2021-04-27 13:07:32 +0000";
layers = (
{
layerId = m003;
shapes = (
{
closed = 0;
nodes = (
(200,478,l),
(558,478,l)
);
}
);
width = 758;
}
);
unicode = 45;
},
{
glyphname = endash;
lastChange = "2021-04-27 13:07:32 +0000";
layers = (
{
layerId = m003;
shapes = (
{
closed = 0;
nodes = (
(200,478,l),
(758,478,l)
);
}
);
width = 958;
}
);
metricLeft = hyphen;
metricRight = "=|";
unicode = 8211;
},
{
glyphname = emdash;
lastChange = "2021-04-27 13:07:32 +0000";
layers = (
{
layerId = m003;
shapes = (
{
closed = 0;
nodes = (
(200,478,l),
(1158,478,l)
);
}
);
width = 1358;
}
);
metricLeft = hyphen;
metricRight = "=|";
unicode = 8212;
},
{
glyphname = underscore;
lastChange = "2021-04-27 13:07:32 +0000";
layers = (
{
layerId = m003;
shapes = (
{
closed = 0;
nodes = (
(100,-240,l),
(658,-240,l)
);
}
);
width = 758;
}
);
metricLeft = "=endash";
metricRight = "=endash";
unicode = 95;
},
{
glyphname = parenleft;
lastChange = "2021-04-27 13:07:32 +0000";
layers = (
{
layerId = m003;
shapes = (
{
closed = 0;
nodes = (
(520,1500,l),
(420,1500,ls),
(340,1500,o),
(300,1460,o),
(300,1380,cs),
(300,-280,ls),
(300,-360,o),
(340,-400,o),
(420,-400,cs),
(540,-400,l)
);
}
);
width = 740;
}
);
unicode = 40;
},
{
glyphname = parenright;
lastChange = "2021-04-27 13:07:32 +0000";
layers = (
{
layerId = m003;
shapes = (
{
closed = 0;
nodes = (
(220,1500,l),
(320,1500,ls),
(400,1500,o),
(440,1460,o),
(440,1380,cs),
(440,-280,ls),
(440,-360,o),
(400,-400,o),
(320,-400,cs),
(200,-400,l)
);
}
);
width = 740;
}
);
metricLeft = "=|parenleft";
metricRight = "=|parenleft";
unicode = 41;
},
{
glyphname = braceleft;
lastChange = "2021-04-27 13:07:32 +0000";
layers = (
{
layerId = m003;
shapes = (
{
closed = 0;
nodes = (
(600,1500,l),
(500,1500,ls),
(420,1500,o),
(380,1460,o),
(380,1380,cs),
(380,670,ls),
(380,590,o),
(340,550,o),
(260,550,cs)
);
},
{
closed = 0;
nodes = (
(200,550,l),
(260,550,ls),
(340,550,o),
(380,510,o),
(380,430,cs),
(380,-280,ls),
(380,-360,o),
(420,-400,o),
(500,-400,cs),
(620,-400,l)
);
}
);
width = 820;
}
);
unicode = 123;
},
{
glyphname = braceright;
lastChange = "2021-04-27 13:07:32 +0000";
layers = (
{
layerId = m003;
shapes = (
{
closed = 0;
nodes = (
(220,1500,l),
(320,1500,ls),
(400,1500,o),
(440,1460,o),
(440,1380,cs),
(440,670,ls),
(440,590,o),
(480,550,o),
(560,550,cs)
);
},
{
closed = 0;
nodes = (
(620,550,l),
(560,550,ls),
(480,550,o),
(440,510,o),
(440,430,cs),
(440,-280,ls),
(440,-360,o),
(400,-400,o),
(320,-400,cs),
(200,-400,l)
);
}
);
width = 820;
}
);
metricLeft = "=|braceleft";
metricRight = "=|braceright";
unicode = 125;
},
{
glyphname = bracketleft;
lastChange = "2021-04-27 13:07:32 +0000";
layers = (
{
layerId = m003;
shapes = (
{
closed = 0;
nodes = (
(520,1500,l),
(300,1500,l),
(300,-400,l),
(540,-400,l)
);
}
);
width = 740;
}
);
metricLeft = parenleft;
metricRight = parenleft;
unicode = 91;
},
{
glyphname = bracketright;
lastChange = "2021-04-27 13:07:32 +0000";
layers = (
{
layerId = m003;
shapes = (
{
closed = 0;
nodes = (
(220,1500,l),
(440,1500,l),
(440,-400,l),
(200,-400,l)
);
}
);
width = 740;
}
);
metricLeft = parenright;
metricRight = parenright;
unicode = 93;
},
{
glyphname = quoteleft;
kernLeft = quote;
kernRight = quote;
lastChange = "2021-04-27 13:07:32 +0000";
layers = (
{
layerId = m003;
shapes = (
{
closed = 0;
nodes = (
(304,1180,l),
(300,1180,ls),
(232,1180,o),
(200,1238,o),
(218,1308,cs),
(268,1500,l)
);
}
);
width = 496;
}
);
unicode = 8216;
},
{
glyphname = guilsinglleft;
lastChange = "2021-04-27 13:07:32 +0000";
layers = (
{
layerId = m003;
shapes = (
{
closed = 0;
nodes = (
(320,840,l),
(320,720,ls),
(320,640,o),
(280,600,o),
(200,600,cs),
(100,600,l),
(200,600,ls),
(280,600,o),
(320,560,o),
(320,480,cs),
(320,360,l)
);
}
);
width = 420;
}
);
unicode = 8249;
},
{
glyphname = guilsinglright;
lastChange = "2021-04-27 13:07:32 +0000";
layers = (
{
layerId = m003;
shapes = (
{
closed = 0;
nodes = (
(100,840,l),
(100,720,ls),
(100,640,o),
(140,600,o),
(220,600,cs),
(320,600,l),
(220,600,ls),
(140,600,o),
(100,560,o),
(100,480,cs),
(100,360,l)
);
}
);
width = 420;
}
);
unicode = 8250;
},
{
glyphname = quotesingle;
kernLeft = quote;
kernRight = quote;
lastChange = "2021-04-27 13:07:32 +0000";
layers = (
{
layerId = m003;
shapes = (
{
closed = 0;
nodes = (
(210,1500,l),
(170,1180,l)
);
}
);
width = 380;
}
);
unicode = 39;
},
{
glyphname = at;
lastChange = "2021-04-27 13:07:32 +0000";
layers = (
{
layerId = m003;
shapes = (
{
closed = 0;
nodes = (
(870,700,l),
(870,930,l,{
name = stub;
})
);
},
{
closed = 1;
nodes = (
(830,0,o),
(870,40,o),
(870,120,cs),
(870,700,ls),
(870,780,o),
(830,820,o),
(750,820,cs),
(630,820,ls),
(546,820,o),
(510,780,o),
(510,700,cs),
(510,120,ls),
(510,40,o),
(550,0,o),
(630,0,cs),
(750,0,ls)
);
},
{
closed = 0;
nodes = (
(832,-300,l),
(370,-300,ls),
(290,-300,o),
(250,-260,o),
(250,-180,cs),
(250,1080,ls),
(250,1160,o),
(286,1200,o),
(370,1200,cs),
(1028,1200,ls),
(1108,1200,o),
(1148,1160,o),
(1148,1080,cs),
(1148,120,ls),
(1148,40,o),
(1094,0,o),
(1028,0,c,{
name = instroke_raise;
}),
(988,0,ls,{
name = instroke_raise;
}),
(924,0,o),
(870,40,o),
(870,120,c)
);
}
);
width = 1398;
}
);
unicode = 64;
},
{
glyphname = ampersand;
lastChange = "2021-04-27 13:07:32 +0000";
layers = (
{
anchors = (
{
name = bottom;
pos = (490,0);
},
{
name = ogonek;
pos = (960,20);
},
{
name = top;
pos = (490,1400);
},
{
name = topleft;
pos = (-60,1400);
}
);
layerId = m003;
shapes = (
{
closed = 0;
nodes = (
(460,480,l),
(320,480,l),
(244,480,o),
(200,436,o),
(200,360,cs),
(200,100,ls),
(200,24,o),
(244,-20,o),
(320,-20,c),
(560,-20,l),
(682,-20,o),
(740,50,o),
(750,170,cs),
(764,336,l)
);
},
{
closed = 0;
nodes = (
(756,638,l),
(790,1000,ls),
(798,1076,o),
(756,1120,o),
(670,1120,cs),
(400,1120,ls),
(324,1120,o),
(280,1076,o),
(280,1000,cs),
(280,600,l),
(280,524,o),
(324,480,o),
(400,480,c)
);
},
{
closed = 0;
nodes = (
(518,1500,l),
(518,1320,l)
);
},
{
closed = 0;
nodes = (
(508,-220,l),
(508,-400,l)
);
}
);
width = 990;
}
);
unicode = 38;
},
{
glyphname = paragraph;
lastChange = "2021-04-27 13:07:32 +0000";
layers = (
{
layerId = m003;
shapes = (
{
closed = 0;
nodes = (
(360,1400,ls),
(280,1400,o),
(246,1360,o),
(240,1280,cs),
(180,340,ls),
(174,260,o),
(220,220,o),
(300,220,c),
(810,220,l),
(810,1400,l),
(360,1400,l)
);
},
{
closed = 0;
nodes = (
(810,220,l),
(810,-280,ls),
(810,-360,o),
(770,-400,o),
(690,-400,cs),
(370,-400,ls),
(290,-400,o),
(250,-360,o),
(250,-280,cs)
);
}
);
width = 1060;
}
);
unicode = 182;
},
{
glyphname = section;
lastChange = "2021-04-27 13:07:32 +0000";
layers = (
{
layerId = m003;
shapes = (
{
closed = 0;
nodes = (
(730,1280,ls),
(740,1360,o),
(690,1400,o),
(610,1400,cs),
(290,1400,ls),
(210,1400,o),
(180,1360,o),
(170,1280,cs),
(130,960,ls),
(120,880,o),
(170,840,o),
(250,840,cs),
(550,840,ls),
(636,840,o),
(698,776,o),
(680,672,cs),
(590,160,l)
);
},
{
closed = 0;
nodes = (
(250,840,l),
(150,300,ls),
(132,204,o),
(190,160,o),
(270,160,cs),
(590,160,l),
(670,160,o),
(710,120,o),
(710,40,c),
(670,-280,ls),
(660,-360,o),
(630,-400,o),
(550,-400,cs),
(250,-400,ls),
(170,-400,o),
(130,-360,o),
(130,-280,c)
);
}
);
width = 900;
}
);
unicode = 167;
},
{
glyphname = copyright;
lastChange = "2021-04-27 13:07:32 +0000";
layers = (
{
anchors = (
{
name = bottom;
pos = (678,0);
},
{
name = center;
pos = (678,500);
},
{
name = ogonek;
pos = (1060,20);
},
{
name = top;
pos = (800,1000);
},
{
name = topright;
pos = (896,1000);
}
);
layerId = m003;
shapes = (
{
pos = (180,12);
ref = c.isol;
},
{
closed = 1;
nodes = (
(1048,-154,ls),
(1048,-234,o),
(1012,-274,o),
(928,-274,cs),
(270,-274,ls),
(190,-274,o),
(150,-234,o),
(150,-154,cs),
(150,1180,ls),
(150,1260,o),
(186,1300,o),
(270,1300,cs),
(928,1300,ls),
(1008,1300,o),
(1048,1260,o),
(1048,1180,cs)
);
}
);
width = 1198;
}
);
unicode = 169;
},
{
glyphname = registered;
lastChange = "2021-04-27 13:07:32 +0000";
layers = (
{
layerId = m003;
shapes = (
{
closed = 0;
nodes = (
(410,926,l),
(436,1218,ls),
(438,1244,o),
(422,1258,o),
(394,1258,c),
(282,1258,l),
(282,926,l)
);
},
{
closed = 0;
nodes = (
(450,730,l),
(450,884,ls),
(450,912,o),
(436,926,o),
(408,926,cs),
(282,926,l),
(282,730,l)
);
},
{
closed = 1;
nodes = (
(600,674,ls),
(600,612,o),
(572,582,o),
(508,582,cs),
(220,582,ls),
(160,582,o),
(130,612,o),
(130,674,cs),
(130,1308,ls),
(130,1370,o),
(156,1400,o),
(220,1400,cs),
(508,1400,ls),
(570,1400,o),
(600,1370,o),
(600,1308,cs)
);
}
);
width = 730;
}
);
unicode = 174;
},
{
glyphname = trademark;
lastChange = "2021-04-27 13:07:32 +0000";
layers = (
{
anchors = (
{
name = bottom;
pos = (258,-94);
},
{
name = center;
pos = (258,276);
},
{
name = top;
pos = (258,554);
}
);
layerId = m003;
shapes = (
{
closed = 0;
nodes = (
(202,752,l),
(298,752,l)
);
},
{
closed = 0;
nodes = (
(100,1234,l),
(100,1352,ls),
(100,1384,o),
(116,1400,o),
(146,1400,cs),
(234,1400,l),
(448,1400,l),
(722,1400,l),
(820,1400,ls),
(852,1400,o),
(868,1384,o),
(868,1352,cs),
(868,752,l)
);
},
{
closed = 0;
nodes = (
(298,752,l),
(328,752,o),
(344,766,o),
(344,798,cs),
(344,1352,ls),
(344,1384,o),
(360,1400,o),
(392,1400,c)
);
},
{
closed = 0;
nodes = (
(642,1400,l),
(642,752,l)
);
},
{
closed = 0;
nodes = (
(1094,752,l),
(1094,1352,ls),
(1094,1384,o),
(1078,1400,o),
(1046,1400,cs),
(914,1400,l),
(884,1400,o),
(868,1384,o),
(868,1352,c)
);
}
);
width = 1194;
}
);
unicode = 8482;
},
{
glyphname = degree;
lastChange = "2021-04-27 13:07:32 +0000";
layers = (
{
layerId = m003;
shapes = (
{
closed = 1;
nodes = (
(454,868,o),
(476,890,o),
(476,932,cs),
(476,1336,ls),
(476,1378,o),
(454,1400,o),
(412,1400,cs),
(224,1400,ls),
(182,1400,o),
(160,1378,o),
(160,1336,cs),
(160,932,ls),
(160,890,o),
(182,868,o),
(224,868,cs),
(412,868,ls)
);
}
);
width = 636;
}
);
metricRight = "=|";
unicode = 176;
},
{
glyphname = bar;
lastChange = "2021-04-27 13:07:32 +0000";
layers = (
{
layerId = m003;
shapes = (
{
closed = 0;
nodes = (
(240,1500,l),
(240,-240,l)
);
}
);
width = 480;
}
);
unicode = 124;
},
{
glyphname = brokenbar;
lastChange = "2021-04-27 13:07:32 +0000";
layers = (
{
layerId = m003;
shapes = (
{
closed = 0;
nodes = (
(240,1500,l),
(240,810,l)
);
},
{
closed = 0;
nodes = (
(240,450,l),
(240,-240,l)
);
}
);
width = 480;
}
);
metricWidth = "=bar";
unicode = 166;
},
{
glyphname = dagger;
lastChange = "2021-04-27 13:07:32 +0000";
layers = (
{
layerId = m003;
shapes = (
{
closed = 0;
nodes = (
(430,1500,l),
(430,660,l)
);
},
{
closed = 0;
nodes = (
(660,1180,ls),
(660,1260,o),
(620,1300,o),
(540,1300,cs),
(320,1300,ls),
(240,1300,o),
(200,1260,o),
(200,1180,cs)
);
}
);
width = 860;
}
);
unicode = 8224;
},
{
glyphname = daggerdbl;
lastChange = "2021-04-27 13:07:32 +0000";
layers = (
{
guides = (
{
pos = (212,557);
showMeasurement = 1;
}
);
layerId = m003;
shapes = (
{
closed = 0;
nodes = (
(430,1500,l),
(430,580,l)
);
},
{
closed = 0;
nodes = (
(660,1180,ls),
(660,1260,o),
(620,1300,o),
(540,1300,cs),
(320,1300,ls),
(240,1300,o),
(200,1260,o),
(200,1180,cs)
);
},
{
closed = 0;
nodes = (
(200,900,ls),
(200,820,o),
(240,780,o),
(320,780,cs),
(540,780,ls),
(620,780,o),
(660,820,o),
(660,900,cs)
);
}
);
width = 860;
}
);
metricWidth = "=dagger";
unicode = 8225;
},
{
glyphname = cent;
lastChange = "2021-04-27 13:07:32 +0000";
layers = (
{
layerId = m003;
shapes = (
{
closed = 0;
nodes = (
(640,580,l),
(680,880,ls),
(690,960,o),
(640,1000,o),
(560,1000,cs),
(320,1000,ls),
(240,1000,o),
(200,960,o),
(200,880,cs),
(200,120,ls),
(200,52,o),
(248,0,o),
(320,0,c),
(320,0,o),
(560,0,o),
(560,0,c),
(632,0,o),
(680,52,o),
(680,120,c),
(680,220,l)
);
},
{
closed = 0;
nodes = (
(436,1200,l),
(436,-212,l)
);
}
);
width = 842;
}
);
unicode = 162;
},
{
glyphname = dollar;
lastChange = "2021-04-27 13:07:32 +0000";
layers = (
{
anchors = (
{
name = bottom;
pos = (480,-240);
},
{
name = top;
pos = (504,1400);
}
);
layerId = m003;
shapes = (
{
closed = 0;
nodes = (
(750,780,l),
(790,1080,ls),
(800,1160,o),
(750,1200,o),
(670,1200,cs),
(290,1200,ls),
(210,1200,o),
(170,1160,o),
(170,1080,cs),
(170,600,ls),
(170,520,o),
(210,480,o),
(290,480,cs),
(650,480,l),
(730,480,o),
(770,440,o),
(770,360,c),
(770,120,ls),
(770,40,o),
(730,0,o),
(650,0,cs),
(290,0,ls),
(210,0,o),
(170,40,o),
(170,120,cs)
);
},
{
closed = 0;
nodes = (
(470,1366,l),
(470,-172,l)
);
}
);
width = 962;
}
);
unicode = 36;
},
{
glyphname = euro;
lastChange = "2021-04-27 13:07:32 +0000";
layers = (
{
layerId = m003;
shapes = (
{
closed = 0;
nodes = (
(760,700,l),
(810,1080,ls),
(820,1160,o),
(770,1200,o),
(690,1200,cs),
(370,1200,ls),
(290,1200,o),
(250,1160,o),
(250,1080,cs),
(250,120,ls),
(250,40,o),
(290,0,o),
(370,0,cs),
(690,0,ls),
(770,0,o),
(810,40,o),
(810,120,cs),
(810,310,l)
);
},
{
closed = 0;
nodes = (
(140,478,l),
(538,478,l)
);
},
{
closed = 0;
nodes = (
(140,778,l),
(538,778,l)
);
}
);
width = 992;
}
);
unicode = 8364;
},
{
glyphname = sterling;
lastChange = "2021-04-27 13:07:32 +0000";
layers = (
{
layerId = m003;
shapes = (
{
closed = 0;
nodes = (
(68,0,l),
(768,0,ls),
(848,0,o),
(888,40,o),
(888,120,cs),
(888,420,ls)
);
},
{
closed = 0;
nodes = (
(568,1200,l),
(408,1200,l),
(328,1200,o),
(288,1160,o),
(288,1080,cs),
(288,120,ls),
(288,40,o),
(248,0,o),
(168,0,c)
);
},
{
closed = 0;
nodes = (
(68,600,l),
(630,600,l)
);
}
);
width = 1038;
}
);
unicode = 163;
},
{
glyphname = yen;
lastChange = "2021-04-27 13:07:32 +0000";
layers = (
{
layerId = m003;
shapes = (
{
closed = 0;
nodes = (
(612,440,l),
(692,440,o),
(732,480,o),
(732,560,cs),
(732,1200,ls)
);
},
{
closed = 0;
nodes = (
(212,1200,l),
(132,560,ls),
(122,480,o),
(172,440,o),
(252,440,cs),
(612,440,l)
);
},
{
closed = 0;
nodes = (
(440,0,l),
(440,440,l)
);
},
{
closed = 0;
nodes = (
(248,196,l),
(646,196,l)
);
}
);
width = 862;
}
);
unicode = 165;
},
{
glyphname = plus;
lastChange = "2021-04-27 13:07:32 +0000";
layers = (
{
layerId = m003;
shapes = (
{
closed = 0;
nodes = (
(538,1000,l),
(540,200,l)
);
},
{
closed = 0;
nodes = (
(940,600,l),
(140,600,l)
);
}
);
width = 1080;
}
);
unicode = 43;
},
{
glyphname = minus;
lastChange = "2021-04-27 13:07:32 +0000";
layers = (
{
layerId = m003;
shapes = (
{
closed = 0;
nodes = (
(940,600,l),
(140,600,l)
);
}
);
width = 1080;
}
);
metricWidth = "=plus";
unicode = 8722;
},
{
glyphname = multiply;
lastChange = "2021-04-27 13:07:32 +0000";
layers = (
{
layerId = m003;
shapes = (
{
closed = 0;
nodes = (
(882,942,l),
(198,258,l)
);
},
{
closed = 0;
nodes = (
(882,258,l),
(198,942,l)
);
}
);
width = 1080;
}
);
metricWidth = "=plus";
unicode = 215;
},
{
glyphname = divide;
lastChange = "2021-04-27 13:07:32 +0000";
layers = (
{
layerId = m003;
shapes = (
{
closed = 0;
nodes = (
(540,1040,l),
(540,840,l)
);
},
{
closed = 0;
nodes = (
(940,600,l),
(140,600,l)
);
},
{
closed = 0;
nodes = (
(540,360,l),
(540,160,l)
);
}
);
width = 1080;
}
);
metricWidth = "=plus";
unicode = 247;
},
{
glyphname = equal;
lastChange = "2021-04-27 13:07:32 +0000";
layers = (
{
layerId = m003;
shapes = (
{
closed = 0;
nodes = (
(940,800,l),
(140,800,l)
);
},
{
closed = 0;
nodes = (
(940,400,l),
(140,400,l)
);
}
);
width = 1080;
}
);
metricWidth = "=plus";
unicode = 61;
},
{
glyphname = greater;
lastChange = "2021-04-27 13:07:32 +0000";
layers = (
{
layerId = m003;
shapes = (
{
closed = 0;
nodes = (
(198,216,l),
(882,600,l),
(198,980,l)
);
}
);
width = 1080;
}
);
unicode = 62;
},
{
glyphname = less;
lastChange = "2021-04-27 13:07:32 +0000";
layers = (
{
layerId = m003;
shapes = (
{
closed = 0;
nodes = (
(882,216,l),
(198,596,l),
(882,980,l)
);
}
);
width = 1080;
}
);
unicode = 60;
},
{
glyphname = asciitilde;
lastChange = "2021-04-27 13:07:32 +0000";
layers = (
{
layerId = m003;
shapes = (
{
closed = 0;
nodes = (
(940,620,l),
(634,340,o),
(446,860,o),
(140,580,c)
);
}
);
width = 1080;
}
);
metricWidth = "=plus";
unicode = 126;
},
{
glyphname = asciicircum;
lastChange = "2021-04-27 13:07:32 +0000";
layers = (
{
layerId = m003;
shapes = (
{
closed = 0;
nodes = (
(922,716,l),
(538,1400,l),
(158,716,l)
);
}
);
width = 1080;
}
);
metricWidth = "=plus";
unicode = 94;
},
{
glyphname = percent;
lastChange = "2021-04-27 13:07:32 +0000";
layers = (
{
layerId = m003;
shapes = (
{
closed = 1;
nodes = (
(454,668,o),
(476,690,o),
(476,732,cs),
(476,1136,ls),
(476,1178,o),
(454,1200,o),
(412,1200,cs),
(224,1200,ls),
(182,1200,o),
(160,1178,o),
(160,1136,cs),
(160,732,ls),
(160,690,o),
(182,668,o),
(224,668,cs),
(412,668,ls)
);
},
{
closed = 0;
nodes = (
(994,1200,l),
(280,0,l)
);
},
{
closed = 1;
nodes = (
(1074,0,o),
(1096,22,o),
(1096,64,cs),
(1096,468,ls),
(1096,510,o),
(1074,532,o),
(1032,532,cs),
(844,532,ls),
(802,532,o),
(780,510,o),
(780,468,cs),
(780,64,ls),
(780,22,o),
(802,0,o),
(844,0,cs),
(1032,0,ls)
);
}
);
width = 1256;
}
);
unicode = 37;
},
{
glyphname = perthousand;
lastChange = "2021-04-27 13:07:32 +0000";
layers = (
{
layerId = m003;
shapes = (
{
closed = 1;
nodes = (
(454,668,o),
(476,690,o),
(476,732,cs),
(476,1136,ls),
(476,1178,o),
(454,1200,o),
(412,1200,cs),
(224,1200,ls),
(182,1200,o),
(160,1178,o),
(160,1136,cs),
(160,732,ls),
(160,690,o),
(182,668,o),
(224,668,cs),
(412,668,ls)
);
},
{
closed = 0;
nodes = (
(994,1200,l),
(280,0,l)
);
},
{
closed = 1;
nodes = (
(1074,0,o),
(1096,22,o),
(1096,64,cs),
(1096,468,ls),
(1096,510,o),
(1074,532,o),
(1032,532,cs),
(844,532,ls),
(802,532,o),
(780,510,o),
(780,468,cs),
(780,64,ls),
(780,22,o),
(802,0,o),
(844,0,cs),
(1032,0,ls)
);
},
{
closed = 1;
nodes = (
(1594,0,o),
(1616,22,o),
(1616,64,cs),
(1616,468,ls),
(1616,510,o),
(1594,532,o),
(1552,532,cs),
(1364,532,ls),
(1322,532,o),
(1300,510,o),
(1300,468,cs),
(1300,64,ls),
(1300,22,o),
(1322,0,o),
(1364,0,cs),
(1552,0,ls)
);
}
);
width = 1776;
}
);
metricLeft = "=percent";
metricRight = "=percent";
unicode = 8240;
},
{
glyphname = upArrow;
lastChange = "2021-04-27 13:07:32 +0000";
layers = (
{
layerId = m003;
shapes = (
{
closed = 0;
nodes = (
(598,900,ls,{
name = "instroke_raise,outstroke_raise";
}),
(598,718,o),
(708,600,o),
(880,600,cs),
(1012,600,l)
);
},
{
closed = 0;
nodes = (
(188,600,l),
(320,600,ls,{
name = instroke_raise;
}),
(488,600,o),
(598,718,o),
(598,900,cs,{
name = "instroke_raise,outstroke_raise";
}),
(598,1006,l)
);
},
{
closed = 0;
nodes = (
(598,132,l),
(598,774,l)
);
}
);
width = 1200;
}
);
unicode = 8593;
},
{
glyphname = rightArrow;
lastChange = "2021-04-27 13:07:32 +0000";
layers = (
{
layerId = m003;
shapes = (
{
closed = 0;
nodes = (
(911,591,ls,{
name = "instroke_raise,outstroke_raise";
}),
(729,591,o),
(612,482,o),
(611,309,cs),
(611,177,l)
);
},
{
closed = 0;
nodes = (
(611,1001,l),
(611,869,ls,{
name = instroke_raise;
}),
(612,702,o),
(730,592,o),
(911,591,cs,{
name = "instroke_raise,outstroke_raise";
}),
(1017,591,l)
);
},
{
closed = 0;
nodes = (
(144,592,l),
(785,591,l)
);
}
);
width = 1200;
}
);
unicode = 8594;
},
{
glyphname = downArrow;
lastChange = "2021-04-27 13:07:32 +0000";
layers = (
{
layerId = m003;
shapes = (
{
closed = 0;
nodes = (
(602,280,ls,{
name = "instroke_raise,outstroke_raise";
}),
(602,462,o),
(492,580,o),
(320,580,cs),
(188,580,l)
);
},
{
closed = 0;
nodes = (
(1012,580,l),
(880,580,ls,{
name = instroke_raise;
}),
(712,580,o),
(602,462,o),
(602,280,cs,{
name = "instroke_raise,outstroke_raise";
}),
(602,174,l)
);
},
{
closed = 0;
nodes = (
(602,1048,l),
(602,406,l)
);
}
);
width = 1200;
}
);
unicode = 8595;
},
{
glyphname = leftArrow;
lastChange = "2021-04-27 13:07:32 +0000";
layers = (
{
layerId = m003;
shapes = (
{
closed = 0;
nodes = (
(289,587,ls,{
name = "instroke_raise,outstroke_raise";
}),
(471,587,o),
(590,698,o),
(589,869,cs),
(589,1001,l)
);
},
{
closed = 0;
nodes = (
(589,177,l),
(589,309,ls,{
name = instroke_raise;
}),
(590,478,o),
(472,588,o),
(289,587,cs,{
name = "instroke_raise,outstroke_raise";
}),
(183,587,l)
);
},
{
closed = 0;
nodes = (
(1058,588,l),
(415,587,l)
);
}
);
width = 1200;
}
);
unicode = 8592;
},
{
glyphname = dieresiscomb;
lastChange = "2021-04-27 13:07:32 +0000";
layers = (
{
anchors = (
{
name = _top;
pos = (600,1000);
},
{
name = top;
pos = (600,1500);
}
);
layerId = m003;
shapes = (
{
closed = 0;
nodes = (
(500,1420,l),
(500,1240,l)
);
},
{
closed = 0;
nodes = (
(700,1420,l),
(700,1240,l)
);
}
);
width = 1200;
}
);
unicode = 776;
},
{
glyphname = dotaccentcomb;
lastChange = "2021-04-27 13:07:32 +0000";
layers = (
{
anchors = (
{
name = _top;
pos = (600,1000);
},
{
name = top;
pos = (600,1500);
}
);
layerId = m003;
shapes = (
{
closed = 0;
nodes = (
(600,1420,l),
(600,1240,l)
);
}
);
width = 1200;
}
);
unicode = 775;
},
{
glyphname = gravecomb;
lastChange = "2021-04-27 13:07:32 +0000";
layers = (
{
anchors = (
{
name = _top;
pos = (580,1000);
},
{
name = top;
pos = (580,1500);
}
);
layerId = m003;
shapes = (
{
closed = 0;
nodes = (
(520,1460,l),
(600,1240,l)
);
}
);
width = 1200;
}
);
unicode = 768;
},
{
glyphname = acutecomb;
lastChange = "2021-04-27 13:07:32 +0000";
layers = (
{
anchors = (
{
name = _top;
pos = (620,1000);
},
{
name = top;
pos = (620,1500);
}
);
layerId = m003;
shapes = (
{
closed = 0;
nodes = (
(680,1460,l),
(600,1240,l)
);
}
);
width = 1200;
}
);
unicode = 769;
},
{
glyphname = hungarumlautcomb;
lastChange = "2021-04-27 13:07:32 +0000";
layers = (
{
anchors = (
{
name = _top;
pos = (620,1000);
},
{
name = top;
pos = (620,1500);
}
);
layerId = m003;
shapes = (
{
closed = 0;
nodes = (
(580,1460,l),
(500,1240,l)
);
},
{
closed = 0;
nodes = (
(780,1460,l),
(700,1240,l)
);
}
);
width = 1200;
}
);
unicode = 779;
},
{
glyphname = caroncomb.alt;
lastChange = "2021-04-27 13:07:32 +0000";
layers = (
{
anchors = (
{
name = _topright;
pos = (560,1500);
}
);
layerId = m003;
shapes = (
{
closed = 0;
nodes = (
(814,1500,l),
(740,1240,l)
);
}
);
width = 1200;
}
);
},
{
glyphname = circumflexcomb;
lastChange = "2021-04-27 13:07:32 +0000";
layers = (
{
anchors = (
{
name = _top;
pos = (600,1000);
},
{
name = top;
pos = (600,1500);
}
);
layerId = m003;
shapes = (
{
closed = 0;
nodes = (
(760,1240,l),
(668,1240,o),
(598,1310,o),
(598,1400,cs,{
name = "instroke_raise,outstroke_raise";
})
);
},
{
closed = 0;
nodes = (
(598,1420,l),
(598,1400,ls),
(598,1310,o),
(528,1240,o),
(440,1240,c,{
name = instroke_raise;
})
);
}
);
width = 1200;
}
);
unicode = 770;
},
{
glyphname = caroncomb;
lastChange = "2021-04-27 13:07:32 +0000";
layers = (
{
anchors = (
{
name = _top;
pos = (600,1000);
},
{
name = top;
pos = (600,1500);
}
);
layerId = m003;
shapes = (
{
closed = 0;
nodes = (
(602,1260,l,{
name = "instroke_raise,outstroke_raise";
}),
(602,1350,o),
(532,1420,o),
(440,1420,c)
);
},
{
closed = 0;
nodes = (
(760,1420,l,{
name = instroke_raise;
}),
(672,1420,o),
(602,1350,o),
(602,1260,cs,{
name = "instroke_raise,outstroke_raise";
}),
(602,1240,l)
);
}
);
width = 1200;
}
);
unicode = 780;
},
{
glyphname = brevecomb;
lastChange = "2021-04-27 13:07:32 +0000";
layers = (
{
anchors = (
{
name = _top;
pos = (600,1000);
},
{
name = top;
pos = (600,1380);
}
);
layerId = m003;
shapes = (
{
closed = 0;
nodes = (
(740,1420,l),
(740,1310,o),
(682,1240,o),
(600,1240,cs),
(520,1240,o),
(460,1310,o),
(460,1420,c)
);
}
);
width = 1200;
}
);
unicode = 774;
},
{
glyphname = ringcomb;
lastChange = "2021-04-27 13:07:32 +0000";
layers = (
{
anchors = (
{
name = _top;
pos = (600,1000);
},
{
name = top;
pos = (600,0);
}
);
layerId = m003;
shapes = (
{
closed = 1;
nodes = (
(480,1388,o),
(532,1440,o),
(598,1440,cs,{
name = instroke_raise;
}),
(668,1440,o),
(720,1388,o),
(720,1320,cs,{
name = "instroke_raise,outstroke_raise";
}),
(720,1252,o),
(668,1200,o),
(602,1200,cs,{
name = instroke_raise;
}),
(532,1200,o),
(480,1252,o),
(480,1320,cs,{
name = "instroke_raise,outstroke_raise";
})
);
}
);
width = 1200;
}
);
unicode = 778;
},
{
glyphname = tildecomb;
lastChange = "2021-04-27 13:07:32 +0000";
layers = (
{
anchors = (
{
name = _top;
pos = (600,1000);
},
{
name = top;
pos = (600,0);
}
);
layerId = m003;
shapes = (
{
closed = 0;
nodes = (
(518,1222,l),
(518,1342,l),
(758,1342,l),
(758,1470,l)
);
}
);
width = 1200;
}
);
unicode = 771;
},
{
glyphname = macroncomb;
lastChange = "2021-04-27 13:07:32 +0000";
layers = (
{
anchors = (
{
name = _top;
pos = (600,1000);
},
{
name = top;
pos = (600,0);
}
);
layerId = m003;
shapes = (
{
closed = 0;
nodes = (
(448,1258,l),
(752,1258,l)
);
}
);
width = 1200;
}
);
unicode = 772;
},
{
glyphname = hookabovecomb;
lastChange = "2021-04-27 13:07:32 +0000";
layers = (
{
anchors = (
{
name = _top;
pos = (584,1000);
},
{
name = top;
pos = (584,1422);
}
);
layerId = m003;
shapes = (
{
closed = 0;
nodes = (
(466,1442,l),
(530,1442,ls),
(598,1442,o),
(630,1384,o),
(612,1314,cs),
(586,1210,l)
);
}
);
width = 1200;
}
);
unicode = 777;
},
{
glyphname = commaturnedabovecomb;
lastChange = "2021-04-27 13:07:32 +0000";
layers = (
{
anchors = (
{
name = _top;
pos = (600,1000);
}
);
layerId = m003;
shapes = (
{
closed = 0;
nodes = (
(598,1442,l),
(572,1338,ls),
(554,1268,o),
(586,1210,o),
(654,1210,cs),
(658,1210,l)
);
}
);
width = 1200;
}
);
unicode = 786;
},
{
glyphname = horncomb;
lastChange = "2021-04-27 13:07:32 +0000";
layers = (
{
anchors = (
{
name = _topright;
pos = (600,1000);
}
);
background = {
shapes = (
{
closed = 0;
nodes = (
(804,1200,l),
(798,934,l),
(798,794,o),
(734,730,o),
(610,730,c)
);
}
);
};
layerId = m003;
shapes = (
{
closed = 0;
nodes = (
(784,1180,l),
(778,830,l)
);
}
);
width = 1200;
}
);
unicode = 795;
},
{
glyphname = dotbelowcomb;
lastChange = "2021-04-27 13:07:32 +0000";
layers = (
{
anchors = (
{
name = _bottom;
pos = (600,0);
},
{
name = bottom;
pos = (600,-448);
}
);
layerId = m003;
shapes = (
{
closed = 0;
nodes = (
(600,-220,l),
(600,-400,l)
);
}
);
width = 1200;
}
);
unicode = 803;
},
{
glyphname = commaaccentcomb;
lastChange = "2021-04-27 13:07:32 +0000";
layers = (
{
anchors = (
{
name = _bottom;
pos = (600,0);
},
{
name = bottom;
pos = (600,0);
}
);
layerId = m003;
shapes = (
{
closed = 0;
nodes = (
(568,-220,l),
(572,-220,ls),
(640,-220,o),
(672,-278,o),
(654,-348,cs),
(628,-452,l)
);
}
);
width = 1200;
}
);
unicode = 806;
},
{
glyphname = cedillacomb;
lastChange = "2021-04-27 13:07:32 +0000";
layers = (
{
anchors = (
{
name = _bottom;
pos = (600,0);
},
{
name = bottom;
}
);
background = {
shapes = (
{
closed = 0;
nodes = (
(568,-220,l),
(572,-220,ls),
(640,-220,o),
(672,-278,o),
(654,-348,cs),
(628,-452,l)
);
},
{
closed = 0;
nodes = (
(568,-220,l),
(572,-220,ls),
(640,-220,o),
(672,-278,o),
(654,-348,cs),
(628,-452,l)
);
}
);
};
layerId = m003;
shapes = (
{
closed = 0;
nodes = (
(600,0,l),
(556,-180,l),
(580,-180,ls),
(648,-180,o),
(682,-240,o),
(664,-308,cs),
(628,-452,l)
);
}
);
width = 1200;
}
);
unicode = 807;
},
{
glyphname = ogonekcomb;
lastChange = "2021-04-27 13:07:32 +0000";
layers = (
{
anchors = (
{
name = _ogonek;
pos = (600,0);
}
);
layerId = m003;
shapes = (
{
closed = 0;
nodes = (
(602,-76,l),
(560,-254,ls),
(544,-318,o),
(574,-382,o),
(642,-382,cs),
(746,-382,l)
);
}
);
width = 1200;
}
);
unicode = 808;
},
